<?xml version="1.0" standalone="no"?>
<!DOCTYPE svg PUBLIC "-//W3C//DTD SVG 1.1//EN" "http://www.w3.org/Graphics/SVG/1.1/DTD/svg11.dtd" >
<svg>
<metadata>
Created by FontForge 20120731 at Sun Jun  5 21:53:35 2016
 By www
Copyright (c) 2005-2010 by Hannes von Doehren, Livius Dietzel. All rights reserved.
</metadata>
<defs>
<font id="LivoryW01-Regular" horiz-adv-x="721" >
  <font-face 
    font-family="LivoryW01-Regular"
    font-weight="400"
    font-stretch="normal"
    units-per-em="1000"
    panose-1="2 3 5 2 6 3 8 2 2 3"
    ascent="750"
    descent="-250"
    x-height="461"
    cap-height="681"
    bbox="-87.2581 -210 1198 888.571"
    underline-thickness="50"
    underline-position="-100"
    unicode-range="U+0002-2122"
  />
<missing-glyph horiz-adv-x="0" 
 />
    <glyph glyph-name=".notdef" horiz-adv-x="0" 
 />
    <glyph glyph-name=".null" horiz-adv-x="0" 
 />
    <glyph glyph-name="uni000D" unicode="&#xd;" horiz-adv-x="0" 
 />
    <glyph glyph-name="uni0002" horiz-adv-x="0" 
 />
    <glyph glyph-name="uni0009" unicode="&#x9;" horiz-adv-x="0" 
 />
    <glyph glyph-name="uni000A" unicode="&#xa;" horiz-adv-x="0" 
 />
    <glyph glyph-name="space" unicode=" " horiz-adv-x="290" 
 />
    <glyph glyph-name="exclam" unicode="!" horiz-adv-x="289" 
d="M81 604q-3 10 -3 21q0 32 22.5 47.5t47.5 15.5q12 0 23.5 -4.5t21.5 -13t16 -20t6 -24.5q0 -12 -4.5 -25t-11 -31.5t-13.5 -44.5t-13 -63t-9.5 -87t-1.5 -116q0 -20 -20 -20q-7 0 -12 4.5t-5 8.5q0 102 -6 165t-13.5 100t-14.5 55.5t-10 31.5zM78 51q0 32 19 48t48 16
q64 0 64 -56q0 -31 -16 -51t-48 -20q-33 0 -50 18.5t-17 44.5z" />
    <glyph glyph-name="quotedbl" unicode="&#x22;" horiz-adv-x="291" 
d="M69 501q0 39 -3.5 68t-8 52t-8 41t-3.5 35q0 16 4 26t10 15t13.5 7t14.5 2q14 0 23 -7.5t9 -30.5q0 -22 -1.5 -38.5t-4 -37.5t-5.5 -51.5t-6 -80.5q0 -8 -8 -10t-15 -2q-11 0 -11 12zM188 501q0 38 -3 66t-6.5 51.5t-6.5 44t-3 44.5q0 23 12 31.5t27 8.5q14 0 24.5 -9
t10.5 -37q0 -20 -2 -34.5t-5.5 -34.5t-7 -50.5t-6.5 -80.5q-1 -8 -8 -10t-15 -2q-4 0 -7.5 2.5t-3.5 9.5z" />
    <glyph glyph-name="numbersign" unicode="#" horiz-adv-x="606" 
d="M246 275q7 0 20 -0.5t27 -0.5h27t21 1q10 2 12.5 5t4.5 11q1 5 4 21.5t6 35t5 35t2 21.5q0 14 -15 15q-5 0 -16.5 0.5t-26 0.5h-28t-22.5 -1q-11 -1 -15 -4.5t-6 -10.5q-1 -5 -3.5 -21t-5 -34t-5 -35t-2.5 -24q0 -8 5 -11.5t11 -3.5zM470 653q-2 -6 -7 -33t-10.5 -58.5
t-9.5 -58t-4 -29.5q0 -13 15 -13h31h30h25h17q4 0 6.5 -5.5t2.5 -13.5q0 -9 -4 -17t-15 -7t-41 1h-60q-8 0 -11 -5.5t-5 -11.5q-1 -3 -4 -19.5t-6.5 -36.5t-6 -37t-1.5 -20q1 -8 4 -10t11 -3q9 -1 24.5 -1h32.5t31.5 0.5t20.5 0.5q10 2 14.5 -4.5t4.5 -15.5t-5 -17.5
t-15 -7.5q-14 1 -47 2t-69 -1q-9 0 -12 -6t-5 -12q-1 -2 -3 -16t-5.5 -33.5t-7 -42.5t-6 -42.5t-4.5 -34t-2 -17.5q0 -11 -8 -20.5t-23 -9.5q-12 0 -19 8.5t-4 20.5q0 2 2.5 15.5t6 33t7 42t6.5 42.5t4.5 35t1.5 19q-1 7 -3 12.5t-12 6.5q-22 2 -50 2t-49 -2q-6 -1 -9 -4
t-6 -12q-3 -10 -8 -39t-9.5 -61t-8.5 -59t-4 -31q-2 -12 -9 -20.5t-24 -8.5q-14 0 -20 10t-4 20q1 3 4 17t6.5 34t7.5 42.5t7 43t5 35.5t2 20q-1 5 -2 7.5t-8 4.5q-8 2 -23.5 2.5t-31.5 0.5t-28.5 -0.5t-15.5 -0.5q-8 0 -12 6.5t-4 14.5q0 9 6 17t19 6q4 0 14 -0.5
t23.5 -0.5h28.5h29q9 0 12 3.5t5 10.5q1 6 4 22.5t5.5 35.5t4 34.5t1.5 20.5q-1 8 -3 10t-10 3q-15 1 -32.5 1t-33.5 -0.5t-28.5 -1t-18.5 -0.5q-5 0 -8.5 6.5t-3.5 14.5q0 9 5 17t17 8h16t27.5 -0.5t32.5 -0.5h32q7 0 11.5 2t8.5 13q3 10 6.5 36.5t7.5 55t6.5 53.5t2.5 32
q2 26 31 28q15 1 20.5 -9.5t3.5 -18.5t-5.5 -28t-7.5 -45t-7.5 -52t-5.5 -49q-1 -6 0.5 -12t9.5 -6h53t54 1q3 0 8.5 4.5t7.5 12.5q1 4 5 30t9 56.5t9.5 56.5t4.5 31q1 9 8.5 18.5t22.5 9.5q13 0 19.5 -10t3.5 -18z" />
    <glyph glyph-name="dollar" unicode="$" horiz-adv-x="502" 
d="M272 -58q1 -12 -4 -17.5t-19 -5.5q-25 0 -22 22q0 2 0.5 8.5t0.5 19.5q0 10 -4 15.5t-20 7.5q-32 3 -59.5 11t-48.5 19t-33 24t-12 27q0 26 4 56t9 50q2 9 9 13.5t15 4.5t13.5 -4t5.5 -11q0 -19 5 -40t16 -39.5t28.5 -34t42.5 -22.5q21 -7 26.5 1.5t5.5 22.5q1 38 2 87
t-1 107q0 13 -1 20.5t-3.5 12t-7 7.5t-11.5 6q-29 15 -58 32t-51.5 40t-36.5 54.5t-14 74.5q0 25 9.5 53t29.5 52t51.5 42.5t75.5 24.5q5 1 10.5 5.5t5.5 13.5v25q0 14 5.5 17t12.5 3q8 0 16 -4t8 -15q0 -2 -0.5 -9.5t-0.5 -17.5q0 -13 4 -14.5t21 -3.5q22 -2 44 -7t39 -11
t29 -12.5t15 -10.5q3 -2 5 -15.5t3 -32.5t1.5 -40t0.5 -39q0 -11 -8.5 -17.5t-18.5 -6.5q-8 0 -13.5 4.5t-7.5 14.5q-6 38 -23.5 70.5t-52.5 49.5q-8 6 -22 9q-10 2 -12.5 -5t-3.5 -19q-2 -39 -2 -81.5t1 -97.5q0 -24 6.5 -33t20.5 -16q28 -14 57.5 -30.5t53.5 -39.5
t39 -54.5t15 -74.5q0 -25 -10 -54.5t-31 -56.5t-52.5 -48.5t-74.5 -30.5q-17 -5 -20.5 -10t-3.5 -15q0 -12 0.5 -21t0.5 -10zM369 150q0 21 -6 38t-15.5 30.5t-21 24t-23.5 18.5q-17 11 -24.5 8.5t-7.5 -27.5v-170q0 -12 3 -17.5t7 -7.5t8.5 -1.5t7.5 1.5q35 11 53.5 39
t18.5 64zM205 439q5 -3 9.5 -5.5t8.5 -1.5t6.5 7t2.5 20q1 37 1 75t-1 83q0 28 -24 21q-32 -9 -51.5 -34.5t-19.5 -60.5q0 -20 4 -34.5t12.5 -26t21 -22t30.5 -21.5z" />
    <glyph glyph-name="percent" unicode="%" horiz-adv-x="855" 
d="M219 689q34 0 65 -11t54 -32.5t37 -52.5t14 -71q0 -41 -13.5 -74t-37.5 -56t-56.5 -35.5t-71.5 -12.5q-35 0 -66.5 11.5t-54.5 33t-36.5 51.5t-13.5 68q0 44 14.5 78t39 57t57.5 34.5t69 11.5zM330 498q0 25 -11 50t-30 45t-43.5 32.5t-52.5 12.5q-17 0 -34.5 -7t-31 -20
t-22 -33t-8.5 -45q0 -29 12.5 -54t32 -43.5t44 -29t48.5 -10.5t42 8.5t30 22.5t18 32.5t6 38.5zM646 334q34 0 65 -11t54 -32.5t37 -52.5t14 -71q0 -41 -13.5 -74t-37.5 -56t-56.5 -35.5t-71.5 -12.5q-35 0 -66.5 11.5t-54.5 33t-36.5 51.5t-13.5 68q0 44 14.5 78t39 57
t57.5 34.5t69 11.5zM757 143q0 25 -11 50t-30 45t-43.5 32.5t-52.5 12.5q-17 0 -34.5 -7t-31 -20t-22 -33t-8.5 -45q0 -29 12.5 -54t32 -43.5t44 -29t48.5 -10.5t42 8.5t30 22.5t18 32.5t6 38.5zM260 26q-8 -15 -15 -25.5t-23 -10.5q-9 0 -20 4t-11 16q0 8 4 15t9 12
q3 3 35 51.5t84.5 132.5t121 199t143.5 251q5 9 11.5 13t13.5 4q11 0 20.5 -7.5t9.5 -18.5q0 -6 -5 -13q-2 -2 -19 -30t-44 -71.5t-60.5 -98.5t-68 -112.5l-67.5 -112.5t-59 -98.5t-42.5 -70.5t-17.5 -29z" />
    <glyph glyph-name="ampersand" unicode="&#x26;" horiz-adv-x="746" 
d="M475 95q-5 8 -9 11t-13 -5q-10 -9 -25.5 -26t-40 -34t-59.5 -30t-83 -13q-36 0 -71 12.5t-63 36.5t-45 59t-17 80q0 39 14.5 72.5t36 60t46.5 46t45 32.5q12 7 7.5 16t-11.5 17q-6 8 -15.5 19t-18.5 25.5t-15.5 33t-6.5 42.5q0 33 13 59t35 45t51 29t62 10q23 0 46.5 -8
t42 -22.5t30 -35.5t11.5 -48q0 -36 -15.5 -62.5t-34 -45t-34 -30t-15.5 -18.5q0 -5 11.5 -15.5t29.5 -28t41.5 -42t47.5 -57.5q7 -9 12 -16.5t9.5 -9t8 3.5t8.5 22q8 28 12 62.5t0 57.5q-3 15 -13 18.5t-20.5 5.5t-19 7t-8.5 23q0 9 7 13t18 4t20.5 -2.5t23.5 -2.5
q23 0 52.5 3.5t55.5 3.5q7 0 17 -1t19 -4t15.5 -9.5t6.5 -17.5t-6 -19t-11 -5q-7 4 -21 6t-28.5 0.5t-25.5 -7.5t-13 -19q-6 -44 -15 -77t-17.5 -56t-15 -36.5t-8.5 -18.5q-5 -14 -3 -21t4 -10q7 -17 23 -37.5t35.5 -38.5t40 -30t38.5 -11q4 0 11 3t13.5 7t13 7t10.5 3
q13 0 13 -18q0 -10 -7 -22.5t-20 -24t-30 -19t-38 -7.5q-28 0 -51.5 12.5t-41.5 29.5t-31 34.5t-21 28.5zM282 69q34 0 61 11.5t46 26.5t29 29.5t10 20.5q0 7 -11 26t-28 43t-38.5 49.5t-41.5 47t-37 35.5t-26 14q-11 0 -31 -13.5t-39 -35.5t-33 -50t-14 -56
q0 -26 10.5 -52.5t30 -47.5t48 -34.5t64.5 -13.5zM204 574q0 -24 7.5 -45.5t19 -38t24 -26t22.5 -9.5q6 0 18.5 8.5t24.5 23t21.5 34.5t9.5 44q0 35 -18.5 59t-56.5 24q-35 0 -53.5 -22.5t-18.5 -51.5z" />
    <glyph glyph-name="quotesingle" unicode="'" horiz-adv-x="171" 
d="M69 501q0 39 -3.5 68t-8 52t-8 41t-3.5 35q0 16 4 26t10 15t13.5 7t14.5 2q14 0 23 -7.5t9 -30.5q0 -22 -1.5 -38.5t-4 -37.5t-5.5 -51.5t-6 -80.5q0 -8 -8 -10t-15 -2q-11 0 -11 12z" />
    <glyph glyph-name="parenleft" unicode="(" horiz-adv-x="318" 
d="M41 311q0 61 17 120.5t47 114.5t70 104t87 90q6 6 15 6t16 -5.5t7 -13.5t-8 -16q-34 -33 -62.5 -73t-49.5 -89t-32.5 -108t-11.5 -130t11.5 -129.5t32.5 -107.5t49.5 -89t62.5 -73q8 -8 8 -17q0 -8 -7 -13t-15 -5q-10 0 -16 6q-47 40 -87 89t-70 104t-47 114.5t-17 120.5
z" />
    <glyph glyph-name="parenright" unicode=")" horiz-adv-x="320" 
d="M279 311q0 -61 -17 -120.5t-47 -114.5t-70.5 -104t-87.5 -89q-8 -6 -16 -6q-9 0 -16 5t-7 13t9 17q34 33 62.5 73t49.5 89t32.5 107.5t11.5 129.5t-11.5 130t-32.5 108t-49.5 89t-62.5 73q-9 9 -9 16q0 8 7.5 13.5t15.5 5.5t16 -6q47 -41 87.5 -90t70.5 -104t47 -114.5
t17 -120.5z" />
    <glyph glyph-name="asterisk" unicode="*" horiz-adv-x="405" 
d="M309 493q8 -9 8 -17.5t-4.5 -16t-12.5 -12t-17 -4.5q-15 0 -25 15q-8 10 -18 30t-30 47q-2 3 -7 3t-8 -3q-19 -26 -30 -46.5t-18 -30.5q-9 -16 -25 -16q-9 0 -17 4.5t-12.5 12t-4.5 16t8 17.5q10 11 25.5 23.5t36.5 43.5q3 5 0.5 9t-6.5 6q-38 12 -56.5 14.5t-31.5 5.5
q-13 2 -19 10t-6 18q0 14 12 26t30 5q15 -5 33.5 -15t53.5 -23q5 -2 8.5 0t3.5 7q0 31 -4.5 54t-5.5 36q-2 17 8.5 25t23.5 8t23.5 -8t9.5 -24q0 -7 -2 -14t-4.5 -16.5t-4 -24.5t-1.5 -39q0 -8 4 -10t9 -1q33 11 54 24t33 18q19 8 30.5 -3.5t11.5 -26.5q0 -9 -5.5 -17
t-17.5 -11q-14 -4 -34 -6.5t-60 -13.5q-5 -2 -5.5 -6t1.5 -6q19 -26 36.5 -42t28.5 -25z" />
    <glyph glyph-name="plus" unicode="+" horiz-adv-x="600" 
d="M322 450q-1 -3 -1.5 -15.5t-0.5 -30.5t-0.5 -39t-0.5 -42q0 -16 4.5 -16.5l13.5 -1.5q18 0 36 0.5t34.5 1t29.5 1.5t20 2q17 3 27.5 -6t10.5 -20q0 -10 -9 -17.5t-29 -8.5q-21 0 -55 -1t-64 0q-14 2 -16 -2t-3 -18q0 -14 0.5 -31.5t1 -34t1 -29.5t0.5 -19
q1 -12 -8.5 -18.5t-20.5 -6.5q-10 0 -18.5 6t-8.5 19v21.5v28.5t0.5 29.5t0.5 25.5q1 23 -7 26.5t-22 2.5q-10 0 -23.5 -0.5t-27.5 -0.5t-27 -0.5t-22 -1.5q-19 -2 -26.5 4.5t-7.5 16.5q0 11 8 21t19 11q3 0 14.5 -0.5t27 -0.5h33.5h35q20 1 23 7.5t3 17.5v56.5t-1 54.5
q-1 15 9 22t21 7t19.5 -5.5t6.5 -15.5z" />
    <glyph glyph-name="comma" unicode="," horiz-adv-x="267" 
d="M126 -198q-5 -3 -8 -3.5t-5 -0.5q-10 0 -16.5 8.5t-6.5 17.5q0 7 4.5 11.5t11.5 9.5q29 19 46 50t17 60q0 18 -3.5 32t-17.5 14q-7 0 -15 -5.5t-20 -5.5q-14 0 -23.5 6t-15.5 15t-8.5 19.5t-2.5 19.5q0 15 5.5 25t14.5 16.5t19.5 9t20.5 2.5q44 0 70 -38t26 -106
q0 -45 -25.5 -88t-67.5 -69z" />
    <glyph glyph-name="hyphen" unicode="-" horiz-adv-x="395" 
d="M84 307q10 0 38 0.5t61 1.5t66.5 3.5t56.5 7.5q14 4 24 -9t10 -29q0 -12 -7.5 -22t-27.5 -10q-81 -1 -133.5 -4t-83.5 -6q-16 -3 -23.5 7t-7.5 24q0 13 6.5 24t20.5 12z" />
    <glyph glyph-name="period" unicode="." horiz-adv-x="256" 
d="M62 51q0 32 19 48t48 16q64 0 64 -56q0 -31 -16 -51t-48 -20q-33 0 -50 18.5t-17 44.5z" />
    <glyph glyph-name="slash" unicode="/" horiz-adv-x="358" 
d="M104 34q-6 -20 -13.5 -32t-30.5 -12q-12 0 -16.5 5.5t-4.5 13.5q0 7 2.5 13.5t4.5 10.5q2 3 18.5 48.5t45 128.5t67 200.5t83.5 264.5q4 12 12 17t17 5q11 0 20.5 -6t9.5 -17q0 -2 -2.5 -8.5t-5.5 -14.5q-1 -2 -10 -29l-23.5 -70.5t-33 -98t-37.5 -111t-37.5 -111
t-32.5 -98t-23 -70.5t-10 -29z" />
    <glyph glyph-name="zero" unicode="0" horiz-adv-x="623" 
d="M341 44q40 0 64.5 28.5t37.5 69t17.5 85t4.5 75.5q0 50 -8.5 106t-29 103t-54.5 78t-84 31q-42 0 -68.5 -28.5t-41 -69.5t-20 -86.5t-5.5 -79.5q0 -66 13.5 -123t38 -99t59 -66t76.5 -24zM319 -10q-63 0 -112 28.5t-82 76t-50 108t-17 124.5q0 35 6.5 74t20.5 77t35 72
t49.5 60.5t65.5 42t82 15.5q57 0 103 -30.5t78.5 -79t49.5 -109t17 -119.5q0 -68 -17.5 -129.5t-50 -108t-78 -74.5t-100.5 -28z" />
    <glyph glyph-name="one" unicode="1" horiz-adv-x="430" 
d="M283 100q2 -20 5 -31.5t14.5 -17.5t34.5 -7t66 1q8 1 13.5 -7t5.5 -17t-5.5 -16t-18.5 -7q-27 1 -67.5 2t-86.5 2t-94.5 0t-91.5 -4q-8 -1 -13.5 7t-5.5 18q0 8 5 15t17 6q37 -2 60.5 -1t37.5 7t20 17.5t8 31.5q1 15 2.5 46.5t2.5 71.5t1 85v87t-1.5 77t-3.5 56
q-1 10 -5 15.5t-17 7.5t-37 1.5t-65 -2.5q-9 -1 -15 8t-6 19q0 7 4 12t13 5q49 0 82 14t54.5 31.5t33.5 32t18 14.5q2 0 8.5 -0.5t13 -3.5t11.5 -10t4 -20q-2 -24 -3 -71.5t-1.5 -105.5t-0.5 -120t0.5 -114.5t1 -89.5t1.5 -45z" />
    <glyph glyph-name="two" unicode="2" horiz-adv-x="536" 
d="M234 607q-30 0 -53 -10t-39 -23.5t-26.5 -28.5t-14.5 -25q-4 -11 -15 -11t-20 9t-7 18q6 17 21.5 39.5t41.5 43t63 35t85 14.5q38 0 73 -12t61.5 -34.5t42 -55t15.5 -72.5q0 -47 -15 -89t-39 -79.5t-54 -71t-60.5 -61.5t-58.5 -51t-48 -40q-8 -7 -5 -11.5t12 -7.5t22 -4
t26 -1q44 0 76 1.5t61 6.5q17 3 36 10.5t33 29.5q7 12 23 12q11 0 18 -6t2 -16q-17 -28 -28.5 -57t-23.5 -59q-2 -8 -16.5 -9.5t-26.5 1.5q-11 3 -23.5 4.5t-23.5 2.5t-39.5 2t-69 1t-90 -0.5t-103.5 -3.5q-8 -1 -12 6.5t-4 17.5q0 14 7 24q25 17 59 44t70.5 60t71.5 71
t62.5 78.5t44.5 82.5t17 82q0 29 -7 55t-23 45.5t-40.5 31t-58.5 11.5z" />
    <glyph glyph-name="three" unicode="3" horiz-adv-x="525" 
d="M381 168q0 43 -20.5 71.5t-54 45t-76 23.5t-85.5 7q-9 0 -13.5 7t-4.5 15t4.5 15t13.5 8q34 3 67 15.5t59 32t41.5 45.5t15.5 56q0 17 -5.5 35t-19 33t-37.5 25t-61 10q-32 0 -54.5 -9t-37.5 -19.5t-23.5 -19t-12.5 -8.5q-12 0 -17 8.5t-5 16.5q0 7 14 21.5t39 29.5
t60 26t77 11q81 0 129.5 -37.5t48.5 -97.5q0 -29 -10.5 -54t-27 -45t-35.5 -35t-36 -23q-5 -2 -3 -5.5t8 -5.5q43 -11 76 -32q14 -9 28 -21.5t25 -29t17.5 -36.5t6.5 -45q0 -47 -18 -85.5t-52.5 -67t-85.5 -44t-116 -15.5q-33 0 -61 4t-49 12.5t-33 20.5t-12 28
q0 14 10 28.5t33 14.5q24 0 37 -9.5t25.5 -21.5t30 -21.5t50.5 -9.5q28 0 55 9.5t48 26.5t34 41.5t13 54.5z" />
    <glyph glyph-name="four" unicode="4" horiz-adv-x="575" 
d="M357 530q0 21 -11.5 22t-18.5 -6q-12 -12 -31.5 -33.5t-43 -48t-48 -55.5t-45 -54t-36 -44.5t-20.5 -26.5q-7 -9 -7.5 -18t16.5 -10q14 0 45 -0.5t65.5 0t65 1.5t43.5 4q8 2 12 5t6 11q3 16 4.5 49.5t2 71.5t1 74.5t0.5 57.5zM515 198h-11.5t-18.5 0.5t-19.5 0.5h-14.5
q-8 0 -10 -4t-2 -11v-29.5v-40v-44.5t1 -43q2 -30 -25 -28q-14 1 -21 0.5t-20 0.5q-15 1 -22 7t-6 22q1 17 2 39.5t1 44.5v40.5v27.5q0 15 -17 17q-23 1 -57 2t-73.5 1t-80.5 -1t-77 -3q-16 2 -22 17t-6 29q0 15 4 19q22 22 52.5 56t63.5 73t65.5 79t58 74t42 58.5
t17.5 31.5q1 8 6 19t16 10q20 0 41.5 9t23.5 19q1 5 5.5 7t9.5 2q8 0 16 -4.5t7 -12.5q-1 -9 -2 -50t-2 -99.5t-1.5 -126t1.5 -128.5q0 -10 5 -16t19 -7q11 -1 22 0t28 1q15 0 27 -6t12 -23q0 -14 -7.5 -22t-30.5 -8z" />
    <glyph glyph-name="five" unicode="5" horiz-adv-x="512" 
d="M79 391q7 38 12 79q5 35 9.5 80t6.5 91q1 7 8.5 12.5t17.5 5.5q55 -2 98 -3t76 -1t59 1.5t48 6.5q6 1 11.5 2t9.5 0t6 -3.5t1 -9.5q-1 -8 -3.5 -25t-3.5 -24q-3 -14 -12 -19t-35 -5q-7 0 -23.5 0.5t-38 1t-45.5 0.5h-45h-37.5t-22.5 -1q-11 -2 -17.5 -4.5t-12.5 -18.5
q-2 -5 -3 -19t-2.5 -30t-2.5 -30t-1 -17q-2 -15 0.5 -20t15.5 -5q41 0 94 -9t100.5 -33t80 -66t32.5 -108q0 -44 -18 -85.5t-51 -73.5t-80 -51.5t-105 -19.5q-74 0 -118.5 15.5t-44.5 49.5q0 19 7.5 35.5t26.5 16.5q21 0 34 -11.5t28 -25t35.5 -24.5t56.5 -11q28 0 54 11.5
t45.5 31t31 45.5t11.5 55q0 52 -25 88t-64 58t-86 31.5t-91 9.5q-14 0 -20 4t-8 9q-3 5 0 13z" />
    <glyph glyph-name="six" unicode="6" horiz-adv-x="581" 
d="M284 385q-17 0 -31 -5t-23 -5q-5 0 -10.5 5t-5.5 11q0 5 4 11.5t15 12.5t31 10.5t52 4.5q39 0 77.5 -12.5t69.5 -38t50 -63.5t19 -90q0 -58 -20 -102t-52 -74t-73.5 -45t-83.5 -15q-54 0 -99 20t-77.5 58t-50 94.5t-17.5 129.5q0 104 31.5 175.5t79.5 116t104 64.5
t105 20q21 0 42 -2t37.5 -6.5t27 -12t10.5 -19.5q0 -15 -11 -24t-33 -9q-10 0 -19 4.5l-20 10t-26.5 10t-37.5 4.5q-41 0 -75.5 -23t-59.5 -64.5t-39.5 -99t-14.5 -126.5q0 -73 13 -125.5t34.5 -86t50.5 -49.5t61 -16q28 0 50 13.5t37 35t23 48.5t8 54q0 40 -12.5 76.5
t-33.5 64t-48.5 43.5t-58.5 16z" />
    <glyph glyph-name="seven" unicode="7" horiz-adv-x="473" 
d="M113 664q6 -3 43.5 -4t89 -1t109 1t103.5 2q9 0 9 -8q0 -6 -4.5 -15.5t-10 -18t-10 -15t-5.5 -7.5q-36 -56 -71 -119t-62 -130t-44 -136.5t-17 -136.5q0 -13 -1.5 -28.5t-7 -29t-17 -22.5t-30.5 -9q-29 0 -42 17t-13 46q0 63 24 132.5t60 139t78.5 137t78.5 125.5
q4 8 -0.5 11t-19.5 2q-29 0 -59.5 0.5t-58.5 0.5t-50 -0.5t-34 -0.5q-27 -3 -42 -5.5t-24.5 -8t-17 -15t-18.5 -24.5q-3 -7 -11 -7t-13.5 5.5t-2.5 10.5q10 27 15.5 41.5t8.5 24t5.5 18.5t6.5 26q5 15 22 12t33 -11z" />
    <glyph glyph-name="eight" unicode="8" horiz-adv-x="556" 
d="M280 35q57 0 87.5 28t30.5 74q0 33 -16 60.5t-38 48t-46 32t-40 11.5q-7 1 -25 -5.5t-36.5 -22t-33 -41t-14.5 -62.5q0 -22 8.5 -44t25 -39.5t41 -28.5t56.5 -11zM272 625q-54 0 -85.5 -30t-31.5 -77q0 -28 16 -54.5t38.5 -46.5t47.5 -32.5t43 -12.5q6 0 23 9.5t35 26.5
t32 42t14 57q0 24 -8 45t-24.5 37.5t-41.5 26t-58 9.5zM161 340q-14 11 -31 25.5t-31 34t-23.5 44t-9.5 54.5q0 36 16 67t44 54t66.5 36t84.5 13q52 0 90.5 -12t64 -32.5t38.5 -48t13 -58.5q0 -35 -14 -62t-32 -45.5t-34.5 -29t-20.5 -12.5q-4 -3 -9.5 -6.5t-8 -8.5t0 -11
t15.5 -13q23 -13 44.5 -30.5t37.5 -38.5t25.5 -45.5t9.5 -52.5q0 -40 -17.5 -72t-48.5 -55t-72 -35.5t-87 -12.5q-52 0 -91 12.5t-64.5 34t-38.5 50.5t-13 61q0 58 31.5 94.5t76.5 60.5q12 6 14.5 11.5t-1 10t-11 9t-14.5 9.5z" />
    <glyph glyph-name="nine" unicode="9" horiz-adv-x="574" 
d="M324 291q14 0 21 2.5t13 2.5q7 0 11.5 -6t4.5 -14q0 -14 -11 -19q-11 -7 -34.5 -13t-53.5 -6q-50 0 -91.5 14t-71.5 40t-47 64.5t-17 86.5q0 49 18.5 90.5t50 71.5t74.5 46.5t93 16.5q49 0 91.5 -21.5t73.5 -59t48.5 -90t17.5 -113.5q0 -83 -20 -155t-58.5 -125t-95 -84
t-130.5 -31q-54 0 -92 13.5t-38 38.5q0 14 10 24.5t30 10.5q9 0 17.5 -6.5t20.5 -15t28.5 -15t42.5 -6.5q33 0 65.5 17.5t59 55.5t42.5 97.5t16 144.5q0 53 -8.5 102.5t-28 88t-50 61.5t-75.5 23q-28 0 -49 -14t-34.5 -36.5t-20 -51.5t-6.5 -60q0 -39 13.5 -70t38 -53.5
t58 -34.5t73.5 -12z" />
    <glyph glyph-name="colon" unicode=":" horiz-adv-x="295" 
d="M82 51q0 32 19.5 48t47.5 16q64 0 64 -56q0 -31 -16 -51t-48 -20t-49.5 18.5t-17.5 44.5zM82 411q0 32 19.5 48t47.5 16q64 0 64 -56q0 -31 -16 -51t-48 -20t-49.5 18.5t-17.5 44.5z" />
    <glyph glyph-name="semicolon" unicode=";" horiz-adv-x="303" 
d="M81 411q0 32 19 48t47 16q64 0 64 -56q0 -31 -16 -51t-48 -20t-49 18.5t-17 44.5zM149 -198q-5 -3 -7.5 -3.5t-4.5 -0.5q-11 0 -17.5 8.5t-6.5 17.5q0 7 4.5 11.5t11.5 9.5q29 19 46 50t17 60q0 18 -3.5 32t-16.5 14q-8 0 -16 -5.5t-19 -5.5q-14 0 -23.5 6t-15.5 15
t-9 19.5t-3 19.5q0 15 5.5 25t14.5 16.5t19.5 9t20.5 2.5q45 0 70.5 -38t25.5 -106q0 -45 -25.5 -88t-67.5 -69z" />
    <glyph glyph-name="less" unicode="&#x3c;" horiz-adv-x="600" 
d="M430 52q-14 7 -34 17.5t-43.5 23t-49 26t-49.5 26.5q-57 30 -121 64q-8 5 -12.5 14t-4.5 19q0 19 13 26q20 10 54.5 27t76.5 38t87.5 45t87.5 49q15 9 25 9q12 0 18 -8t6 -19q0 -9 -4.5 -18t-14.5 -14q-13 -6 -35.5 -16t-48.5 -21.5t-53.5 -24t-51 -23.5t-41 -20
t-22.5 -14q-14 -9 -9.5 -20t12.5 -17q17 -12 50 -30t69.5 -36t71 -33t55.5 -21q11 -4 16.5 -12.5t5.5 -17.5q0 -11 -6.5 -19t-20.5 -8t-27 8z" />
    <glyph glyph-name="equal" unicode="=" horiz-adv-x="600" 
d="M138 396q127 -3 204 -3t119 8q8 2 14 -9t6 -23q0 -11 -5 -19t-17 -8q-53 -2 -135 -0.5t-182 -0.5q-12 0 -17 7t-5 16q0 11 5.5 21.5t12.5 10.5zM135 220h28h53h67t70 0.5t63 2t45 3.5q9 2 14.5 -9.5t5.5 -23.5q0 -10 -4.5 -17.5t-15.5 -7.5q-24 0 -53.5 0.5t-67.5 0.5
t-86 -1t-110 -4q-14 -1 -19.5 7t-5.5 19t4.5 20t11.5 10z" />
    <glyph glyph-name="greater" unicode="&#x3e;" horiz-adv-x="600" 
d="M170 52q-13 -8 -27 -8t-20.5 8t-6.5 19q0 9 5.5 17.5t16.5 12.5q20 6 54.5 21t71.5 33t70 36t50 30q4 3 7.5 7.5t4.5 9.5t-0.5 10t-8.5 10q-6 5 -23 14t-40.5 20t-51 23.5t-53.5 24t-48.5 21.5t-35.5 16q-10 5 -14.5 14t-4.5 18q0 11 6 19t17 8q10 0 25 -9q42 -25 88 -49
t88 -45t76.5 -38t54.5 -27q13 -8 13 -26q0 -10 -4.5 -19t-12.5 -14q-64 -34 -121 -64q-24 -13 -49.5 -26.5t-49 -26t-43.5 -23t-34 -17.5z" />
    <glyph glyph-name="question" unicode="?" horiz-adv-x="349" 
d="M137 257q0 45 9.5 79.5t21 66t21 64.5t9.5 74q0 18 -3.5 36t-10.5 32.5t-19 23.5t-28 9q-15 0 -25.5 -6.5t-18.5 -14t-14.5 -13.5t-14.5 -6q-13 0 -22.5 9t-9.5 22q0 25 24.5 41t80.5 16q41 0 70.5 -11.5t49 -30t28.5 -41.5t9 -45q0 -40 -19 -78.5t-42.5 -76.5t-42.5 -76
t-19 -76q0 -10 -5 -13t-12 -3q-8 0 -12.5 3t-4.5 15zM88 51q0 32 19 48t48 16q64 0 64 -56q0 -31 -16 -51t-48 -20t-49.5 18.5t-17.5 44.5z" />
    <glyph glyph-name="at" unicode="@" horiz-adv-x="910" 
d="M648 61q27 0 56 13.5t54 43t41 75t16 108.5t-25.5 117.5t-71.5 95.5t-110 64.5t-141 23.5q-81 0 -150.5 -29t-120.5 -79.5t-80 -119.5t-29 -148q0 -76 26.5 -141t73.5 -112t113 -74t146 -27q53 0 88.5 10t58 22t34.5 22t18 10q8 0 14.5 -8.5t6.5 -13.5q0 -10 -18 -24
t-48.5 -27t-70.5 -22t-83 -9q-93 0 -167.5 31t-127 84.5t-80.5 125.5t-28 153q0 72 27 146.5t81 135t133.5 98.5t184.5 38q95 0 168.5 -30t123.5 -78.5t75.5 -110t25.5 -124.5q0 -75 -22 -128.5t-55 -87.5t-72.5 -49.5t-74.5 -15.5q-80 0 -111 51q-6 10 -18 1
q-11 -11 -35 -23.5t-54 -12.5q-34 0 -57.5 10t-38.5 25t-21.5 33.5t-6.5 36.5q0 24 14 41.5t35.5 29.5t47 20.5t49.5 14.5t42.5 10.5t25.5 10.5q7 5 9.5 12.5t2.5 15.5q0 62 -18 84.5t-49 22.5q-21 0 -41 -5t-34 -16q-4 -3 -4.5 -10t0.5 -14.5t2.5 -15t1.5 -11.5
q0 -16 -8.5 -26.5t-28.5 -10.5q-16 0 -26.5 14t-10.5 29q0 23 17 44t43.5 37t57.5 25.5t58 9.5q57 0 81 -33.5t24 -107.5q0 -12 -0.5 -29.5t-1.5 -36.5t-1.5 -36.5t-0.5 -30.5v-36.5t5.5 -38.5t19 -30.5t40.5 -12.5zM512 223q-3 3 -11 1q-14 -1 -36.5 -6.5t-43.5 -15.5
t-36.5 -24.5t-15.5 -34.5q0 -9 3.5 -19.5t11.5 -19.5t21 -15t33 -6t35.5 9.5t25.5 25.5t15 36t5 40q0 10 -1.5 18t-5.5 11z" />
    <glyph glyph-name="A" unicode="A" 
d="M449 319q-5 15 -16.5 46t-25 66.5t-27 69.5t-23.5 55q-5 9 -11 12.5t-14 -13.5q-10 -20 -24.5 -51t-29.5 -65.5t-28.5 -68t-21.5 -57.5q-8 -17 14 -22q6 -1 24 -2t43.5 -1t56.5 1t62 4q12 1 19 6.5t2 19.5zM293 598q3 7 1.5 12.5t-4 10.5t-4 10t0.5 11q3 8 19 8
q23 0 37 7t31 30q6 6 14 6t10 -5q7 -21 24.5 -68.5t40.5 -108t49.5 -127.5t51 -127.5t44.5 -107.5t32 -68q4 -7 8.5 -14.5t11.5 -14t17.5 -9.5t26.5 -1q14 2 20.5 -5t6.5 -16t-6.5 -17t-18.5 -6q-11 1 -39.5 2t-62.5 1t-67.5 -0.5t-55.5 -2.5q-13 -1 -19 5.5t-6 14.5
q0 9 6 17t16 7q32 -2 45 8t9 39q0 7 -7 26.5t-15.5 42.5t-17 43.5t-11.5 29.5q-4 9 -13 11q-32 3 -68.5 4t-70.5 1t-61 -1t-39 -2q-14 -1 -22.5 -5t-14.5 -17q-16 -35 -28 -68.5t-18 -50.5q-12 -38 6 -51.5t73 -7.5q13 2 19.5 -6t6.5 -17t-6.5 -17t-19.5 -6q-17 1 -42.5 2
t-54 1t-57.5 -0.5t-54 -2.5q-13 -2 -19.5 6t-6.5 17q0 8 6 15t20 5q43 -4 71 63q4 8 16.5 36.5t36.5 86.5t61 148.5t91 222.5z" />
    <glyph glyph-name="B" unicode="B" horiz-adv-x="629" 
d="M223 410q1 -31 6.5 -38.5t22.5 -7.5h52q34 0 62 10.5t48 29t31.5 44.5t11.5 58q0 63 -39.5 97.5t-109.5 34.5q-51 0 -69.5 -9t-18.5 -30q0 -14 0.5 -42t1 -58t1 -55.5t0.5 -33.5zM322 40q74 0 111 35.5t37 88.5q0 32 -11 60t-32 48.5t-50.5 32.5t-66.5 12h-58
q-12 0 -18.5 -3.5t-9.5 -8.5t-3.5 -11.5t-0.5 -12.5v-33t0.5 -51.5t1.5 -58t2 -52.5q1 -21 22.5 -33.5t75.5 -12.5zM69 -3q-11 -1 -17 6.5t-6 17.5t7 18t24 7q26 -2 42 5t18 27q8 143 7.5 273.5t-3.5 243.5q0 18 -5.5 25.5t-14.5 9.5t-21.5 0.5t-27.5 -1.5q-11 0 -17 8
t-6 18q0 9 5.5 16.5t16.5 7.5q33 -1 97 -0.5t161 2.5q36 1 75 -7t71 -27t53 -50.5t21 -77.5q0 -42 -16 -72t-36.5 -48.5t-40.5 -28t-27 -11.5q-10 -3 -10 -8t10 -8q18 -6 42.5 -19t46.5 -33.5t37.5 -48.5t15.5 -65q0 -45 -16 -78.5t-44.5 -56t-68 -34t-85.5 -11.5
q-69 0 -139 2.5t-149 -2.5z" />
    <glyph glyph-name="C" unicode="C" horiz-adv-x="716" 
d="M434 689q49 0 90.5 -7t72 -17.5t48 -23t18.5 -23.5q3 -23 5 -43.5t3 -49.5q0 -10 -9.5 -14.5t-20.5 -4.5q-8 0 -15 2.5t-8 6.5q-6 26 -20.5 50t-38.5 42t-57.5 29t-78.5 11q-58 0 -106.5 -22t-84 -60.5t-55.5 -92t-20 -116.5q0 -75 25 -132.5t66.5 -96.5t94 -59.5
t106.5 -20.5q40 0 69.5 6t49 14.5t31 17t16.5 13.5t10 5q8 0 15 -8.5t7 -19.5q0 -9 -5 -14q-3 -3 -17 -14t-41 -24t-67.5 -23t-95.5 -10q-86 0 -154 27t-115.5 74.5t-73 112t-25.5 140.5q0 73 27.5 136t77.5 109.5t120 73t156 26.5z" />
    <glyph glyph-name="D" unicode="D" horiz-adv-x="769" 
d="M71 0q-14 -2 -20.5 5t-6.5 16q0 10 6.5 18t18.5 6q26 -3 43.5 4t21.5 34q3 22 5 64t3.5 94.5t1.5 109t-1 107.5t-3 91t-4 59q-2 13 -9 19.5t-16.5 8.5t-21 1.5t-23.5 0.5q-7 0 -11 5.5t-4 13.5t6.5 15t20.5 7h223q88 0 163.5 -21t131 -62t86.5 -102t31 -141
q0 -93 -30 -159t-83.5 -109t-127.5 -63.5t-161 -21.5h-240zM361 45q55 0 100.5 19t78.5 55.5t51.5 89.5t18.5 121q0 56 -15 110.5t-51 97.5t-95.5 69.5t-149.5 26.5q-38 0 -53 -7t-17 -32q-2 -14 -2.5 -47.5t-0.5 -77.5v-94t1 -96.5t1.5 -85t1.5 -59.5q1 -30 12 -48t29 -27
t41 -12t49 -3z" />
    <glyph glyph-name="E" unicode="E" horiz-adv-x="601" 
d="M231 97q0 -14 3 -23.5t11.5 -15.5t23.5 -9t39 -3q23 0 52.5 1.5t47.5 5.5q20 4 35.5 15t26.5 25.5t18 31t12 32.5q4 14 11.5 20t15.5 6q11 0 20 -8.5t6 -20.5q-10 -35 -17.5 -72.5t-10.5 -64.5q-1 -7 -7 -13t-23 -6q-33 0 -55 0.5t-40.5 1t-36.5 1t-42.5 1t-59 1
t-85.5 0.5q-13 0 -28 -1t-29.5 -1.5t-27 -1.5t-19.5 -1q-14 -2 -20.5 5.5t-6.5 17.5t7 18.5t18 6.5q24 -4 37.5 0.5t20 13t8.5 18.5t2 18q2 53 3.5 110.5t2 113t0 107t-1 91.5t-2 66.5t-2.5 33.5q-4 14 -22 17.5t-42 -0.5q-12 -2 -18 5.5t-6 17.5q0 9 5.5 16.5t18.5 6.5
q32 -2 85.5 -3.5t112 -1.5t115.5 1t97 3q30 2 40.5 -6.5t9.5 -20.5q0 -9 -1.5 -23t-3 -29t-3 -27.5t-2.5 -17.5q-2 -13 -10 -19t-16 -6t-14 5t-6 13q1 27 -7 44.5t-30.5 27t-62.5 13t-103 3.5q-16 0 -25 -4.5t-13.5 -12t-6 -16.5t-2.5 -18q-1 -10 -1.5 -36.5t-0.5 -57.5
v-58.5t1 -39.5q1 -22 18 -22h26.5h41.5t41.5 0.5t26.5 0.5q20 2 29.5 16t9.5 44q0 9 8 14.5t17 5.5t16 -5.5t7 -18.5q-2 -33 -3 -51.5t-1 -33t1 -28.5t2 -36q1 -17 -7 -25t-18 -8t-18 7t-7 18q2 26 -6 37.5t-26 15.5q-7 1 -28 2t-44 1t-43.5 -0.5t-26.5 -1.5
q-11 -2 -13 -8.5t-2 -13.5v-42.5v-58t1 -59.5t2 -47z" />
    <glyph glyph-name="F" unicode="F" horiz-adv-x="567" 
d="M326 -2q-17 1 -51 2t-72 1t-74 -0.5t-58 -2.5q-14 -1 -20.5 6t-6.5 16q0 10 7 18t18 7q25 -2 39 3t20.5 13t8.5 17t2 15q3 50 4 113t1 131t-1 138t-3 133q-2 23 -16.5 26.5t-46.5 1.5q-12 -1 -18.5 7t-6.5 17t6 16t19 5q32 -3 87.5 -4t117.5 -0.5t121.5 2t98.5 2.5
q22 1 27 -6.5t5 -11.5q0 -6 -1.5 -20.5t-3 -31.5t-4 -34.5t-3.5 -30.5q-2 -11 -10 -15.5t-17 -4.5t-16 4.5t-6 12.5q3 28 -3 46t-26.5 28.5t-59.5 15t-103 4.5q-19 0 -29.5 -4t-15 -10.5t-5.5 -15t-1 -17.5q-1 -57 -2 -104q0 -20 -0.5 -39.5t-0.5 -35v-26v-13.5q0 -15 5 -17
t10 -3q9 -2 28 -2.5t40 -0.5t39 0.5t24 0.5q32 2 42.5 16.5t10.5 43.5q0 9 8 14t17 5t16 -5.5t7 -17.5q-2 -37 -2 -78.5t1 -70.5q0 -17 -7.5 -24t-16.5 -7q-10 0 -18 6t-8 16q0 53 -34 56q-8 1 -28.5 1h-44t-44.5 -0.5t-29 -1.5q-7 -1 -12 -5.5t-5 -12.5q0 -20 1 -49
t2 -57.5t2 -52.5t1 -33q1 -15 4.5 -25t14 -15t29.5 -6t51 2q11 2 18 -6.5t7 -19.5q0 -10 -7 -18.5t-23 -6.5z" />
    <glyph glyph-name="G" unicode="G" horiz-adv-x="759" 
d="M438 40q79 0 119 31q5 4 8.5 8t6 10.5t3.5 16.5t2 26q1 15 0 38.5t-2 47.5q0 8 -3.5 14t-14.5 7h-17h-20.5t-20.5 -0.5t-17 -0.5q-11 -1 -17 7t-6 18t6 17.5t20 6.5q26 -2 56 -3t58.5 -1t53.5 1t41 2q17 1 24 -5.5t7 -14.5q0 -9 -6.5 -17t-15.5 -7q-14 2 -22 0.5t-12 -5
t-5.5 -8.5t-1.5 -11q-1 -16 -1 -39.5v-46t0.5 -39t0.5 -18.5q0 -23 -19 -30q-54 -26 -108 -40.5t-122 -14.5q-84 0 -150 25.5t-112.5 72t-71 112t-24.5 146.5q0 75 25.5 137.5t73.5 108.5t118.5 71.5t160.5 25.5q42 0 81.5 -7t69.5 -18t49 -23.5t21 -24.5q2 -22 3.5 -41.5
t3.5 -49.5q1 -12 -11.5 -18t-23.5 -6q-6 0 -10.5 1.5t-5.5 5.5q-5 21 -20 45.5t-41 45.5t-62.5 35t-84.5 14q-59 0 -104 -23.5t-76.5 -63t-47.5 -91t-16 -107.5q0 -65 19.5 -123.5t56 -102.5t88 -70.5t116.5 -26.5z" />
    <glyph glyph-name="H" unicode="H" horiz-adv-x="848" 
d="M548 43q10 -1 22.5 -1t24 4t19.5 14t8 28q0 17 0.5 46t1 60t0.5 57.5t-1 39.5q-1 15 -6.5 20t-21.5 7q-10 1 -34 1.5t-56 0.5t-68.5 -0.5t-71 -1t-63.5 -1.5t-46 -2q-10 -1 -17.5 -5t-8.5 -17q-3 -32 -3 -66.5t1 -64.5t2.5 -53.5t2.5 -33.5q2 -20 15 -27.5t48 -3.5
q14 2 20.5 -5t6.5 -16t-7 -17.5t-20 -7.5q-57 2 -114 3t-112 -3q-14 -1 -21 6.5t-7 16.5t6.5 16t17.5 6q10 -1 22.5 -1t23 4t18 12t8.5 24q2 45 3 100t1 112.5v112t-1 98.5t-2.5 73t-2.5 35q-4 14 -18 22t-38 4q-12 -2 -18.5 5t-6.5 16q0 8 6 15t19 6q36 -2 63 -3t50 -1
t44 1t45 3q16 1 22.5 -5t6.5 -14q0 -9 -7 -17.5t-16 -6.5q-29 4 -43.5 -1t-14.5 -23q-1 -29 -1.5 -62t-0.5 -64.5t0.5 -59t1.5 -45.5q0 -9 4 -12.5t14 -5.5t36 -2.5t60 -0.5h72.5t73.5 1t63.5 2t41.5 3q6 1 18 5t12 15q1 31 0.5 68.5t-1 71.5t-2 59t-3.5 31q-9 28 -59 23
q-11 -1 -16.5 5.5t-5.5 14.5t6 15t20 5q36 -3 62.5 -3.5t48 0t41 1.5t43.5 2q18 1 25.5 -5t7.5 -14t-7 -15.5t-17 -6.5q-29 2 -40.5 -2.5t-15.5 -22.5q-1 -4 -1.5 -40t-1 -90t-0.5 -118v-122.5t1 -104t3 -62.5q3 -21 17.5 -28t45.5 -4q14 1 21 -6t7 -17t-6.5 -18.5
t-20.5 -6.5q-25 2 -57 2.5t-64 0.5t-60 -1t-45 -2q-14 0 -20.5 7t-6.5 15q0 9 6.5 17t17.5 6z" />
    <glyph glyph-name="I" unicode="I" horiz-adv-x="373" 
d="M63 46q10 -1 22 -2.5t22.5 0t19 7t10.5 18.5q2 14 3.5 58.5t2.5 103.5t1 124.5t-0.5 121.5t-1.5 95t-3 45q-5 14 -24 20.5t-42 1.5q-11 -2 -16.5 4.5t-5.5 14.5q0 9 6 17t20 6q36 -3 64.5 -3.5t53 -0.5t46.5 1t45 3q18 1 26 -6t8 -15q0 -9 -7 -16.5t-17 -5.5
q-29 3 -44 -1t-20 -21q-2 -6 -3 -44t-1.5 -92.5t0 -118.5t1.5 -122.5t2.5 -104.5t4.5 -64q3 -20 20 -23t52 -1q14 1 20.5 -6.5t6.5 -16.5q0 -10 -7 -18t-20 -7q-57 3 -114 4t-124 -4q-15 -2 -22 7t-7 19q0 9 5.5 16t16.5 6z" />
    <glyph glyph-name="J" unicode="J" horiz-adv-x="348" 
d="M216 -11q-3 -39 -20.5 -74t-44.5 -61.5t-60.5 -42t-67.5 -15.5q-12 0 -27 4t-27.5 10.5t-21 16t-8.5 21.5q0 15 11 26.5t27 11.5q13 0 24.5 -6.5t22 -14t21.5 -13.5t25 -6q20 0 36.5 20t21.5 66q3 29 4.5 88.5t1.5 132.5t-1 151t-3 144t-3.5 111t-2.5 52q-3 19 -16.5 25
t-51.5 4q-11 -1 -17 5.5t-6 14.5t7 15.5t21 5.5q36 -4 66 -5t56.5 -0.5t50.5 2t48 3.5q15 1 21.5 -6.5t6.5 -15.5t-5 -14.5t-13 -6.5q-32 2 -50 -2t-23 -26q-2 -11 -2 -46.5t1 -87.5t2 -115.5t1.5 -129t-0.5 -128.5t-5 -114z" />
    <glyph glyph-name="K" unicode="K" horiz-adv-x="697" 
d="M282 357q5 4 26.5 28.5t50 59t58.5 73t53 71.5q11 15 12.5 24.5t-3 15t-14 7t-20.5 0.5q-12 -2 -18.5 6.5t-6.5 17.5t6.5 16t22.5 5q33 -3 60 -4t52 -0.5t48.5 2t47.5 2.5q12 1 18 -6t6 -15q0 -10 -7.5 -19t-21.5 -7q-10 1 -27 1.5t-34 -12.5q-38 -30 -74 -69t-66 -75
t-51 -63.5t-27 -35.5q-5 -8 -7.5 -16.5t5.5 -21.5q57 -86 102.5 -146t81.5 -97.5t65 -54t55 -16.5q7 0 10 -5.5t3 -11.5q0 -11 -8 -15q-7 -3 -23.5 -7t-48.5 -4q-28 0 -55.5 6.5t-62.5 37t-83.5 93.5t-118.5 176q-6 11 -10 20.5t-4 18.5q0 12 8 20zM63 46q10 -1 22 -2.5
t22.5 0t19 7t10.5 18.5q2 14 3.5 58.5t2.5 103.5t1 124.5t-0.5 121.5t-1.5 95t-3 45q-5 14 -24 20.5t-42 1.5q-11 -2 -16.5 4.5t-5.5 14.5q0 9 6 17t20 6q36 -3 64.5 -3.5t53 -0.5t46.5 1t45 3q17 1 24 -6t7 -15q0 -9 -6.5 -16.5t-14.5 -5.5q-29 4 -44 -0.5t-20 -21.5
q-2 -6 -3 -44t-1.5 -92.5t0 -118.5t1.5 -122.5t2.5 -104.5t4.5 -64q3 -20 20 -23t52 -1q14 1 20.5 -6.5t6.5 -16.5q0 -10 -7 -18t-20 -7q-57 3 -114 4t-124 -4q-15 -2 -22 7t-7 19q0 9 5.5 16t16.5 6z" />
    <glyph glyph-name="L" unicode="L" horiz-adv-x="575" 
d="M423 51q17 4 31.5 20t25 35t17 36.5t8.5 24.5q6 18 25 18q10 0 19 -7t6 -24q-3 -21 -7 -42t-8 -40t-7.5 -33.5t-5.5 -21.5q-6 -19 -25 -18q-19 0 -50.5 1t-70.5 1.5t-82 1.5t-84 0.5t-78 -1.5t-63 -4q-15 -2 -22 6t-7 19q0 9 5.5 16.5t16.5 6.5q10 -1 21.5 -1t21.5 3
t17.5 10t9.5 20q2 14 3.5 57.5t2.5 100.5t1 120.5t-0.5 118t-1.5 92.5t-3 44q-5 14 -21 23.5t-48 3.5q-11 -2 -16.5 4.5t-5.5 15.5t6 17t20 6q72 -5 127 -3.5t101 3.5q18 1 25.5 -6t7.5 -15q0 -9 -7 -16.5t-18 -5.5q-32 3 -53 -4.5t-24 -24.5q-2 -4 -3.5 -26.5t-2.5 -57
t-1.5 -77.5t-1 -89t0 -91.5t2 -84.5t4 -68t5.5 -42t26 -19.5t53 -8.5t60 0t48 6z" />
    <glyph glyph-name="M" unicode="M" horiz-adv-x="966" 
d="M204 581q-2 5 -8.5 5.5t-5.5 -9.5q1 -96 3 -182q1 -37 1.5 -75.5t1.5 -74.5t2 -67t2 -53q1 -16 4.5 -30.5t13.5 -25.5t26.5 -17.5t42.5 -6.5q12 1 18 -8t6 -19q0 -8 -4.5 -14.5t-15.5 -5.5q-29 3 -82.5 4.5t-135.5 -4.5q-11 -2 -16.5 6t-5.5 18q0 9 5.5 16.5t17.5 6.5
q22 -2 35 6t20 21.5t9.5 30t2.5 33.5q1 24 0.5 73t-2 112t-3.5 134t-5 138q-1 26 -9.5 38t-41.5 7q-11 -2 -16.5 6.5t-5.5 17.5q0 8 5.5 14.5t18.5 4.5q20 -3 45.5 -3.5t47.5 0.5q26 1 52 3q26 -1 37 -15.5t13 -22.5q17 -49 43 -111t55 -126.5t56.5 -125.5t47.5 -109
q5 -12 11.5 -10.5t11.5 12.5q19 37 40.5 84t43.5 97.5t42.5 99.5t37 89.5t27.5 69.5t14 38l3.5 7t7.5 9.5t13 8t20 3.5h125q20 0 28 -6.5t8 -14.5t-6 -15t-15 -5q-24 3 -37 2t-19 -7.5t-7 -17.5t-1 -27q-1 -31 -1 -71.5t-0.5 -86.5t0 -94t1 -93.5t1 -87t2.5 -72.5
q0 -6 2 -14t8.5 -14.5t19.5 -9.5t36 1q14 2 20.5 -5.5t6.5 -17.5t-6.5 -18.5t-18.5 -6.5q-20 2 -81 5t-153 -5q-11 -1 -16 6t-5 16q0 10 5 18.5t16 7.5q26 -2 40.5 -1t22 7t10 17t2.5 29q1 25 1.5 61.5t0.5 79.5t-0.5 89.5t-0.5 91t-1 84.5t-1 70q0 6 -4 8.5t-6 -6.5
l-242 -567q-6 -12 -21 -12q-6 0 -12 3t-8 9q-49 115 -94 222q-20 46 -40 94t-39.5 94.5t-37 88t-30.5 73.5z" />
    <glyph glyph-name="N" unicode="N" horiz-adv-x="775" 
d="M204 530q-2 2 -7.5 2.5t-5.5 -6.5q-1 -19 -0.5 -53t1 -75t1 -85t1.5 -82.5t2 -67.5t2 -40q1 -18 4 -34t11.5 -26.5t23 -15t40.5 -1.5q18 2 26.5 -6.5t8.5 -19.5q0 -9 -6 -16.5t-17 -5.5q-31 2 -84.5 4t-135.5 -4q-11 -2 -17 6t-6 18t6 17.5t19 6.5q25 -2 38 3.5
t19.5 16.5t8 25.5t2.5 31.5q2 33 2.5 87.5t0 113t-1.5 112t-1 84.5q-1 66 -11.5 90t-44.5 21q-13 -1 -19 6.5t-6 16.5q0 10 7.5 18.5t22.5 6.5q23 -1 43 -1h35t27 1q17 2 31.5 -16t33.5 -48q64 -96 141 -205.5t172 -228.5q5 -5 13 -5t9 6q1 16 1.5 46.5t1 68.5t0.5 80
t-0.5 80.5t-2 69.5t-2.5 48q-3 32 -20 48t-61 15q-11 0 -16.5 6.5t-5.5 14.5q0 9 6 16.5t20 5.5q36 -3 60.5 -4t44 -0.5t37.5 2t41 2.5q18 1 26 -6t8 -16q0 -8 -6 -14.5t-17 -6.5q-17 0 -28.5 -5.5t-18 -14t-9.5 -19.5t-3 -21q-5 -125 -4.5 -275.5t5.5 -302.5q0 -6 -10 -9.5
t-23 -3.5q-11 0 -20 2.5t-14 8.5l-102 146t-99.5 141t-93.5 130.5t-84 114.5z" />
    <glyph glyph-name="O" unicode="O" horiz-adv-x="802" 
d="M55 346q0 72 26 134.5t72 109t109.5 73t138.5 26.5q78 0 142 -25t109.5 -70.5t70.5 -108.5t25 -139q0 -73 -26 -138t-72.5 -113.5t-110 -76.5t-138.5 -28q-79 0 -143 27t-109 74.5t-69.5 112.5t-24.5 142zM161 367q0 -70 20.5 -130t56 -104t82 -69t98.5 -25t93.5 19.5
t70.5 57t44.5 92t15.5 123.5q0 70 -20.5 127.5t-55.5 98t-82 63t-99 22.5q-50 0 -91 -16.5t-70.5 -50t-46 -85.5t-16.5 -123z" />
    <glyph glyph-name="P" unicode="P" horiz-adv-x="574" 
d="M301 256q-9 0 -15 3.5t-6 14.5v4q1 9 7 14.5t20 5.5q33 0 57.5 14t41.5 37.5t25.5 52.5t8.5 59q0 27 -6.5 60t-26 61t-55 45.5t-94.5 11.5q-20 -2 -28.5 -10t-10.5 -28q-2 -19 -2.5 -54.5t-0.5 -73v-70v-45.5q0 -10 0.5 -32t1 -50.5t1 -59.5t1.5 -59t2 -49t2 -30
q2 -14 11 -21.5t19 -9.5q12 -3 26 -1.5t25 1.5q14 0 20 -8t6 -17q0 -10 -6.5 -17.5t-19.5 -6.5q-27 1 -51.5 2.5t-50.5 2t-56.5 -0.5t-70.5 -4q-14 -2 -20.5 6t-6.5 18t6 18t17 7q8 0 18 -1.5t19.5 0.5t16 9.5t7.5 25.5q1 31 2 77t1 98t-0.5 105.5t-1.5 100.5t-2 82t-2 51
q-1 19 -4.5 28t-10.5 12.5t-17 3t-24 -1.5q-11 -1 -15.5 5.5t-4.5 14.5q0 10 6 18t18 6q3 0 8.5 -0.5t17.5 -1.5t31 -1.5t48 -0.5q20 0 35 0.5t28.5 1t28 1t33.5 0.5q36 0 76.5 -11t74 -35t56 -62.5t22.5 -92.5q0 -64 -21.5 -107t-55.5 -68.5t-76 -36.5t-83 -11z" />
    <glyph glyph-name="Q" unicode="Q" horiz-adv-x="799" 
d="M54 346q0 72 26 134.5t72.5 109t109.5 73t138 26.5q78 0 142 -25t109 -70.5t69.5 -108.5t24.5 -139q0 -53 -13.5 -102t-39 -90.5t-61 -75t-80.5 -54.5q-11 -5 -13 -12.5t2 -15.5q10 -26 28.5 -52t44 -47t57.5 -34.5t70 -13.5q28 0 50.5 10t39.5 24.5t29 30.5t19 29
q6 10 18 10q9 0 17 -6t4 -17q-8 -20 -24.5 -43t-42 -43.5t-60.5 -34t-79 -13.5q-96 0 -159 47.5t-98 123.5q-9 18 -21 21t-33 3q-79 0 -143 27t-109 74.5t-69.5 112.5t-24.5 141zM162 367q0 -70 20.5 -130t56 -104t82 -69t98.5 -25t93.5 19.5t70.5 57t44.5 92t15.5 123.5
q0 70 -20.5 127.5t-55.5 98t-82 63t-99 22.5q-50 0 -91 -16.5t-70.5 -50t-46 -85.5t-16.5 -123z" />
    <glyph glyph-name="R" unicode="R" horiz-adv-x="662" 
d="M413 274q13 -16 30.5 -40.5t37 -51.5t41 -54t43.5 -48.5t44 -35t42 -13.5q6 0 9 -6t3 -13q0 -12 -7 -16q-3 -2 -12 -3.5t-20 -3.5t-23.5 -3t-22.5 -1q-25 0 -49 14t-47.5 37t-45.5 52t-42.5 58t-38.5 56.5t-33 46.5q-10 14 -20 23t-20 11q-9 2 -20.5 3t-18.5 0
q-6 -1 -11.5 -4t-6.5 -21q0 -11 0.5 -36t1.5 -53t2 -51.5t2 -30.5q2 -20 8.5 -29t16 -12.5t22.5 -2.5t28 2q12 0 18.5 -7.5t6.5 -17.5t-6.5 -18t-19.5 -7q-55 2 -113.5 3.5t-122.5 -3.5q-14 -1 -20.5 6t-6.5 17q0 11 7.5 19.5t21.5 6.5q8 -1 19 -1.5t20.5 3.5t17 13t8.5 27
q2 31 3 76.5t1.5 97t0.5 105t-1 100t-2 81.5t-2 51q-2 24 -13.5 28.5t-40.5 -1.5q-12 -3 -18.5 3.5t-6.5 15.5t6 17t18 9q32 2 62.5 4t56.5 3t46.5 1.5t32.5 0.5q61 0 113 -10t90.5 -32t60 -55.5t21.5 -81.5q0 -49 -19.5 -83.5t-44 -57t-48 -34.5t-31.5 -16q-28 -12 -8 -37z
M250 331h40q38 0 70 12.5t55 33.5t35.5 50t12.5 62q0 41 -13 70t-37 47t-57 26.5t-73 8.5q-23 0 -35.5 -4t-18.5 -10t-7 -12t-1 -10v-43t0.5 -66.5t1 -67t0.5 -45.5q1 -26 5 -39t22 -13z" />
    <glyph glyph-name="S" unicode="S" horiz-adv-x="531" 
d="M247 -9q-36 0 -69 7t-57.5 18.5t-39.5 26.5t-15 30q0 26 4 56t9 50q2 9 9 13.5t15 4.5t13 -4t5 -11q0 -23 7.5 -48t24 -46t42.5 -35t64 -14q61 0 92.5 31t31.5 80q0 43 -23.5 71t-59 49.5t-77 40.5t-77 44.5t-59 62.5t-23.5 93q0 28 11.5 59t35.5 56.5t62.5 42.5t92.5 17
q31 0 61 -5t53.5 -12t39 -14.5t18.5 -12.5q3 -2 5 -15.5t3 -32.5t1.5 -40t0.5 -39q0 -11 -8 -17.5t-18 -6.5q-8 0 -13.5 4.5t-7.5 14.5q-4 27 -13.5 51t-26.5 43t-42 30t-58 11q-51 0 -80.5 -30t-29.5 -72t24 -69t60.5 -48t78.5 -40t78.5 -44.5t60.5 -62t24 -91.5
q0 -29 -13.5 -63.5t-42 -64t-71.5 -49.5t-103 -20z" />
    <glyph glyph-name="T" unicode="T" horiz-adv-x="640" 
d="M214 637q-66 2 -103 -23.5t-44 -92.5q-2 -16 -17.5 -16.5t-22.5 13.5q-2 6 -2 22.5t1 36l2 39t2 31.5q0 4 2 10t7.5 11.5t14.5 9.5t23 3q25 -2 65 -3t86.5 -1t97 0.5t96.5 1t84.5 1t61.5 1.5q13 0 21 -3.5t12.5 -9t6 -11.5t1.5 -10q0 -12 1 -28.5t1.5 -34t1 -33.5
t0.5 -27q0 -8 -6.5 -13t-14.5 -5.5t-15.5 4t-8.5 16.5q-5 63 -39 89t-103 23q-20 -1 -32 -3t-18 -7t-7.5 -14t-2.5 -23q-2 -35 -2.5 -99t0 -138t3 -147.5t6.5 -126.5q2 -22 13 -30t46 -4q14 2 20 -5.5t6 -16.5q0 -10 -6.5 -18.5t-19.5 -7.5q-28 1 -58.5 2t-60.5 1t-56.5 -1
t-46.5 -2q-15 -1 -22 7.5t-7 18.5q0 9 5.5 16t16.5 6q10 0 22 -0.5t22.5 2.5t17.5 9.5t8 19.5q4 53 5 124t1 143.5t-0.5 138t-0.5 107.5q0 31 -13.5 38.5t-50.5 8.5z" />
    <glyph glyph-name="U" unicode="U" horiz-adv-x="744" 
d="M566 282q2 81 1 164.5t-1 166.5q0 17 -13.5 23t-54.5 1q-13 -2 -19.5 5.5t-6.5 16.5q0 8 6 15t19 6q31 -3 55.5 -3.5t46 0t41.5 2t43 2.5q17 1 24.5 -6t7.5 -15q0 -9 -6.5 -16.5t-16.5 -6.5q-27 4 -44.5 0t-20.5 -21q-3 -50 -3.5 -91t0 -79.5t1 -78.5t0.5 -86
q-1 -61 -13 -114t-41 -92.5t-79 -62t-126 -22.5q-57 0 -102.5 16t-77 51t-49 92t-18.5 139q-1 50 -1 88.5v74.5t0.5 74t0.5 88q0 14 -12 20.5t-53 4.5q-11 -1 -17 6.5t-6 15.5q0 9 6 16t20 5q25 -3 54 -3.5t57.5 0t54 1.5t43.5 2q17 1 25 -6t8 -15q0 -9 -7.5 -16.5
t-19.5 -5.5q-55 9 -61 -26q-1 -35 -1.5 -77.5t-0.5 -86v-85t1 -74.5q1 -47 8.5 -89.5t27.5 -75t55.5 -52t93.5 -19.5q40 0 71.5 12t53 39t33 71t13.5 107z" />
    <glyph glyph-name="V" unicode="V" 
d="M632 604q-16 -30 -40 -89t-55 -138.5t-68 -176.5t-77 -205q-1 -2 -9.5 -4.5t-25.5 -2.5q-25 0 -26 5q-103 274 -164.5 429t-79.5 187q-7 14 -26.5 22.5t-45.5 6.5q-16 -2 -23.5 6t-7.5 17q0 8 6 14.5t17 5.5q25 -2 56.5 -3t63.5 -0.5t63 1t57 1.5q14 0 19.5 -6.5
t5.5 -14.5t-5.5 -15t-13.5 -6q-31 4 -44 -6t-11 -27q1 -12 16.5 -58.5t39.5 -112t53.5 -141t58.5 -144.5q5 -10 12.5 -10.5t11.5 9.5q14 32 31 74.5t35 88t35 91.5t31.5 85.5t25 69.5t14.5 44q7 26 -14 33.5t-63 3.5q-14 -2 -22 6.5t-8 17.5q0 8 6 14t20 5q29 -2 48.5 -2.5
t33.5 -1t26 -0.5t26.5 0.5t34 1.5t49.5 2q13 1 19 -6t6 -16q0 -8 -5 -15t-15 -6q-35 3 -49 -7t-23 -27z" />
    <glyph glyph-name="W" unicode="W" horiz-adv-x="1040" 
d="M516 668q2 10 13 15.5t22 5.5q7 0 12.5 -2.5t7.5 -10.5t11.5 -35.5t23 -68.5t31.5 -91.5t37.5 -103.5t39.5 -106.5t38 -99.5q5 -11 10.5 -11.5t8.5 10.5q16 49 34.5 114.5t35 129t29 115t17.5 72.5q4 26 -13 33.5t-53 3.5q-14 -2 -21 6.5t-7 17.5q0 8 5.5 14t18.5 5
q39 -2 60 -3t39 -1t40 1t63 3q12 1 17.5 -6.5t5.5 -15.5t-5 -15t-15 -6q-31 3 -48 -6.5t-22 -26.5q-11 -30 -26 -81.5t-37 -126t-50 -174t-64 -225.5q-2 -5 -12.5 -7.5t-21.5 -2.5q-8 0 -13 1t-6 4q-23 64 -48 134t-49 136.5t-45.5 124.5t-37.5 97q-4 11 -9 14t-10 1
t-9 -6.5t-6 -8.5q-17 -45 -38 -101t-44 -119.5t-47 -131.5t-47 -135q-2 -5 -12.5 -7.5t-21.5 -2.5q-8 0 -13.5 1t-6.5 4q-88 277 -136.5 430.5t-65.5 185.5q-7 14 -21 22.5t-38 6.5q-14 -2 -20.5 6t-6.5 17q0 8 5 14.5t15 5.5q23 -2 57 -3t70 -0.5t70 1t57 1.5q12 0 17 -7
t5 -15t-4 -15t-12 -6q-14 2 -29 2t-27 -3.5t-19.5 -11t-5.5 -19.5q1 -12 11.5 -54t28 -102t40.5 -131t49 -140q5 -11 12 -11.5t11 10.5q23 53 46.5 114t46.5 125.5t44 128.5t38 123z" />
    <glyph glyph-name="X" unicode="X" horiz-adv-x="745" 
d="M308 349q-30 43 -50.5 72t-39.5 55.5t-40.5 55.5t-53.5 71q-11 15 -26 27t-43 9q-13 -2 -19.5 5t-6.5 16q0 8 6.5 15t19.5 6q70 -5 124.5 -3.5t101.5 3.5q17 1 24 -5.5t7 -14.5q0 -9 -7.5 -17t-18.5 -6q-14 2 -26.5 1t-20.5 -5t-10.5 -11t4.5 -17q9 -15 22.5 -36
t30.5 -45.5t37.5 -52t44.5 -54.5q6 -8 11.5 -9t10 1t8 6.5t7.5 8.5q18 21 38 46.5t38.5 50t33.5 46.5t24 36q4 6 4 13t-6.5 12.5t-22.5 8.5t-44 1q-12 -1 -18 6.5t-6 15.5t5.5 14t18.5 6q28 -1 51 -2t46.5 -1.5t51 0t64.5 3.5q17 1 24 -5t7 -14q0 -9 -7 -17.5t-18 -6.5
q-31 4 -50.5 -7.5t-31.5 -25.5q-18 -20 -40.5 -46.5t-46 -56t-47 -60.5t-43.5 -60q-5 -7 -10.5 -17t6.5 -25q42 -59 92 -124t120 -145q15 -17 30 -23t47 -2q14 1 20.5 -6.5t6.5 -16.5q0 -10 -7 -18.5t-20 -6.5q-114 9 -264 0q-15 -2 -22.5 7t-7.5 20q0 9 5 15.5t16 5.5
q10 -1 25.5 -2.5t28 0t19.5 6t0 15.5q-13 22 -32.5 50.5t-40.5 57t-40.5 53.5t-33.5 42q-4 3 -7 5.5t-7 3t-9.5 -2.5t-12.5 -12q-15 -17 -34 -41.5t-38.5 -51t-37.5 -52t-30 -44.5q-10 -16 0 -24t51 -3q16 2 23.5 -7t7.5 -19q0 -9 -6 -16t-18 -6q-65 4 -114 4t-99 -4
q-18 -1 -25 6t-7 16q0 10 6.5 18.5t16.5 7.5q29 -5 55 1t37 20q54 64 100.5 124t92.5 126q5 8 3.5 15.5t-8.5 16.5z" />
    <glyph glyph-name="Y" unicode="Y" horiz-adv-x="645" 
d="M366 300q-2 -6 -3 -20t-1 -34q0 -19 0.5 -42t1.5 -46t2.5 -45t2.5 -40q2 -21 21 -26t53 0q14 2 20.5 -5.5t6.5 -17.5t-7 -18.5t-20 -7.5q-55 4 -117.5 4.5t-127.5 -5.5q-15 -2 -22 7t-7 20q0 10 5 17t16 6q10 -1 23 -2.5t25 -0.5t20.5 6t10.5 18q3 20 4.5 57.5t1.5 75.5
q0 41 -1.5 73t-4.5 39q-18 36 -43.5 80.5t-52 87.5t-51.5 80t-42 59q-5 6 -9.5 10.5t-10 6.5t-13 2.5t-19.5 -1.5q-11 -2 -17.5 5.5t-6.5 16.5q0 8 6 15t18 6q51 -5 109 -3.5t105 4.5q17 1 24.5 -5.5t7.5 -14.5q0 -10 -7.5 -18t-18.5 -7q-33 5 -44.5 -9.5t-0.5 -33.5
q23 -45 52.5 -101t72.5 -113q6 -8 13 -6.5t12 6.5q15 19 35 48.5t40 60.5t37 59t25 44q4 9 3 19t-8 17.5t-20.5 10.5t-33.5 -1q-12 -2 -19.5 6t-7.5 18q0 8 5.5 13.5t16.5 5.5q32 -1 57 -2t48.5 -1.5t48 0t54.5 3.5q16 1 22.5 -5.5t6.5 -14.5q0 -9 -6.5 -16.5t-17.5 -6.5
q-32 2 -46.5 -8.5t-25.5 -25.5q-12 -14 -30.5 -38.5t-39.5 -54t-43 -62t-40.5 -62t-31 -52.5t-16.5 -35z" />
    <glyph glyph-name="Z" unicode="Z" horiz-adv-x="612" 
d="M490 -3q-32 0 -70 1t-89.5 1.5t-119 0.5t-157.5 -2q-8 0 -16 9.5t-8 22.5t8 22q94 126 190 265.5t186 280.5q7 11 4 23.5t-25 14.5q-27 3 -67.5 3t-73.5 -2q-29 -2 -51 -8t-37 -19t-24 -35t-13 -55q-2 -8 -8.5 -12.5t-14.5 -4.5q-7 0 -13 3.5t-7 10.5q0 6 -0.5 22.5
t-0.5 36.5t-0.5 39.5t-0.5 31.5q-1 16 7 26t33 8q66 -2 128 -2.5t116.5 0t99.5 1.5t76 1q6 0 10 -7t4 -17q0 -14 -7 -22q-123 -171 -214 -304t-151 -233q-4 -7 -7.5 -14.5t-3 -14.5t6 -12t19.5 -6q31 -3 65.5 -4t76.5 -1t69 8.5t44.5 25t28 41.5t21.5 57q4 12 13.5 18
t19.5 6q11 0 17.5 -7t3.5 -21q-2 -12 -5.5 -33.5t-7.5 -44t-6.5 -42.5t-3.5 -30q0 -11 -8 -19t-37 -8z" />
    <glyph glyph-name="bracketleft" unicode="[" horiz-adv-x="301" 
d="M115 -124q-12 0 -18.5 6t-4.5 15q1 5 2 67.5t2 171t1 257t-1 325.5q0 15 6.5 17t14.5 2h52t47 -0.5t34.5 -0.5h14.5q11 1 17 -3.5t6 -18.5q0 -12 -6.5 -19.5t-15.5 -5.5q-2 0 -12 0.5t-23.5 1t-26.5 1t-20 0.5q-9 0 -10.5 -7.5t-1.5 -12.5v-44.5v-88v-116.5v-130v-128.5
v-111.5v-79.5v-32.5q2 -14 8 -17t14 -3q6 0 16.5 0.5l21 1t19 1t10.5 0.5q22 3 22 -22q0 -26 -23 -25h-15h-33h-45.5t-51.5 -1z" />
    <glyph glyph-name="backslash" unicode="\" horiz-adv-x="355" 
d="M251 34q-1 2 -9.5 28.5t-22 68.5t-31 95t-36 108.5t-36 109.5t-32 97.5t-24 71.5t-11.5 33q-5 11 -7.5 17.5t-2.5 11.5q0 11 8 17t18 6q9 0 17.5 -5.5t12.5 -17.5q45 -147 83.5 -264.5t67 -200.5t45 -128.5t18.5 -48.5q2 -4 4.5 -10.5t2.5 -13.5q0 -8 -4.5 -13.5
t-16.5 -5.5q-23 0 -30.5 12t-13.5 32z" />
    <glyph glyph-name="bracketright" unicode="]" horiz-adv-x="309" 
d="M195 -134q-26 1 -51.5 1h-46h-33.5h-14q-24 -2 -24 25q0 12 6.5 18.5t16.5 4.5q1 0 9.5 -0.5t19 -1t21.5 -1t17 -0.5q7 0 13.5 2.5t8.5 16.5v33v81v113.5v130v131.5v118v89v45q0 5 -1.5 12.5t-11.5 7.5q-7 0 -20 -0.5l-26 -1t-23.5 -1t-11.5 -0.5q-10 -2 -16.5 5.5
t-6.5 19.5q0 14 6 18.5t18 3.5h14.5t34 0.5t46.5 0.5h52q8 0 15 -2t7 -17q-2 -177 -2 -327t1 -260.5t2 -174.5t2 -69q2 -9 -4 -15t-18 -6z" />
    <glyph glyph-name="asciicircum" unicode="^" horiz-adv-x="464" 
d="M41 461q18 27 40 62.5t43.5 70t39.5 63.5t27 43q5 9 14.5 13t19.5 4q8 0 15.5 -3t11.5 -10q22 -38 61 -102t93 -146q9 -15 9 -25q0 -11 -9 -17t-20 -6q-10 0 -19.5 4.5t-14.5 14.5q-10 19 -26 49t-32.5 60t-31.5 54.5t-22 33.5q-9 12 -20.5 9.5t-17.5 -9.5
q-12 -17 -27.5 -42t-31 -52t-29.5 -53.5t-24 -46.5q-5 -11 -14 -15.5t-19 -4.5q-11 0 -18.5 6t-7.5 17q0 12 10 28z" />
    <glyph glyph-name="underscore" unicode="_" horiz-adv-x="515" 
d="M30 -14h37.5h76t96 0.5t99.5 1t85.5 1.5t54.5 3q9 2 15 -9.5t6 -23.5q0 -10 -5 -17.5t-16 -7.5q-24 0 -72 0.5t-109 0.5t-128.5 -1t-129.5 -4q-14 -1 -19.5 7t-5.5 19t4.5 20t10.5 10z" />
    <glyph glyph-name="grave" unicode="`" horiz-adv-x="289" 
d="M68 684q-13 14 -7 24.5t20 10.5q4 0 18 0.5t26 0.5q8 0 14 -3.5t11 -15.5q11 -24 30.5 -61.5t43.5 -76.5q6 -10 3 -17.5t-11 -11t-17.5 -2.5t-15.5 7q-15 22 -32 44t-33 41.5t-29.5 35t-20.5 24.5z" />
    <glyph glyph-name="a" unicode="a" horiz-adv-x="472" 
d="M98 287q-17 0 -30 16t-13 33q0 27 20 51t50.5 42t66 29t67.5 11q64 0 92 -38.5t28 -123.5q0 -38 -2.5 -76.5t-2.5 -80.5q0 -18 1 -36t6 -31.5t16 -20t31 -1.5q9 4 15 -4.5t6 -18.5q0 -6 -2.5 -11.5t-8.5 -7.5l-24 -8t-29.5 -9.5t-25.5 -8t-13 -3.5q-7 0 -17.5 11
t-19.5 29q-5 13 -19 1q-6 -6 -16.5 -13t-24 -13t-29.5 -10.5t-33 -4.5q-39 0 -66.5 11t-44 29t-24 39.5t-7.5 42.5q0 27 16 47t40.5 34.5t54 24t57 16.5t49 12t29.5 11t11 13.5t3 18.5q0 36 -5.5 59.5t-15.5 37.5t-24.5 19.5t-32.5 5.5q-24 0 -47.5 -5.5t-37.5 -17.5
q-5 -4 -5.5 -11.5t0.5 -16.5t3 -17.5t2 -13.5q0 -17 -10.5 -29.5t-33.5 -12.5zM293 206q-3 3 -14 1q-16 -2 -41.5 -8.5t-50 -18t-42 -28t-17.5 -38.5q0 -11 4 -23t13 -22t24 -17t37 -7q24 0 41.5 11t29.5 29t18 40.5t6 46.5q0 11 -1.5 20.5t-6.5 13.5z" />
    <glyph glyph-name="b" unicode="b" horiz-adv-x="539" 
d="M254 421q-6 0 -13.5 -1.5t-15 -1t-14 4t-8.5 12.5q-6 17 16 25.5t60 8.5q46 0 85 -13t67.5 -41.5t44.5 -73t16 -107.5q0 -51 -18.5 -95.5t-51.5 -77.5t-80 -52t-104 -19q-78 0 -120.5 17.5t-42.5 37.5q2 33 3 85t1 111.5v122t-1 117.5t-2.5 97.5t-3.5 62.5
q-1 8 -1.5 15.5t-5 12.5t-13.5 7t-26 -1q-11 -2 -16.5 4.5t-5.5 14.5t4.5 15.5t13.5 7.5q16 0 50.5 6.5t70.5 23.5q5 -3 9 -9q3 -5 5.5 -13.5t0.5 -19.5q-3 -21 -4.5 -51.5t-1.5 -61.5v-59v-44v-32v-68.5v-88t1 -92t3 -80t5 -50.5q9 -12 26.5 -25.5t59.5 -13.5q37 0 65.5 16
t47.5 41.5t28.5 58.5t9.5 67q0 37 -7 72.5t-23.5 63.5t-44 45.5t-69.5 17.5z" />
    <glyph glyph-name="c" unicode="c" horiz-adv-x="462" 
d="M395 444q5 -3 7 -20t4 -36q2 -22 2 -49q0 -6 -6.5 -11.5t-14.5 -5.5q-5 0 -10 3.5t-6 12.5q-2 11 -8.5 25t-19 27t-31.5 21.5t-44 8.5q-29 0 -55 -11t-46 -32t-32 -53t-12 -74q0 -38 11.5 -72t32 -59.5t50 -40t65.5 -14.5q43 0 69 16.5t38 34.5q7 11 16 11t15.5 -9
t1.5 -20q-12 -31 -32 -51.5t-42.5 -32.5t-47 -17t-45.5 -5q-47 0 -85.5 19.5t-66 52t-42.5 75t-15 89.5q0 49 16.5 93t47 77t75 52.5t100.5 19.5q41 0 71.5 -10t38.5 -15z" />
    <glyph glyph-name="d" unicode="d" horiz-adv-x="565" 
d="M262 422q-26 0 -49 -12t-40 -34.5t-27 -55t-10 -73.5q0 -31 7 -66t24 -65t45 -50t70 -20q45 0 67 22t31 49q2 25 2.5 65t0.5 79t-1 69t-3 36q-10 18 -38.5 37t-78.5 19zM465 98q0 -7 3 -15t9 -13.5t15 -7t21 3.5q8 3 14.5 -4.5t6.5 -17.5q0 -14 -12 -21q-17 -9 -40 -19.5
t-43 -13.5q-8 -2 -15 7.5t-14.5 19.5t-16 16.5t-17.5 -0.5q-18 -14 -49 -28.5t-76 -14.5q-39 0 -75.5 14.5t-65 45.5t-46 77.5t-17.5 111.5q0 55 18.5 98t51 72.5t76.5 45t94 15.5q32 0 52.5 -3t29.5 -5q6 -1 9.5 -1.5t5.5 2.5t3 11t1 23v40.5v48.5v43t-1 25q-2 14 -9.5 20
t-39.5 0q-12 -2 -17.5 4.5t-5.5 14.5t4.5 15t14.5 7q22 0 41.5 5t35 10.5t26.5 10.5t17 5t10 -4.5t5.5 -11t1.5 -14v-12.5q-2 -21 -3.5 -65t-3 -101t-2.5 -121t-1 -124t1 -111.5t3 -83.5z" />
    <glyph glyph-name="e" unicode="e" horiz-adv-x="474" 
d="M393 268q-18 -2 -49.5 -2.5t-66.5 -1.5t-67.5 -2.5t-51.5 -3.5q-16 -2 -24 -8.5t-8 -23.5q0 -39 12.5 -70.5t33.5 -54t49.5 -35t61.5 -12.5q32 0 59.5 13.5t45.5 34.5q6 6 12 6q10 0 15.5 -11.5t-2.5 -23.5q-13 -21 -31.5 -36.5t-40 -25.5t-45 -15t-45.5 -5q-53 0 -91 18
t-63.5 48t-37.5 69.5t-12 83.5q0 50 15.5 96.5t44 82.5t70 58t93.5 22q41 0 71 -14t50 -36.5t29.5 -50t9.5 -54.5q0 -17 -9 -30.5t-28 -15.5zM162 304q12 -1 33 -1t43.5 1t44.5 2.5t36 4.5q17 3 19 21t-7.5 37.5t-29.5 35.5t-47 16q-23 0 -42 -9t-33 -22.5t-23 -29
t-12 -27.5q-4 -14 0 -20.5t18 -8.5z" />
    <glyph glyph-name="f" unicode="f" horiz-adv-x="349" 
d="M193 75q2 -14 20 -24.5t50 -4.5q13 1 19 -6.5t6 -16.5q0 -10 -6.5 -18t-18.5 -7q-48 2 -100 2t-102 -2q-13 -1 -19 6.5t-6 16.5q0 10 6 18t17 7q9 0 17.5 -0.5t15 2t11 9t5.5 19.5q2 36 2.5 79.5t0.5 87.5t-0.5 84t-0.5 69q0 11 -7 13t-17 2q-5 0 -10 -0.5t-10 0.5
q-8 2 -12.5 9.5t-4.5 15.5t4.5 14.5t13.5 7.5q15 1 24 8t14 17.5t6.5 23t2.5 23.5q5 42 17 81t34.5 69.5t57.5 48.5t85 18q57 0 92.5 -22t35.5 -49q0 -15 -11.5 -29t-28.5 -14q-11 0 -19 4.5t-14.5 12t-13 15.5t-14.5 16q-10 9 -22.5 15t-32.5 6q-37 0 -56.5 -24.5
t-28.5 -60t-10 -74.5t-1 -69q0 -15 14 -15h21t29.5 0.5t29.5 1.5t21 1q14 1 20.5 -7t6.5 -18q0 -9 -5.5 -16.5t-15.5 -7.5h-23.5h-32h-31.5h-22q-12 0 -12 -13q0 -47 1 -99.5t2 -99t2.5 -81.5t3.5 -45z" />
    <glyph glyph-name="g" unicode="g" horiz-adv-x="502" 
d="M229 431q-35 0 -59.5 -27.5t-24.5 -78.5q0 -20 6 -40.5t19 -37t31.5 -27t44.5 -10.5q21 0 36.5 8t26 21.5t15.5 30t5 34.5q0 23 -7 45.5t-20.5 40.5t-32 29.5t-40.5 11.5zM225 16q-23 0 -44 -7t-36.5 -18.5t-25 -27t-9.5 -31.5q0 -38 33.5 -66.5t102.5 -28.5q28 0 53 7
t43.5 19.5t29 29t10.5 34.5q0 24 -12 39.5t-32 24.5t-52.5 17t-60.5 8zM139 185q1 1 1 4q0 8 -10.5 15.5t-24.5 21.5q-14 13 -28 37t-14 60q0 34 13.5 61.5t38 46.5t58 29t73.5 10q25 0 50 -7t49 -9q15 -1 32 0t33.5 3t30.5 4t22 3q12 2 16.5 -5t4.5 -17q0 -12 -5 -24
t-11 -15t-18.5 -2.5t-25.5 2t-24.5 3t-15.5 1.5t-7 -3t1 -9q6 -8 18 -29.5t12 -51.5q0 -32 -14.5 -57.5t-38.5 -43.5t-54 -27.5t-61 -9.5q-20 0 -37.5 -5t-30.5 -12t-20.5 -13t-7.5 -9q0 -12 25 -20q18 -6 46 -13t60 -15.5t65.5 -18t63.5 -21.5q31 -12 48.5 -38t17.5 -55
q0 -33 -19 -62.5t-52 -51t-77.5 -34t-95.5 -12.5t-90 10.5t-65 28t-39.5 39t-13.5 42.5q0 22 14 40.5t34.5 33t44 25t43.5 17.5q6 2 8.5 7t-5.5 9q-15 6 -33 12.5t-33 14.5t-25.5 17.5t-10.5 22.5q0 8 12 18.5t27 20t28.5 18t16.5 13.5z" />
    <glyph glyph-name="h" unicode="h" horiz-adv-x="605" 
d="M380 47q18 -2 30 4.5t14 29.5q5 60 5.5 123.5t-3.5 113.5q-2 26 -11 42.5t-21 26.5t-25 13.5t-24 3.5q-27 0 -55 -12.5t-51.5 -32t-38.5 -42.5t-16 -44q-1 -42 -1.5 -72.5t-0.5 -53t1 -38.5t3 -28q1 -7 3 -14t8 -12t16.5 -7.5t27.5 -0.5q13 1 19 -6t6 -17t-6 -18.5
t-19 -7.5q-26 1 -49 1.5t-46 0.5t-46.5 -0.5t-50.5 -1.5q-14 -1 -21 7.5t-7 18.5q0 9 5 16t16 7q10 -1 20.5 -0.5t19 4t14.5 11t6 19.5q4 121 5 224t0 179.5t-4 123t-6 55.5q-5 9 -13 8t-26 -4q-11 -2 -16.5 7t-5.5 20q0 8 4 14t13 7q24 1 40 4.5t29 8t24.5 9.5t28.5 10
q4 -3 12.5 -10.5t5.5 -32.5q-4 -22 -6.5 -61t-3.5 -84t-1 -90t2 -79q0 -8 4.5 -11.5t9.5 3.5q11 13 28.5 28.5t40 29t50 22.5t58.5 9q35 0 60 -13t41.5 -35.5t24.5 -52.5t8 -63q0 -39 -1 -71.5t-2 -60.5t-0.5 -51.5t2.5 -44.5q1 -14 10.5 -24.5t44.5 -7.5q13 1 19.5 -6.5
t6.5 -16.5q0 -10 -7 -18t-19 -8q-52 0 -92.5 2t-80.5 -2q-16 -2 -23.5 7t-7.5 20q0 9 5 16t16 6z" />
    <glyph glyph-name="i" unicode="i" horiz-adv-x="313" 
d="M211 77q2 -16 13.5 -25.5t46.5 -4.5q14 2 20.5 -5.5t6.5 -17.5t-7 -18.5t-20 -7.5q-28 2 -51 3t-46.5 1t-50 -1t-59.5 -4q-14 -2 -21.5 7t-7.5 20q0 10 5.5 17t16.5 6q9 -1 18.5 -2t17.5 1.5t14 9t10 19.5q3 9 5 35.5t3 61t1 73t-1 72t-3.5 57.5t-6.5 30q-6 14 -17 13.5
t-35 -3.5q-10 -2 -16 6t-6 18q0 8 5 15.5t17 7.5q25 1 42 1.5t30.5 2t26.5 3.5t30 7q4 -1 11 -5.5t5 -18.5q-2 -21 -3 -53.5t-1.5 -70t0 -76.5t2 -73.5t2.5 -61.5t3 -39zM94 630q0 29 17.5 44t43.5 15q58 0 58 -52q0 -28 -14.5 -46t-43.5 -18q-30 0 -45.5 16.5t-15.5 40.5z
" />
    <glyph glyph-name="j" unicode="j" horiz-adv-x="286" 
d="M201 -30q-4 -45 -27.5 -79t-55 -56.5t-65 -33.5t-58.5 -11q-8 0 -12.5 7t-4.5 16q0 14 11 27.5t37 13.5q17 0 30.5 1t23.5 8.5t17 22.5t12 44q3 22 5 63.5t2.5 91.5t0 103.5t-2 98t-3 75.5t-2.5 37q-4 14 -26 15t-46 -3q-10 -2 -16 6.5t-6 19.5q0 9 5 16.5t17 7.5
q50 1 84.5 3.5t67.5 10.5q5 -1 12.5 -5t5.5 -18q-3 -20 -4.5 -57.5t-1.5 -84t0.5 -98t1 -98.5t0.5 -85t-2 -59zM81 630q0 29 17.5 44t43.5 15q58 0 58 -52q0 -28 -14.5 -46t-43.5 -18q-30 0 -45.5 16.5t-15.5 40.5z" />
    <glyph glyph-name="k" unicode="k" horiz-adv-x="583" 
d="M252 189q-23 31 -27 47.5t9 29.5q8 9 21.5 22t29 29.5t32.5 36t32 39.5q12 15 3 20t-32 4q-9 0 -13.5 5.5t-4.5 13.5q0 10 6.5 18.5t20.5 6.5q16 -2 45 -1.5t60 1t58 1t38 0.5q12 0 18 -8t6 -17q0 -11 -7 -18.5t-19 -3.5q-18 5 -42 2.5t-41 -13.5q-38 -24 -70 -57.5
t-58 -65.5q-7 -8 -7 -18t13 -26q20 -26 48.5 -60.5t60 -65.5t63.5 -52t59 -21q4 0 6.5 -3.5t3.5 -8.5t0.5 -10t-1.5 -7q-8 -9 -36 -15.5t-57 -6.5q-24 0 -50 17t-53.5 45t-56.5 64.5t-58 75.5zM189 706q-3 -56 -5 -120.5t-2 -130t0.5 -127t1.5 -112t3 -86t4 -48.5
q1 -7 4 -14.5t9.5 -13t17 -8t27.5 0.5q14 0 20.5 -7.5t6.5 -16.5q0 -10 -7 -18.5t-20 -6.5q-53 4 -101.5 4.5t-100.5 -4.5q-14 -2 -20 5.5t-6 16.5q0 10 6.5 19t18.5 8q19 -2 37 3.5t19 28.5q3 107 4.5 200.5t1 168t-2 126.5t-4.5 76q-2 13 -6 18.5t-11.5 7t-17.5 -0.5
t-22 -3q-11 -2 -17 6.5t-6 19.5q0 9 5.5 16t17.5 7q24 1 41 3t31 5.5t26.5 8t29.5 9.5q4 -2 11 -8.5t6 -32.5z" />
    <glyph glyph-name="l" unicode="l" horiz-adv-x="291" 
d="M189 706q-3 -56 -4.5 -120.5t-2 -130t0 -127t2 -112t3 -86t3.5 -48.5q1 -7 4 -14.5t9.5 -13t17 -8t27.5 0.5q14 0 20.5 -7.5t6.5 -16.5q0 -10 -7 -18.5t-20 -6.5q-53 4 -101.5 4.5t-100.5 -4.5q-14 -2 -20 5.5t-6 16.5q0 10 6.5 19t18.5 8q19 -2 37 3.5t19 28.5
q3 107 4.5 200.5t1 168t-2 126.5t-4.5 76q-2 13 -6 18.5t-11.5 7t-17.5 -0.5t-22 -3q-11 -2 -17 6.5t-6 19.5q0 9 5.5 16t17.5 7q24 1 41 3t31 5.5t26.5 8t29.5 9.5q4 -2 11 -8.5t6 -32.5z" />
    <glyph glyph-name="m" unicode="m" horiz-adv-x="894" 
d="M181 395q5 -17 12.5 -21t12.5 3q11 15 26.5 31t35.5 30t45.5 23t56.5 9q51 0 78.5 -23t40.5 -64q2 -7 6.5 -7.5t9.5 7.5q10 12 25 27.5t34.5 28.5t44.5 22t55 9q69 0 101 -41t32 -107q0 -60 -2.5 -125t-0.5 -117q0 -6 2.5 -13t9 -12t17.5 -7.5t29 -0.5q14 1 20 -6t6 -16
q0 -10 -7 -18.5t-19 -8.5q-25 1 -47 2t-44 1.5t-46.5 0t-55.5 -3.5q-14 -2 -20 6t-6 18t6 18t17 7q19 -2 37 4t20 29q2 29 3.5 62.5t1.5 66.5t-1 63.5t-3 53.5q-2 26 -9.5 43t-17.5 26.5t-21.5 13.5t-21.5 4q-24 0 -49 -12t-45.5 -31t-34 -42.5t-14.5 -45.5q-2 -22 -3 -48.5
t-2 -53.5t-0.5 -53t1.5 -47q0 -6 1 -13t5 -12.5t12 -8t23 0.5q14 1 20 -6.5t6 -16.5q0 -10 -6.5 -18t-18.5 -8q-49 0 -85.5 2.5t-77.5 -2.5q-14 -2 -20.5 6t-6.5 18t6.5 17.5t17.5 6.5q16 -2 28.5 4.5t14.5 29.5q4 54 5 114.5t-2 109.5q-2 33 -9.5 54.5t-18 33.5t-23.5 16.5
t-27 4.5q-27 0 -52 -14.5t-43.5 -36.5t-30.5 -47t-13 -46q-1 -17 -1.5 -44t-0.5 -55t1 -52.5t3 -36.5q2 -14 10.5 -26.5t33.5 -8.5q12 2 18 -6t6 -18t-6 -18t-18 -6q-28 2 -50.5 3.5t-44 2t-43.5 -1t-48 -4.5q-14 -2 -19.5 5t-5.5 16q0 11 6.5 20t17.5 7q20 -2 37.5 3.5
t21.5 31.5q2 13 3.5 48.5t1 76t-2 78t-5.5 55.5q-5 29 -17 39t-32 3q-8 -3 -15.5 5t-7.5 18q0 6 3.5 11.5t11.5 8.5q9 3 21 9.5t24.5 12.5t23 10.5t15.5 4.5q7 0 18.5 -19t18.5 -47z" />
    <glyph glyph-name="n" unicode="n" horiz-adv-x="611" 
d="M206 380q12 12 28.5 28t37.5 30t46.5 23.5t55.5 9.5q38 0 65 -13.5t44 -36t25 -52.5t8 -63q0 -39 -0.5 -67t-1.5 -52.5t-1.5 -49.5t-0.5 -58q0 -7 1.5 -13.5t7 -11t15.5 -7t28 -0.5q13 1 19.5 -6.5t6.5 -16.5q0 -10 -7 -18.5t-19 -7.5q-24 1 -44.5 2.5t-41 1.5
t-42.5 -0.5t-49 -3.5q-14 -2 -21.5 6.5t-7.5 19.5q0 10 5.5 17t16.5 6q20 -2 35 3.5t16 28.5q4 76 4.5 130.5t-0.5 96.5q-1 33 -9.5 54t-21 32t-27.5 15t-29 4q-25 0 -51 -12t-47 -31t-34.5 -43.5t-14.5 -49.5q-1 -31 -2 -60.5t-1 -55v-46t2 -32.5q2 -15 12 -26.5t37 -7.5
q13 2 19 -6t6 -18t-6 -18t-19 -6q-29 1 -50 2.5t-41 1.5t-41.5 -1t-51.5 -3q-14 -2 -20.5 5.5t-6.5 17.5t6.5 18.5t17.5 6.5q10 -1 20 -0.5t18 4t14 10.5t7 20t1.5 48.5t0 76t-1.5 78t-4 55.5q-5 30 -17 39.5t-33 2.5q-8 -2 -15.5 5t-7.5 17q0 13 16 20q9 3 21.5 9.5l25 13
t23.5 11t16 4.5q7 0 16.5 -17t16.5 -45q5 -16 13 -20.5t14 1.5z" />
    <glyph glyph-name="o" unicode="o" horiz-adv-x="547" 
d="M279 470q45 0 85.5 -14t70.5 -43.5t47.5 -74.5t17.5 -106q0 -58 -17 -103t-48 -76t-73 -47t-92 -16q-47 0 -87.5 15t-70.5 44.5t-47.5 73.5t-17.5 101q0 63 18.5 109.5t50.5 76.5t74 45t89 15zM410 207q0 30 -7 68t-24 71.5t-44.5 56t-69.5 22.5q-58 0 -93 -45t-35 -130
q0 -42 11 -80t30 -67.5t45.5 -46.5t58.5 -17q38 0 62.5 14.5t39 38t20.5 53.5t6 62z" />
    <glyph glyph-name="p" unicode="p" horiz-adv-x="562" 
d="M227 20q0 8 5.5 16t16.5 8q12 0 24 -3.5t26 -3.5q31 0 54 15.5t38.5 41.5t23.5 60t8 72q0 34 -8 68t-24.5 61t-41.5 43.5t-60 16.5q-24 0 -41.5 -6.5t-30.5 -17t-21.5 -24.5t-15.5 -28q-2 -17 -3 -41.5t-1.5 -51.5t-0.5 -55t0.5 -51t0.5 -39v-20q0 -18 0.5 -49t1.5 -62
t2 -55.5t1 -28.5q1 -9 2.5 -15.5t8.5 -10t21 -5t40 -0.5q13 1 18.5 -6.5t5.5 -17.5q0 -11 -6.5 -19.5t-17.5 -7.5q-27 2 -49 3t-44.5 1.5t-48 -0.5t-61.5 -3q-14 -2 -20.5 5.5t-6.5 17.5t6.5 19t17.5 7q19 -2 34.5 3t16.5 32q4 129 4.5 214.5t-0.5 138.5t-3 78.5t-5 33.5
q-8 26 -15 30.5t-27 -3.5q-10 -4 -16.5 2t-6.5 15q0 6 4 12.5t14 10.5q26 11 45.5 25t35.5 14q6 0 14 -12t16 -29q5 -11 13.5 -6.5t15.5 9.5q26 22 55.5 35t79.5 13q37 0 72 -17t62 -47t43 -70.5t16 -87.5t-12.5 -93t-38.5 -83t-67.5 -59.5t-98.5 -22.5q-33 0 -52 8t-19 22z
" />
    <glyph glyph-name="q" unicode="q" horiz-adv-x="531" 
d="M304 46q10 2 17 1t13 -9q6 -9 -0.5 -18t-19.5 -15.5t-30.5 -10.5t-35.5 -4q-44 0 -81 13t-63.5 41t-41 73t-14.5 108q0 54 18 98.5t50.5 77t76 50.5t94.5 18q53 0 87 -9.5t53 -21t26 -22t7 -12.5q-3 -51 -5 -111.5t-2.5 -126t0.5 -134t4 -136.5q0 -11 1 -20t5.5 -14.5
t15 -7.5t31.5 0q11 2 17.5 -6.5t6.5 -18.5t-6 -17.5t-20 -6.5q-40 3 -85.5 3t-85.5 -2q-11 -1 -16 7.5t-5 18.5q0 9 4.5 15.5t15.5 6.5q19 -2 29 7.5t11 34.5q1 24 1.5 64.5t0.5 89v100t-1 97.5t-2 83t-2 55q0 5 -7 12t-19 13.5t-29 11t-38 4.5q-35 0 -61.5 -15.5t-44 -40.5
t-26.5 -57t-9 -65q0 -39 6.5 -76t22.5 -66t42 -46.5t65 -17.5q11 0 18 1.5t11 2.5z" />
    <glyph glyph-name="r" unicode="r" horiz-adv-x="421" 
d="M208 76q2 -15 17.5 -25.5t49.5 -3.5q14 2 21 -5t7 -18t-6.5 -20t-19.5 -7q-54 6 -103 6.5t-110 -5.5q-16 -2 -23.5 6.5t-7.5 19.5q0 9 6 16.5t17 6.5q10 -1 20.5 -2t20 1.5t16 8.5t8.5 20t3 50.5t1 78t-1.5 80t-4.5 56.5q-5 31 -14.5 40.5t-33.5 1.5q-8 -3 -15.5 4
t-7.5 17q0 14 16 21q9 3 20.5 9.5t23 12.5t21 10.5t14.5 4.5t17.5 -16t21.5 -42q1 -4 4 -9t6.5 -7.5t8 -1.5t9.5 9q10 15 25 28.5t32 24t35.5 16.5t35.5 6q32 0 50 -14t18 -37q0 -14 -6.5 -24.5t-16.5 -16.5t-23 -7t-26 3q-58 19 -92.5 -2.5t-37.5 -67.5q-5 -78 -2 -138.5
t6 -88.5z" />
    <glyph glyph-name="s" unicode="s" horiz-adv-x="409" 
d="M203 -10q-30 0 -55.5 5.5t-45 13.5t-31 17t-12.5 16q-2 6 -2 17v22.5t0.5 23t0.5 19.5q1 11 8 17t15 6q13 0 16 -11q13 -43 37.5 -72t75.5 -29q34 0 52.5 18.5t18.5 43.5q0 13 -5.5 23.5t-17.5 21.5t-32.5 23.5t-50.5 29.5q-32 18 -55 34.5t-38 34t-22.5 37t-7.5 43.5
q0 31 13.5 55t34.5 40.5t48 25t54 8.5q53 0 88.5 -11.5t42.5 -18.5q3 -3 5 -15t2.5 -27t0.5 -31v-27q0 -8 -8 -12.5t-18 -4.5q-7 0 -12.5 4t-6.5 12q-1 15 -8.5 30.5t-20.5 28.5t-31.5 21t-40.5 8q-21 0 -35 -6t-22.5 -15.5t-12.5 -20.5t-4 -21q0 -29 23.5 -47t68.5 -42
q39 -21 67.5 -37.5t47.5 -33.5t28 -38t9 -50q0 -28 -12.5 -51.5t-34.5 -41t-51.5 -27t-63.5 -9.5z" />
    <glyph glyph-name="t" unicode="t" horiz-adv-x="378" 
d="M187 556q0 -8 -0.5 -18.5t-1 -22t-1 -21t-0.5 -14.5q-1 -11 2.5 -14.5t11.5 -4.5q6 0 16 -0.5t22 -0.5q17 0 36.5 1t37.5 3q16 2 22 -4.5t6 -14.5q0 -12 -9.5 -23.5t-22.5 -10.5q-15 1 -31 1h-31t-27 -0.5t-18 -0.5q-11 0 -14.5 -5.5t-3.5 -11.5q-2 -64 -2.5 -130
t2.5 -117q1 -26 8 -43t16 -27t19.5 -13.5t20.5 -3.5q26 0 46 9.5t36 31.5q6 9 15 9q16 0 16 -19q0 -13 -11 -28q-10 -13 -22.5 -26t-28.5 -23.5t-36 -17t-44 -6.5q-36 0 -59 13.5t-36 37t-18 54t-5 64.5q0 40 0.5 65.5t1 47t1 44t0.5 56.5q0 11 -1 19t-5.5 13t-14 6.5
t-27.5 0.5q-17 -2 -25 6t-8 19q0 10 6.5 18t18.5 7q26 -2 43 6t26.5 20.5t13.5 28t4 28.5q0 9 8.5 15.5t19 8.5t19 -1t8.5 -11z" />
    <glyph glyph-name="u" unicode="u" horiz-adv-x="575" 
d="M174 465q11 -14 9 -42.5t-3 -63.5q0 -12 -1 -41t-1.5 -62t-0.5 -63v-43q3 -51 23 -72.5t58 -21.5q21 0 42.5 8.5t40.5 25t31.5 40.5t15.5 56q2 21 3 46.5t1 50t0.5 45.5t0.5 34q1 29 -12.5 43t-47.5 11q-14 -1 -20.5 5.5t-6.5 15.5t6.5 16.5t20.5 7.5q72 0 107 8
q8 2 18.5 -1t12.5 -14t2.5 -33.5t-1.5 -62.5q-1 -41 -2.5 -81t-1.5 -75t1 -62.5t5 -42.5q2 -10 5 -18t8 -13.5t14 -7t24 2.5q8 2 13.5 -4t5.5 -15q0 -6 -3 -12.5t-10 -11.5q-9 -5 -23 -10t-28 -9t-25 -6.5t-13 -2.5q-11 0 -24.5 21t-20.5 54q-4 16 -22 -4q-9 -9 -25 -21.5
t-36.5 -23.5t-44.5 -18.5t-48 -7.5q-35 0 -58.5 11.5t-38 32.5t-21 50.5t-7.5 65.5v33t1 50.5t1.5 62t0.5 68.5q0 11 -1 21.5t-6 18t-15 10.5t-28 0q-14 -2 -20.5 4t-6.5 15t6.5 17.5t18.5 9.5q24 2 52 3.5t40 4.5q5 1 17.5 1.5t17.5 -4.5z" />
    <glyph glyph-name="v" unicode="v" horiz-adv-x="535" 
d="M445 391q-11 -23 -29 -66t-39.5 -96.5t-45 -113t-44.5 -115.5q-6 -13 -20 -13q-8 0 -15.5 3.5t-11.5 10.5q-28 73 -56 143l-25 62.5t-26.5 65t-26 63t-23.5 57.5q-7 18 -20.5 25.5t-37.5 3.5q-11 -2 -16.5 5t-5.5 15q0 9 6 16t20 5q45 -4 91.5 -3.5t89.5 3.5
q14 1 20.5 -5t6.5 -14q0 -9 -5.5 -16.5t-13.5 -6.5q-29 3 -36 -5t-3 -25q24 -88 49 -147t37 -84q5 -11 16 -11t16 8q13 25 39 87.5t50 147.5q5 14 -3 24t-46 5q-11 -2 -17 5t-6 16q0 8 5.5 15t17.5 6q25 -2 46.5 -2.5t41 -0.5t39.5 0.5t43 2.5q14 1 20 -4t6 -13
q0 -9 -7.5 -18t-16.5 -8q-28 2 -42 -4.5t-22 -23.5z" />
    <glyph glyph-name="w" unicode="w" horiz-adv-x="837" 
d="M684 382q5 18 -10.5 29.5t-47.5 9.5q-11 -1 -16.5 6.5t-5.5 15.5t5 14t16 6q34 0 57.5 -1t43.5 -1.5t39 0t45 2.5q14 1 20 -4.5t6 -13.5q0 -9 -6.5 -18t-15.5 -7q-30 5 -44.5 -3t-22.5 -23q-8 -14 -22 -43t-33.5 -76.5t-45 -115.5t-55.5 -160q-11 -12 -26 -12
q-16 0 -25 13q-23 71 -45 133q-9 27 -19 54t-19.5 52t-18 45.5t-15.5 33.5q-2 5 -7 5.5t-8 -5.5q-13 -33 -24.5 -57.5t-25 -56t-31 -79t-44.5 -126.5q-9 -12 -24 -12q-8 0 -15 3.5t-11 9.5q-28 75 -56 148q-24 63 -51 131t-50 122q-5 14 -19.5 17t-31.5 2q-11 -1 -16.5 5.5
t-5.5 14.5q0 9 7 17t21 6q37 -3 62.5 -3.5t45 -0.5t38 1t42.5 3q17 1 23.5 -6t6.5 -15q0 -9 -5.5 -16.5t-13.5 -5.5q-29 5 -44 -1.5t-10 -23.5q24 -88 48 -152t36 -90q7 -14 17 -12.5t14 9.5q6 12 19.5 45t30 75.5t33.5 90t29 88.5q3 11 13.5 16.5t22.5 5.5q11 0 20 -5.5
t11 -16.5q9 -36 23 -83t28.5 -91.5t26.5 -79.5t18 -46q5 -11 16.5 -11t15.5 8q13 26 38 89t48 147z" />
    <glyph glyph-name="x" unicode="x" horiz-adv-x="566" 
d="M466 62q12 -10 25.5 -16t35.5 -2q11 2 17 -5.5t6 -17.5q0 -9 -6 -17t-19 -6q-36 4 -60.5 5t-44.5 0t-38.5 -2.5t-41.5 -2.5q-20 -1 -27.5 7.5t-7.5 17.5q0 8 5.5 14.5t13.5 5.5q27 -3 31.5 2.5t-1.5 16.5q-3 7 -12.5 21.5t-20.5 31t-23.5 33.5t-21.5 29q-5 5 -9.5 3.5
t-6.5 -3.5q-8 -11 -19 -26t-22 -30.5t-20.5 -30t-15.5 -23.5q-17 -26 30 -22q12 2 18.5 -6t6.5 -18q0 -8 -5.5 -15t-17.5 -7q-32 1 -52.5 1.5t-38 1t-34.5 -0.5t-41 -3q-16 -1 -22.5 5.5t-6.5 14.5q0 11 7 20t18 8q27 -4 47.5 1.5t31.5 19.5q9 10 16 20l17.5 25t26.5 37
t41 57q5 5 4.5 12t-10.5 22q-13 19 -30 44t-33.5 49t-30 43t-18.5 26q-8 9 -20.5 14.5t-35.5 2.5q-11 -2 -17.5 6t-6.5 17t6 16t19 5q36 -4 59.5 -5t41.5 0t35 2.5t40 3.5q18 1 25.5 -5.5t7.5 -14.5t-6 -15t-15 -6q-21 3 -30.5 0t-1.5 -19q3 -9 11 -23.5t18 -30.5t20.5 -31
t18.5 -25q3 -5 8.5 -7t10.5 5q21 29 41 56t35 51q2 4 3.5 8.5t-1 7.5t-10 4t-23.5 0q-12 -2 -18.5 6t-6.5 17q0 8 5.5 14t17.5 6q31 -2 51.5 -3t38 -1t35.5 1.5l42 3.5q17 1 23.5 -5t6.5 -14q0 -10 -7.5 -18.5t-18.5 -7.5q-27 2 -47 0t-33 -18q-6 -9 -17.5 -23t-25 -32
l-28.5 -38t-30 -39q-3 -5 -6 -13.5t2 -16.5q19 -29 41 -57.5t42 -52.5t35.5 -42t23.5 -24z" />
    <glyph glyph-name="y" unicode="y" horiz-adv-x="531" 
d="M387 394q5 14 -2.5 23t-45.5 3q-12 -2 -18.5 5t-6.5 16q0 8 6 15t19 7q33 -1 53 -2t36.5 -1t33 0.5t41.5 2.5q14 1 19.5 -6t5.5 -15q0 -9 -5.5 -16t-15.5 -6q-28 5 -42 -3t-22 -23q-10 -23 -29 -70t-42.5 -105t-47.5 -120t-45 -113q-25 -64 -46 -102t-39.5 -57.5t-35 -25
t-32.5 -5.5q-23 0 -36 13.5t-13 26.5q0 19 13 27.5t31.5 15.5t39.5 17t37 33q11 18 23 38.5t18 43.5q-9 37 -27 84t-40 98.5t-45.5 104.5t-43.5 101q-10 25 -57 22q-11 -1 -17 6t-6 15q0 9 6.5 16t20.5 5q36 -3 60 -3.5t43 -0.5t36.5 1t40.5 3q19 1 26.5 -6t7.5 -15
q0 -9 -6.5 -16t-16.5 -6q-29 5 -35 -4t-1 -26q24 -85 48 -142.5t35 -82.5q7 -15 17.5 -13t14.5 10q6 12 15.5 35t21 53t24.5 66.5t26 77.5z" />
    <glyph glyph-name="z" unicode="z" horiz-adv-x="491" 
d="M410 0h-348q-11 0 -17.5 9.5t-6.5 21.5t7 20q32 37 66.5 80t69.5 87t68 88t62 84q17 22 -11 25q-37 5 -77.5 3t-66.5 -5q-21 -3 -29.5 -17.5t-13 -31.5t-9 -30.5t-15.5 -13.5q-15 0 -21 9.5t-6 17.5q0 17 -0.5 41.5t-0.5 41.5q0 31 34 31q35 0 80 -0.5t91.5 -0.5
t89.5 0.5t73 0.5q7 0 11.5 -7.5t4.5 -18.5q0 -13 -8 -23q-33 -39 -73 -88t-78 -96t-68.5 -88t-44.5 -63q-7 -11 -1 -20.5t20 -11.5q15 -3 35.5 -4t41 0t37.5 3t25 4q10 2 20.5 7t19.5 15t15.5 26.5t9.5 40.5q1 6 6.5 11.5t12.5 5.5t12 -7t7 -24q2 -13 3 -30t1 -34
q0 -24 -5.5 -41.5t-22.5 -17.5z" />
    <glyph glyph-name="braceleft" unicode="{" horiz-adv-x="329" 
d="M204 436q0 -24 -6 -40.5t-16 -28.5t-24.5 -20.5t-30.5 -16.5q-7 -4 -8 -12.5t12 -13.5q12 -6 24.5 -14.5t23.5 -21.5t18 -30.5t7 -39.5q0 -27 -1.5 -50.5t-3.5 -45.5t-3.5 -44.5t-1.5 -48.5q0 -16 3 -34t12 -33t26.5 -24.5t46.5 -9.5q3 0 6 -3.5t4 -8t-0.5 -9t-8.5 -7.5
q-14 -6 -32 -6q-21 0 -45 8t-44.5 25.5t-34 44t-13.5 64.5q0 18 1.5 40.5t4 46t4 45t1.5 38.5q0 14 -0.5 28.5t-7.5 27t-24.5 22t-51.5 13.5q-8 1 -13 14.5t-5 27.5q0 12 4 21.5t14 9.5q26 -1 42.5 9t25.5 25.5t12.5 33t3.5 31.5q0 33 -5 77t-5 82t13.5 64t34 42.5t44.5 24
t45 7.5q17 0 32 -5q3 -1 4.5 -5t1.5 -9t-3 -9t-9 -4q-30 0 -46.5 -9t-24.5 -23t-9.5 -31t-1.5 -33q0 -27 1 -48.5t2.5 -42.5t3 -42.5t1.5 -48.5z" />
    <glyph glyph-name="bar" unicode="|" horiz-adv-x="232" 
d="M137 -180q1 -12 -4 -18t-19 -6q-12 0 -18.5 6.5t-4.5 16.5q0 3 1 39t2 97.5t1.5 145.5t0.5 184v212.5t-1 229.5q0 14 5.5 17t12.5 3q8 0 16.5 -4t8.5 -15q0 -9 -0.5 -52t-0.5 -108t-0.5 -145t-0.5 -162v-160.5t0.5 -140t0.5 -100v-40.5z" />
    <glyph glyph-name="braceright" unicode="}" horiz-adv-x="329" 
d="M125 436q0 27 1 48.5t2.5 42.5t3 42.5t1.5 48.5q0 16 -1.5 33t-9.5 31t-24.5 23t-46.5 9q-6 0 -9 4t-3 9t1.5 9t4.5 5q15 5 32 5q21 0 44.5 -7.5t44 -24t34 -42.5t13.5 -64q0 -17 -1.5 -37.5t-3 -41.5t-3 -41.5t-1.5 -38.5q0 -14 3.5 -31.5t12.5 -33t25.5 -25.5t42.5 -9
q10 0 14 -9.5t4 -21.5q0 -14 -5 -27.5t-13 -14.5q-34 -4 -51.5 -13.5t-24.5 -22t-7.5 -27t-0.5 -28.5q0 -15 1.5 -36.5t4 -44.5t4 -46.5t1.5 -42.5q0 -38 -13.5 -64.5t-34 -44t-44.5 -25.5t-45 -8q-19 0 -32 6q-7 3 -8.5 7.5t-0.5 9t4 8t6 3.5q29 0 46.5 9.5t26.5 24.5
t12 33t3 34q0 26 -1.5 48.5t-3.5 44.5t-3.5 45.5t-1.5 50.5q0 22 7 39.5t18 30.5t23.5 21.5t24.5 14.5q13 5 12 13.5t-8 12.5q-17 8 -31 16.5t-24 20.5t-16 28.5t-6 40.5z" />
    <glyph glyph-name="asciitilde" unicode="~" horiz-adv-x="586" 
d="M60 270q0 22 10.5 42.5t28 37t39 26.5t43.5 10q34 0 64.5 -16t59.5 -34.5t56 -34.5t53 -16t44 18.5t29 44.5q6 14 18 14q9 0 17 -7t8 -15q0 -11 -7 -32.5t-23.5 -43.5t-44 -38.5t-69.5 -16.5q-36 0 -66 16.5t-56.5 36t-51.5 36t-53 16.5q-14 0 -23 -5t-15 -13.5
t-10 -18.5l-8 -20q-6 -13 -17 -13q-10 0 -18 8.5t-8 17.5z" />
    <glyph glyph-name="uni00A0" unicode="&#xa0;" horiz-adv-x="290" 
 />
    <glyph glyph-name="exclamdown" unicode="&#xa1;" horiz-adv-x="274" 
d="M201 -121q6 -24 -1 -41.5t-20.5 -27.5t-31 -13.5t-32.5 0.5q-9 3 -19 9t-17.5 15.5t-11.5 22t0 27.5q2 9 11.5 30.5t19 62t16.5 103.5t4 157q0 4 2.5 12.5t18.5 7.5q6 0 11 -4.5t5 -8.5q0 -102 6 -165t13.5 -100t15 -55.5t10.5 -31.5zM204 432q0 -32 -19 -48t-48 -16
q-64 0 -64 56q0 31 16 51t48 20t49.5 -18.5t17.5 -44.5z" />
    <glyph glyph-name="cent" unicode="&#xa2;" horiz-adv-x="457" 
d="M229 78q0 5 0.5 30t0.5 59.5t0.5 74.5t0.5 74.5t-0.5 59t-1.5 28.5q0 2 -2 8.5t-13 4.5q-10 -2 -27.5 -13.5t-34 -32t-29 -51t-12.5 -71.5q0 -29 7 -55.5t18 -48.5t24 -39t26 -27q17 -14 30 -15.5t13 14.5zM275 556v-14.5t-0.5 -22t-0.5 -21.5v-12q0 -11 11.5 -15
t28.5 -7t36 -7.5t35 -16.5q4 -3 7 -15.5t4.5 -27.5t2.5 -28.5t1 -17.5q0 -5 -5.5 -8.5t-13 -4t-14 2t-7.5 9.5q-3 16 -12 29t-20 22t-22.5 14.5t-19.5 7.5q-9 2 -10.5 -4.5t-1.5 -8.5q-1 -2 -1.5 -19.5t-1 -44.5t-1 -61.5t-1 -70.5t-0.5 -72v-65q0 -6 2.5 -12.5t13.5 -6.5
q25 0 52.5 12t45.5 43q6 9 12 11t11 -1.5t7.5 -10.5t-0.5 -15q-11 -36 -34.5 -54.5t-47 -29.5t-41.5 -18.5t-18 -21.5q-1 -6 0 -26.5t2 -36.5q1 -10 -6 -15.5t-16 -5.5t-17 5.5t-8 16.5q0 20 1 38.5t1 21.5q0 8 -4 13.5t-16 8.5q-19 4 -48 17.5t-56.5 39.5t-47 68t-19.5 104
q0 46 10.5 81.5t27.5 61.5t37.5 43.5t40.5 29t37 18t27 9.5q5 2 7.5 5.5t2.5 12.5v10t-0.5 16t-0.5 18v16q0 12 7.5 18t16.5 7.5t16.5 -2t7.5 -10.5z" />
    <glyph glyph-name="sterling" unicode="&#xa3;" horiz-adv-x="592" 
d="M328 644q-38 0 -56.5 -23t-25 -56t-4.5 -70.5t6 -66.5q2 -17 6 -29.5t18 -13.5q17 -1 44 0.5t60 0.5q10 0 14.5 -7.5t3.5 -15.5t-7.5 -15t-18.5 -7q-16 0 -32 1t-44 1q-11 0 -24 -2.5t-13 -13.5q0 -73 -13.5 -118.5t-38.5 -66.5q-3 -3 -3 -7.5t9 -6.5q24 -4 50 -19
t53.5 -31.5t56 -29.5t56.5 -13q21 0 30.5 8t12.5 20.5t2.5 26.5t1.5 26.5t9.5 20.5t26.5 8q18 0 30.5 -15.5t12.5 -34.5q0 -44 -42.5 -74t-114.5 -30q-33 0 -64.5 11t-61.5 23.5t-59 23.5t-56 11q-17 0 -27.5 -8t-8.5 -21q1 -9 -3.5 -15t-12.5 -9t-17.5 -3.5t-17.5 0.5
q-19 3 -24 12.5t-5 20.5q0 24 20.5 44t54.5 37q20 10 30 31t14.5 48.5t4.5 59v61.5q0 13 -6.5 17.5t-17 5.5t-23.5 -0.5t-26 -1.5q-11 0 -16 6.5t-4.5 15t5.5 15t13 6.5q40 -3 56 0t16 14q0 44 8 95.5t30 95.5t61 73t100 29q39 0 71.5 -11t52.5 -28t24 -38t-14 -42
q-13 -11 -27 -13q-23 -3 -36.5 10t-25.5 30.5t-28.5 32t-45.5 14.5z" />
    <glyph glyph-name="currency" unicode="&#xa4;" horiz-adv-x="497" 
d="M160 407q9 -8 15.5 -9.5t16.5 1.5q14 4 28 6.5t28 2.5q15 0 28.5 -2.5t26.5 -6.5q12 -5 17 -4t16 11q20 21 34.5 35.5l19.5 19.5q11 9 23.5 6t21 -12t10.5 -22t-9 -23q-6 -6 -18.5 -17.5t-29.5 -26.5q-11 -9 -13.5 -15.5t2.5 -14.5q16 -27 16 -56q0 -35 -12 -60
q-6 -13 -5.5 -18t7.5 -12q20 -20 35.5 -33t19.5 -17q9 -11 6.5 -23t-12 -20.5t-22.5 -10.5t-23 9q-8 6 -19.5 18.5t-28.5 29.5q-7 8 -12.5 9.5t-19.5 -3.5t-29 -7.5t-32 -2.5t-32 2.5t-30 7.5q-8 3 -12.5 2.5t-13.5 -8.5q-17 -17 -29 -29.5t-18 -18.5q-11 -11 -24 -9
t-22 10.5t-12 20.5t6 23q5 4 16.5 15t30.5 28q10 10 11.5 14.5t-3.5 12.5q-12 27 -12 64q0 17 4 32.5t10 29.5q6 9 5.5 14t-8.5 13q-18 16 -31 28.5t-20 18.5q-11 10 -9 23t10.5 22t21 12t23.5 -6zM247 343q-31 0 -52 -19t-21 -49q0 -33 20 -52t51 -19q33 0 54 19.5t21 55.5
q0 26 -20.5 45t-52.5 19z" />
    <glyph glyph-name="yen" unicode="&#xa5;" horiz-adv-x="749" 
d="M558 374q-10 1 -39 1t-61 -1q-11 0 -17.5 -3.5t-11.5 -13.5t-10 -18t-9 -16q-5 -14 -1.5 -19t17.5 -5q35 0 70 -0.5t64 0.5q15 0 17 -7t2 -15t-5 -14t-13 -6q-14 1 -48.5 1h-81.5q-19 0 -25.5 -4.5t-6.5 -22.5q0 -40 2.5 -84t5.5 -74q3 -21 21.5 -26t53.5 0
q15 1 21.5 -6.5t6 -17.5t-7.5 -18t-20 -7q-56 4 -117.5 4.5t-127.5 -5.5q-14 -2 -21 6.5t-7.5 18.5t5 18t16.5 7q10 -1 23 -2.5t24.5 -0.5t19.5 6t10 18q2 12 4 31t3 41t1.5 46t0.5 46q0 7 -3 16.5t-18 9.5h-131q-13 -1 -18.5 3.5t-5.5 18.5q0 26 23 23q2 0 13 -0.5t28.5 -1
t39.5 -1t46 -0.5q17 0 20 4.5t-3 18.5q-3 8 -7 16.5t-9 17.5q-7 11 -17 14.5t-29 3.5h-26h-24.5t-19.5 -0.5t-11 -0.5q-13 -1 -18.5 4t-5.5 19q0 24 23 22q5 -1 24.5 -1.5t38.5 -0.5q21 0 24 4.5t-9 21.5q-32 54 -67 101.5t-56 75.5q-10 13 -19 17.5t-32 0.5q-11 -2 -17.5 5
t-6.5 16t5.5 16t18.5 6q51 -5 109 -3.5t104 4.5q19 1 26 -6.5t6.5 -16t-8 -16t-16.5 -6.5q-29 4 -42.5 -10t-4.5 -33q24 -45 54.5 -96t74.5 -108q5 -8 16 -6.5t15 6.5q15 19 34.5 46.5t39 57t35 56t23.5 42.5q4 9 3 19t-8 18t-20.5 11t-34.5 -2q-11 -3 -18 3.5t-8.5 15.5
t3.5 16.5t18 7.5q33 -1 59 -2t50.5 -1.5t49.5 0t55 3.5q18 1 25 -6t6 -15.5t-8.5 -15.5t-16.5 -6q-35 3 -52.5 -8t-30.5 -26q-10 -11 -23.5 -29l-30 -40t-34 -46.5t-34.5 -48.5q-6 -10 -6 -16.5t15 -6.5q22 0 40.5 0.5t26.5 1.5q9 1 15.5 -5t6.5 -17q0 -14 -6 -19t-17 -4z
" />
    <glyph glyph-name="brokenbar" unicode="&#xa6;" horiz-adv-x="220" 
d="M132 431q1 -12 -4 -18t-19 -6q-12 0 -18.5 6.5t-4.5 16.5q0 3 0.5 23t1 49t1 63t1 66t0.5 58v38q0 16 7 18t15 2q9 0 15 -5.5t6 -13.5q-1 -12 -1 -37.5t-0.5 -57.5t-0.5 -66.5v-63.5t0.5 -49t0.5 -23zM132 -180q1 -12 -4 -18t-19 -6q-12 0 -18.5 6.5t-4.5 16.5
q0 3 1 22.5t1.5 48.5t1 63.5t0.5 68v62.5v46q0 15 7 17t15 2q9 0 15 -5t6 -13q-1 -12 -1 -39t-0.5 -60.5t-0.5 -69.5v-66.5t0.5 -51.5t0.5 -24z" />
    <glyph glyph-name="section" unicode="&#xa7;" horiz-adv-x="573" 
d="M125 429q0 -59 19 -111.5t48.5 -97t65.5 -80.5t69 -62.5t59 -42t37 -19.5q3 -1 6 -1h5q13 0 15.5 13.5t2.5 24.5q0 59 -19 112t-48.5 98t-65 81.5t-69 63t-60 42t-37.5 19.5q-6 3 -11 3q-7 0 -10.5 -5t-5 -11.5t-1.5 -14v-12.5zM418 -33q-32 18 -72.5 43.5t-82.5 58.5
t-82 73.5t-71.5 87.5t-50.5 101.5t-19 114.5q0 59 24 104.5t64 76.5t92 47t108 16q100 0 100 -56q0 -19 -12.5 -28t-26.5 -9q-15 0 -29.5 6.5t-29 14.5t-28 14.5t-27.5 6.5q-27 0 -50.5 -11.5t-41.5 -28t-28 -35t-10 -31.5q0 -14 8 -19q31 -18 71.5 -43t83 -58t83 -73
t73 -87t52 -101t19.5 -114q0 -59 -23.5 -104t-63.5 -76t-91.5 -46.5t-108.5 -15.5q-49 0 -74.5 15t-25.5 42q0 17 13 26.5t27 9.5q15 0 30 -6.5t29 -14.5t28 -14.5t28 -6.5q26 0 48.5 11t39.5 26.5t27 33t10 31.5q0 12 -10 18z" />
    <glyph glyph-name="dieresis" unicode="&#xa8;" horiz-adv-x="418" 
d="M118 566q-8 0 -18 2t-19 8t-15.5 16.5t-6.5 26.5q0 6 2.5 14.5t9.5 16.5t18.5 13.5t28.5 5.5q20 0 36.5 -14.5t16.5 -39.5q0 -23 -16 -36t-37 -13zM306 566q-8 0 -18.5 2t-19.5 8t-15.5 16.5t-6.5 26.5q0 6 2.5 14.5t9.5 16.5t18.5 13.5t29.5 5.5q20 0 35.5 -14.5
t15.5 -39.5q0 -23 -15 -36t-36 -13z" />
    <glyph glyph-name="copyright" unicode="&#xa9;" horiz-adv-x="815" 
d="M408 -10q-77 0 -144 27.5t-116.5 75.5t-77.5 111.5t-28 135.5t28 135.5t77.5 111t116.5 75t144 27.5t144 -27.5t116 -75t77 -111t28 -135.5t-28 -135.5t-77 -111.5t-116 -75.5t-144 -27.5zM420 533q26 0 48 -4.5t38 -11.5t25.5 -14.5t10.5 -13.5q2 -12 2.5 -29t1.5 -31
q0 -5 -6 -7.5t-13.5 -3t-14 1t-6.5 4.5q-8 28 -29 49.5t-63 21.5q-20 0 -40 -10.5t-36.5 -29.5t-27 -46.5t-10.5 -60.5q0 -40 13 -69t31.5 -47.5t40.5 -27.5t40 -9q46 0 66 9t25 14q6 5 12.5 4t9.5 -6t2.5 -13t-7.5 -16q-1 -1 -9 -7t-23.5 -13t-38 -12.5t-51.5 -5.5
q-45 0 -81.5 14.5t-61.5 40.5t-38.5 61t-13.5 76q0 40 15 75t42 61t64.5 41t82.5 15zM408 32q68 0 126.5 24.5t102 66.5t68 98t24.5 119t-24.5 119t-68 97.5t-102 66t-126.5 24.5t-127 -24.5t-102.5 -66t-68.5 -97.5t-25 -119t25 -119t68.5 -98t102.5 -66.5t127 -24.5z" />
    <glyph glyph-name="ordfeminine" unicode="&#xaa;" horiz-adv-x="312" 
d="M178 564q2 24 -6 36.5t-25 12.5q-21 0 -26.5 -8.5t-8 -19t-6 -19t-19.5 -8.5q-13 0 -20 8t-7 16q0 12 10 23t25 20t33 14t35 5q36 0 52.5 -20t16.5 -51q0 -11 -2.5 -29t-2.5 -38q0 -18 3 -35t14 -17q5 0 8.5 1t5.5 1q5 0 6.5 -4.5t1.5 -9.5q0 -7 -8 -12.5t-18 -9
t-19.5 -5.5t-13.5 -2q-3 0 -6 3.5t-6 8t-6 8t-7 3.5q-2 0 -6.5 -3.5t-12 -8t-18 -8t-24.5 -3.5q-37 0 -54 20t-17 40q0 19 17.5 31t39.5 19.5t41.5 12t24.5 8.5q4 4 4.5 9.5t0.5 10.5zM172 511q-1 1 -5 1q-5 0 -15 -2t-20 -7t-17.5 -13t-7.5 -19q0 -9 6 -18t26 -9t28 14
t8 40q0 10 -3 13z" />
    <glyph glyph-name="guillemotleft" unicode="&#xab;" horiz-adv-x="447" 
d="M208 235q0 8 8 20.5t25 33.5t44 52.5t65 78.5q7 8 18 8q10 0 18 -6t8 -15q0 -7 -4 -12q-23 -31 -40.5 -59t-29.5 -50t-18 -36t-6 -17t3.5 -14t13 -30t26 -47t42.5 -66q5 -8 5 -14q0 -10 -9 -16t-19 -6t-16 7q-65 81 -99.5 125.5t-34.5 62.5zM38 235q0 8 8 20.5t25.5 33.5
t44.5 52.5t65 78.5q5 8 18 8q9 0 17 -6t8 -15q0 -7 -4 -12q-23 -31 -40.5 -59t-29.5 -50t-18 -36t-6 -17t3.5 -14t13 -30t26.5 -47t43 -66q4 -7 4 -13q0 -11 -9 -17t-19 -6t-16 7q-65 81 -99.5 125.5t-34.5 62.5z" />
    <glyph glyph-name="logicalnot" unicode="&#xac;" horiz-adv-x="533" 
d="M76 353q17 -1 45 -2t62.5 -1t71.5 0.5t71 1t62 2t44 2.5q22 2 29.5 -11t6.5 -31v-30.5v-44.5t0.5 -47t0.5 -38q1 -14 -9 -20.5t-22.5 -6t-23 8.5t-10.5 23v41.5t-1 55.5q-1 17 -8.5 26.5t-26.5 10.5q-39 1 -84 1.5t-86.5 0t-74.5 -1.5t-47 -3q-15 -2 -22.5 8t-7.5 22.5
t7.5 23t22.5 9.5z" />
    <glyph glyph-name="uni00AD" unicode="&#xad;" horiz-adv-x="407" 
d="M109 307q10 0 37.5 0.5t61 1.5t67 3.5t55.5 7.5q13 3 22.5 -7.5t11.5 -24.5t-5.5 -26t-29.5 -12q-81 -1 -133.5 -4t-83.5 -6q-15 -3 -22.5 7t-7.5 23t6.5 24.5t20.5 12.5z" />
    <glyph glyph-name="registered" unicode="&#xae;" horiz-adv-x="563" 
d="M280 291q-50 0 -93.5 18t-75.5 49.5t-50 73t-18 88.5q0 46 18 87.5t50 72.5t75.5 49t93.5 18q51 0 95 -18t76 -49t50.5 -72.5t18.5 -87.5q0 -47 -18.5 -88.5t-50.5 -73t-76 -49.5t-95 -18zM280 328q43 0 80 15t64.5 41.5t43 61.5t15.5 74t-15.5 74t-43 61.5t-64.5 41.5
t-80 15q-42 0 -78.5 -15t-63.5 -41.5t-42.5 -61.5t-15.5 -74t15.5 -74t42.5 -61.5t63.5 -41.5t78.5 -15zM318 535q-7 -3 -5 -9q1 -3 3 -5q10 -14 19.5 -28.5t19.5 -27t20.5 -20.5t23.5 -8q5 0 6.5 -8t-5.5 -13q-5 -2 -15 -3t-14 -1q-20 0 -35 15.5t-28 33.5t-25 33.5
t-24 15.5q-3 0 -6.5 -2t-3.5 -7q0 -7 1 -21.5t1 -22.5q0 -13 8 -16t18 -2q4 0 7 -3t3.5 -7.5t-2.5 -8t-11 -3.5q-17 2 -44 2t-47 -2q-6 0 -9 3.5t-2.5 8t3 7.5t6.5 3q5 -2 14.5 1.5t9.5 14.5q1 15 1.5 37.5t0.5 45t-0.5 40t-1.5 22.5q0 14 -5.5 15t-15.5 1q-6 0 -8.5 4
t-2.5 8.5t2.5 8.5t7.5 5q14 2 38 3t44 1q42 0 69.5 -12.5t27.5 -41.5q0 -13 -4.5 -22.5t-11 -16t-14.5 -11t-14 -7.5zM261 543q16 0 32 11.5t16 28.5q0 21 -18 29.5t-33 8.5q-10 0 -11.5 -5.5t-1.5 -10.5v-7.5t0.5 -14t0.5 -14.5v-10q0 -8 2.5 -12t12.5 -4z" />
    <glyph glyph-name="macron" unicode="&#xaf;" horiz-adv-x="408" 
d="M75 634h41.5h70t77.5 1.5t64 4.5q7 1 13 -8t7.5 -20.5t-3 -21.5t-17.5 -10q-24 0 -41.5 0.5t-42 0.5t-61.5 -1t-99 -4q-14 -1 -19 8t-5 20t4.5 20.5t10.5 9.5z" />
    <glyph glyph-name="degree" unicode="&#xb0;" horiz-adv-x="339" 
d="M171 644q25 0 47.5 -8.5t39.5 -23.5t26.5 -35t9.5 -43q0 -30 -10 -52.5t-27.5 -38t-40 -23t-47.5 -7.5q-54 0 -89 30.5t-35 84.5q0 26 10.5 47.5t28 36.5t40 23.5t47.5 8.5zM170 599q-32 0 -54 -19.5t-22 -48.5q0 -35 20.5 -54t53.5 -19q32 0 53.5 19t21.5 57
q0 26 -21.5 45.5t-51.5 19.5z" />
    <glyph glyph-name="plusminus" unicode="&#xb1;" horiz-adv-x="600" 
d="M323 518q-1 -3 -1.5 -15.5t-0.5 -30.5t-0.5 -39t-0.5 -42q0 -16 4.5 -17t14.5 -2q17 0 35.5 0.5t35 1t29.5 1.5t19 3q14 3 23.5 -6t9.5 -20q0 -10 -7.5 -17.5t-25.5 -8.5q-21 0 -54.5 -1t-63.5 0q-14 2 -16.5 -2t-3.5 -18q0 -29 1.5 -51t1.5 -34q1 -12 -8.5 -18.5
t-20.5 -6.5q-10 0 -18.5 6t-8.5 19q-1 17 0 35.5t1 40.5q1 23 -7 26.5t-21 2.5q-10 0 -23.5 -0.5t-27.5 -0.5t-27.5 -0.5t-22.5 -1.5q-16 -1 -22 5.5t-6 15.5q0 11 6.5 21.5t14.5 9.5h14.5t27.5 -0.5t34 -0.5h35q19 1 22 8t3 18v56.5t-1 54.5q-1 15 9 22t21 7t19.5 -5.5
t6.5 -15.5zM133 151q6 0 29 0.5t55 1t69 1t71 2t61.5 4t41.5 5.5q13 3 22.5 -7.5t9.5 -23.5q0 -10 -7.5 -18t-25.5 -8q-37 0 -86.5 -1.5t-97 -3t-86 -3.5t-52.5 -3q-14 -3 -21.5 5.5t-7.5 19.5t6.5 19.5t18.5 9.5z" />
    <glyph glyph-name="uni00B2" unicode="&#xb2;" horiz-adv-x="325" 
d="M138 756q-28 0 -45.5 -16.5t-23.5 -29.5q-2 -5 -8 -5.5t-12 3t-9.5 9t-0.5 12.5q3 9 13 21.5t25.5 24t37.5 19.5t51 8q23 0 44 -6.5t37.5 -19t26 -30.5t9.5 -41q0 -33 -17 -60.5t-40.5 -50.5t-48 -40t-39.5 -29q-9 -8 -2 -13t20 -6q17 0 34.5 0.5t28.5 1.5q21 3 30 8.5
t18 21.5q2 4 7 6t10 1t8 -4t2 -8q-2 -6 -5 -17t-6 -23.5l-6 -25t-6 -21.5q-2 -4 -11 -4t-18 2q-10 2 -34 2q-12 0 -31 0.5t-41 0.5t-45.5 -0.5t-44.5 -1.5q-8 0 -13 6.5t-7 14.5t-1.5 16t3.5 11q22 14 52 36t57 48.5t46 55.5t19 57q0 29 -16 47.5t-48 18.5z" />
    <glyph glyph-name="uni00B3" unicode="&#xb3;" horiz-adv-x="319" 
d="M209 534q0 20 -10 33.5t-26.5 22t-38 12t-44.5 3.5q-7 0 -10.5 4.5t-4 10.5t2 11t8.5 6q38 4 66.5 24.5t28.5 52.5q0 18 -13.5 32t-43.5 14q-16 0 -28 -4.5t-20.5 -10t-13.5 -10t-7 -5.5q-5 -3 -9 -1.5t-7 6t-3.5 9.5t1.5 10q1 3 8.5 11t22 16.5t35.5 14.5t48 6
q49 0 79.5 -21t30.5 -53q0 -17 -6.5 -29.5t-15.5 -22.5t-19.5 -16.5t-17.5 -9.5q-5 -2 -5.5 -6t6.5 -6t21.5 -6t29 -13t25.5 -24.5t11 -39.5q0 -23 -11 -44t-32 -37t-51.5 -25.5t-70.5 -9.5q-41 0 -69.5 12t-28.5 34q0 11 7.5 20.5t24.5 9.5q15 0 22.5 -6.5t13.5 -14
t15 -13.5t28 -6q28 0 49.5 15t21.5 44z" />
    <glyph glyph-name="acute" unicode="&#xb4;" horiz-adv-x="289" 
d="M221 684q-7 -9 -20.5 -24.5t-29.5 -35t-33 -41.5t-32 -44q-6 -6 -15.5 -7t-17.5 2.5t-11 11t3 17.5q24 39 43.5 76.5t30.5 61.5q5 12 11 15.5t14 3.5q12 0 26 -0.5t19 -0.5q14 0 19.5 -10.5t-7.5 -24.5z" />
    <glyph glyph-name="mu" unicode="&#xb5;" horiz-adv-x="588" 
d="M235 -10q-18 0 -29 2.5t-18 2.5q-8 0 -8 -11q0 -41 2.5 -83.5t2.5 -73.5q0 -9 -2 -14t-12 -7q-2 0 -9 -1.5t-16 -3l-18 -3t-14 -2.5q-9 -2 -11.5 5.5t-2.5 16.5q2 82 3.5 150.5t2.5 132t1 127.5t-1 136q0 11 -1.5 21.5t-6 18t-14.5 10.5t-28 0q-14 -2 -20.5 4t-6.5 15
t6.5 17.5t18.5 9.5t25.5 1.5t26 1.5t23 2t16.5 3q6 1 18.5 1.5t16.5 -4.5q11 -14 9.5 -42.5t-2.5 -63.5q0 -12 -1 -41t-1.5 -62t-1 -63t0.5 -43q3 -51 22.5 -72.5t58.5 -21.5q21 0 42.5 8.5t40.5 25t31.5 40.5t15.5 56q2 21 3 46.5t1 50t0.5 45.5t0.5 34q1 29 -12.5 43
t-48.5 11q-13 -1 -19.5 5.5t-6.5 15.5t6.5 16.5t19.5 7.5q73 0 108 8q8 2 18.5 -1t12.5 -14t2.5 -33.5t-1.5 -62.5q-1 -41 -2.5 -81t-2 -75t1 -62.5t5.5 -42.5q2 -10 5 -18t8 -13.5t14 -7t24 2.5q8 2 13.5 -4t5.5 -15q0 -6 -3 -12.5t-11 -11.5t-22 -10t-28 -9t-25 -6.5
t-13 -2.5q-11 0 -24.5 21t-20.5 54q-4 16 -22 -4q-9 -9 -25 -21.5t-36 -23.5t-42.5 -18.5t-43.5 -7.5z" />
    <glyph glyph-name="paragraph" unicode="&#xb6;" horiz-adv-x="559" 
d="M331 -36q2 36 3 81t0 85q-1 47 -3 95q0 22 -14 30t-23 8q-52 0 -98 14.5t-80.5 41.5t-55 65t-20.5 85q0 49 22 88.5t62.5 66.5t99 41.5t131.5 14.5q42 0 66 0.5t38 1.5t21 2t15 1q13 0 19 -8t6 -18q0 -11 -6.5 -20t-19.5 -8q-41 1 -52 -11t-13 -43q-5 -52 -6.5 -109.5
t-1 -115.5t1.5 -114t1.5 -103t0.5 -83.5t-2 -56.5q-6 -49 -31 -86t-58 -62t-68 -38t-61 -13q-11 0 -16 11t-1.5 23.5t15.5 23.5t35 11q19 0 35 4t28 14.5t19.5 30t10.5 50.5z" />
    <glyph glyph-name="periodcentered" unicode="&#xb7;" horiz-adv-x="261" 
d="M70 285q0 28 17.5 43t43.5 15q59 0 59 -52q0 -27 -15 -45.5t-44 -18.5t-45 17t-16 41z" />
    <glyph glyph-name="cedilla" unicode="&#xb8;" horiz-adv-x="259" 
d="M218 -110q0 -14 -8.5 -28t-23.5 -26t-36 -20t-46 -10q-9 -1 -14.5 3.5t-7 10.5t1 11t7.5 5q34 2 50 12.5t16 24.5q0 11 -12 19t-44 8q-15 0 -24.5 6t-3.5 21q5 12 17 33.5t24 39.5q4 5 11 8.5t14 4.5q8 1 18 -2t6 -10q-2 -5 -10.5 -16t-10.5 -16q-7 -11 -6 -15t10 -6
q72 -10 72 -58z" />
    <glyph glyph-name="uni00B9" unicode="&#xb9;" horiz-adv-x="283" 
d="M195 505q1 -8 2 -14t7 -9t19.5 -3.5t38.5 1.5q6 0 10 -5.5t4 -12t-4 -12t-13 -5.5q-21 1 -49 1.5t-57.5 0.5t-58.5 -0.5t-53 -1.5q-6 0 -10 5t-4 12t3.5 12t11.5 5q25 -2 39.5 -1t22.5 5t10.5 10.5t3.5 16.5q1 12 1.5 40.5t0.5 61t-0.5 61t-1.5 40.5q0 5 -2.5 8t-10 4
t-22 1t-39.5 -1q-7 0 -11 5t-4.5 11t2.5 11.5t11 5.5q31 0 52 7.5t34.5 17t20.5 17t11 7.5q1 0 7 -0.5t13 -2t12 -5t4 -10.5q-1 -13 -1.5 -37t-1 -54t-0.5 -61.5t0.5 -58.5t0.5 -47t1 -26z" />
    <glyph glyph-name="ordmasculine" unicode="&#xba;" horiz-adv-x="339" 
d="M171 644q25 0 47.5 -8.5t39.5 -23.5t26.5 -35t9.5 -43q0 -30 -10 -52.5t-27.5 -38t-40 -23t-47.5 -7.5q-54 0 -89 30.5t-35 84.5q0 26 10.5 47.5t28 36.5t40 23.5t47.5 8.5zM170 599q-32 0 -54 -19.5t-22 -48.5q0 -35 20.5 -54t53.5 -19q32 0 53.5 19t21.5 57
q0 26 -21.5 45.5t-51.5 19.5z" />
    <glyph glyph-name="guillemotright" unicode="&#xbb;" horiz-adv-x="447" 
d="M239 235q0 -18 -34.5 -62.5t-99.5 -125.5q-6 -7 -16 -7q-11 0 -19.5 6t-8.5 16q0 6 5 14q26 38 42.5 66t26 47t13 30t3.5 14t-6.5 17t-18.5 36t-29.5 50t-39.5 59q-4 5 -4 12q0 9 8 15t18 6q11 0 18 -8q38 -47 65 -78.5t44 -52.5t25 -33.5t8 -20.5zM408 235
q0 -18 -34 -62.5t-99 -125.5q-6 -7 -16 -7q-11 0 -19.5 6t-8.5 16q0 6 5 14q26 38 42.5 66t26 47t13 30t3.5 14t-6.5 17t-18.5 36t-29.5 50t-39.5 59q-4 5 -4 12q0 9 8 15t18 6q11 0 18 -8q38 -47 64.5 -78.5t43.5 -52.5t25 -33.5t8 -20.5z" />
    <glyph glyph-name="onequarter" unicode="&#xbc;" horiz-adv-x="757" 
d="M225 26q-10 -18 -18.5 -28.5t-31.5 -5.5q-11 2 -15 7.5t-3.5 12.5t4 13.5t8.5 11.5q3 3 35 51.5t84.5 132.5t121 199t143.5 251q7 14 19 16t21.5 -3.5t13.5 -15.5t-4 -19q-2 -2 -19 -30t-44 -71.5t-60.5 -98.5t-68 -112.5l-67.5 -112.5t-59 -98.5t-42.5 -70.5t-17.5 -29z
M215 389q1 -8 2 -14t7 -9t19.5 -3.5t38.5 1.5q7 0 11 -5.5t4 -12t-4 -12t-14 -5.5q-21 1 -49 1.5t-57.5 0.5t-58.5 -0.5t-53 -1.5q-6 0 -9.5 5t-3.5 12t3 12t11 5q25 -2 40 -1t22.5 5t10.5 10.5t4 16.5q1 12 1.5 40.5t0.5 61t-0.5 61t-1.5 40.5q0 5 -2.5 8t-10 4t-22.5 0.5
t-40 -1.5q-6 0 -10 5t-5 11t2 11.5t11 5.5q31 0 52.5 8t35 17t20.5 17t10 8q1 0 7 -0.5t13 -2t12 -5.5t4 -11q-2 -19 -2.5 -62t-0.5 -89.5t0.5 -84.5t1.5 -47zM594 256q0 9 -7 10.5t-13 -4.5q-12 -11 -26.5 -26t-28.5 -30t-24.5 -27.5t-14.5 -16.5q-5 -6 -5 -11.5t10 -5.5
q6 0 19.5 -0.5t28.5 -0.5t28 0.5t18 0.5q12 1 13 13q1 7 1.5 20t1 28t0 28.5t-0.5 21.5zM703 100h-30q-6 0 -6 -7q-1 -11 -1 -34t2 -43q0 -7 -3.5 -12t-12.5 -4h-45q-18 0 -16 18q1 20 1 42.5v30.5t-10 9q-12 1 -30 1h-38.5h-41t-37.5 -1q-8 0 -12.5 7t-6 15.5t-1 16
t2.5 8.5q19 18 46.5 47.5t54 59.5t45 53.5t19.5 29.5q0 4 3 9.5t11 5.5q10 0 27.5 4.5t22.5 10.5q3 5 13 2.5t9 -10.5q0 -5 -1 -24.5t-1.5 -48t-0.5 -63t2 -68.5q0 -11 11 -12q8 0 11.5 0.5t12.5 0.5q8 0 15 -3.5t6 -13.5q-1 -8 -4.5 -17.5t-16.5 -9.5z" />
    <glyph glyph-name="onehalf" unicode="&#xbd;" horiz-adv-x="751" 
d="M219 26q-9 -18 -18 -28.5t-32 -5.5q-11 2 -15 7.5t-3.5 12.5t4 13.5t8.5 11.5q3 3 35 51.5t84.5 132.5t121 199t143.5 251q7 14 19 16t21.5 -3.5t13.5 -15.5t-3 -19q-2 -2 -19.5 -30t-44 -71.5t-60 -98.5t-68.5 -112.5t-68 -112.5t-59 -98.5t-42.5 -70.5t-17.5 -29z
M210 389q1 -8 2 -14t7 -9t19 -3.5t38 1.5q7 0 11 -5.5t4 -12t-4 -12t-13 -5.5q-22 1 -50 1.5t-57.5 0.5t-58.5 -0.5t-53 -1.5q-6 0 -9.5 5t-3.5 12t3 12t11 5q25 -2 40 -1t22.5 5t10.5 10.5t4 16.5q1 12 1.5 40.5t0.5 61t-0.5 61t-1.5 40.5q0 5 -2.5 8t-10 4t-22.5 0.5
t-40 -1.5q-6 0 -10 5t-5 11t2 11.5t11 5.5q32 0 53 8t34.5 17t20.5 17t11 8q1 0 7 -0.5t12.5 -2t11.5 -5.5t4 -11q-1 -19 -1.5 -62t-0.5 -89.5t0.5 -84.5t1.5 -47zM556 309q-28 0 -45.5 -16t-23.5 -29q-2 -5 -8 -5.5t-12 3t-9.5 9t-0.5 12.5q4 9 13.5 21.5t25 24t37.5 19.5
t51 8q23 0 44 -6.5t37.5 -19t26 -30.5t9.5 -41q0 -33 -17 -60.5t-40 -50.5t-48 -40t-40 -29q-9 -8 -2 -13t20 -6q17 0 34.5 0.5t28.5 1.5q21 3 30 8.5t18 21.5q2 4 7 5.5t10 1t8 -3.5t2 -9q-2 -5 -5 -16t-6 -24t-6 -25.5t-6 -20.5q-2 -4 -11 -4t-17 2q-5 1 -14.5 1.5
t-20.5 0.5q-12 0 -31 0.5t-41 0.5t-45.5 -0.5t-44.5 -1.5q-8 0 -13 6.5t-7 14.5t-1.5 16t3.5 11q22 14 52 36t57 48t46 55t19 57q0 30 -16 48t-48 18z" />
    <glyph glyph-name="threequarters" unicode="&#xbe;" horiz-adv-x="767" 
d="M235 26q-10 -18 -19 -28.5t-32 -5.5q-11 2 -15 7.5t-3.5 12.5t4.5 13.5t8 11.5q3 3 35.5 51.5t85 132.5t121 199t143.5 251q7 14 19 16t21 -3.5t13 -15.5t-3 -19q-2 -2 -19.5 -30t-44 -71.5t-60 -98.5t-68 -112.5l-67.5 -112.5t-59.5 -98.5t-42.5 -70.5t-17 -29zM603 256
q0 9 -6.5 10.5t-12.5 -4.5q-12 -11 -26.5 -26t-28.5 -30t-24.5 -27.5t-14.5 -16.5q-5 -6 -5 -11.5t10 -5.5q6 0 19 -0.5t28 -0.5t28 0.5t19 0.5q11 1 12 13q1 7 1.5 20t1 28t0 28.5t-0.5 21.5zM713 100h-30q-6 0 -6 -7q-1 -11 -1 -34t2 -43q0 -7 -3.5 -12t-12.5 -4h-45
q-19 0 -17 18q1 20 1 42.5v30.5q0 7 -9 9q-12 1 -30 1h-38.5h-41t-38.5 -1q-8 0 -12 7t-5.5 15.5t-1 16t2.5 8.5q18 18 46 47.5t54 59.5t45 53.5t20 29.5q0 4 3 9.5t10 5.5q11 0 28.5 4.5t22.5 10.5q3 5 13 2.5t9 -10.5q0 -5 -1 -24.5t-1.5 -48t-0.5 -63t2 -68.5
q0 -11 11 -12q7 0 10.5 0.5t13.5 0.5q8 0 14.5 -3.5t5.5 -13.5q-1 -8 -4.5 -17.5t-15.5 -9.5zM226 418q0 19 -9.5 33t-26 22t-38 12t-44.5 4q-8 0 -11.5 4.5t-4 10.5t2.5 11t9 6q38 4 66.5 24.5t28.5 52.5q0 18 -14 31.5t-43 13.5q-17 0 -29 -4.5t-20 -9.5t-13 -9.5t-7 -5.5
q-5 -3 -9.5 -1.5t-7.5 5.5t-3.5 9.5t1.5 9.5q1 4 9 12t22 16t35 14.5t49 6.5q49 0 79 -21t30 -53q0 -17 -6.5 -30t-15.5 -23t-19 -16.5t-18 -9.5q-5 -2 -5.5 -5.5t6.5 -5.5t21.5 -6.5t29 -13.5t25.5 -24.5t11 -39.5q0 -23 -11 -44t-32 -37t-51.5 -25t-69.5 -9
q-42 0 -70 11.5t-28 34.5q0 11 7.5 20.5t24.5 9.5q15 0 22 -6.5t13 -14t15 -13.5t28 -6q28 0 49.5 15t21.5 44z" />
    <glyph glyph-name="questiondown" unicode="&#xbf;" horiz-adv-x="346" 
d="M213 232q0 -45 -9.5 -80t-21 -67.5t-21 -65.5t-9.5 -74q0 -18 3.5 -36t10.5 -32.5t18.5 -23.5t28.5 -9q15 0 25.5 6t18.5 13.5t14.5 14t14.5 6.5q14 0 23 -9t9 -22q0 -25 -24.5 -41t-80.5 -16q-41 0 -70.5 11.5t-49 30t-28.5 41t-9 45.5q0 40 19 79t42.5 77.5t42.5 77
t19 76.5q0 9 5 12.5t12 3.5q8 0 12.5 -3t4.5 -15zM262 437q0 -31 -19 -47.5t-48 -16.5q-32 0 -48 15t-16 42q0 30 16 50.5t48 20.5q33 0 50 -19t17 -45z" />
    <glyph glyph-name="Agrave" unicode="&#xc0;" 
d="M449 319q-5 15 -16.5 46t-25 66.5t-27 69.5t-23.5 55q-5 9 -11 12.5t-14 -13.5q-10 -20 -24.5 -51t-29.5 -65.5t-28.5 -68t-21.5 -57.5q-8 -17 14 -22q6 -1 24 -2t43.5 -1t56.5 1t62 4q12 1 19 6.5t2 19.5zM293 598q3 7 1.5 12.5t-4 10.5t-4 10t0.5 11q3 8 19 8
q23 0 37 7t31 30q6 6 14 6t10 -5q7 -21 24.5 -68.5t40.5 -108t49.5 -127.5t51 -127.5t44.5 -107.5t32 -68q4 -7 8.5 -14.5t11.5 -14t17.5 -9.5t26.5 -1q14 2 20.5 -5t6.5 -16t-6.5 -17t-18.5 -6q-11 1 -39.5 2t-62.5 1t-67.5 -0.5t-55.5 -2.5q-13 -1 -19 5.5t-6 14.5
q0 9 6 17t16 7q32 -2 45 8t9 39q0 7 -7 26.5t-15.5 42.5t-17 43.5t-11.5 29.5q-4 9 -13 11q-32 3 -68.5 4t-70.5 1t-61 -1t-39 -2q-14 -1 -22.5 -5t-14.5 -17q-16 -35 -28 -68.5t-18 -50.5q-12 -38 6 -51.5t73 -7.5q13 2 19.5 -6t6.5 -17t-6.5 -17t-19.5 -6q-17 1 -42.5 2
t-54 1t-57.5 -0.5t-54 -2.5q-13 -2 -19.5 6t-6.5 17q0 8 6 15t20 5q43 -4 71 63q4 8 16.5 36.5t36.5 86.5t61 148.5t91 222.5zM236 840q-8 5 -10 11t1 11.5t8.5 9t12.5 3.5h8.5t14 0.5t15 0.5h11.5q12 0 21 -4.5t19 -14.5q17 -19 45.5 -47.5t58.5 -56.5q10 -9 1.5 -17.5
t-22.5 -8.5q-9 -1 -19.5 0.5t-20.5 9.5q-16 13 -36.5 28t-41 29.5t-38.5 26.5t-28 19z" />
    <glyph glyph-name="Aacute" unicode="&#xc1;" 
d="M449 319q-5 15 -16.5 46t-25 66.5t-27 69.5t-23.5 55q-5 9 -11 12.5t-14 -13.5q-10 -20 -24.5 -51t-29.5 -65.5t-28.5 -68t-21.5 -57.5q-8 -17 14 -22q6 -1 24 -2t43.5 -1t56.5 1t62 4q12 1 19 6.5t2 19.5zM293 598q3 7 1.5 12.5t-4 10.5t-4 10t0.5 11q3 8 19 8
q23 0 37 7t31 30q6 6 14 6t10 -5q7 -21 24.5 -68.5t40.5 -108t49.5 -127.5t51 -127.5t44.5 -107.5t32 -68q4 -7 8.5 -14.5t11.5 -14t17.5 -9.5t26.5 -1q14 2 20.5 -5t6.5 -16t-6.5 -17t-18.5 -6q-11 1 -39.5 2t-62.5 1t-67.5 -0.5t-55.5 -2.5q-13 -1 -19 5.5t-6 14.5
q0 9 6 17t16 7q32 -2 45 8t9 39q0 7 -7 26.5t-15.5 42.5t-17 43.5t-11.5 29.5q-4 9 -13 11q-32 3 -68.5 4t-70.5 1t-61 -1t-39 -2q-14 -1 -22.5 -5t-14.5 -17q-16 -35 -28 -68.5t-18 -50.5q-12 -38 6 -51.5t73 -7.5q13 2 19.5 -6t6.5 -17t-6.5 -17t-19.5 -6q-17 1 -42.5 2
t-54 1t-57.5 -0.5t-54 -2.5q-13 -2 -19.5 6t-6.5 17q0 8 6 15t20 5q43 -4 71 63q4 8 16.5 36.5t36.5 86.5t61 148.5t91 222.5zM466 840q-11 -7 -29 -19t-38 -26.5t-41 -29.5t-38 -28q-9 -8 -19.5 -9.5t-20.5 -0.5q-6 0 -12 2.5t-9.5 6t-3.5 8t5 9.5q31 28 59 56.5t46 47.5
q16 19 39 19q8 0 25.5 -0.5t22.5 -0.5q7 0 13 -3.5t8.5 -9t1 -11.5t-8.5 -11z" />
    <glyph glyph-name="Acircumflex" unicode="&#xc2;" 
d="M449 319q-5 15 -16.5 46t-25 66.5t-27 69.5t-23.5 55q-5 9 -11 12.5t-14 -13.5q-10 -20 -24.5 -51t-29.5 -65.5t-28.5 -68t-21.5 -57.5q-8 -17 14 -22q6 -1 24 -2t43.5 -1t56.5 1t62 4q12 1 19 6.5t2 19.5zM293 598q3 7 1.5 12.5t-4 10.5t-4 10t0.5 11q3 8 19 8
q23 0 37 7t31 30q6 6 14 6t10 -5q7 -21 24.5 -68.5t40.5 -108t49.5 -127.5t51 -127.5t44.5 -107.5t32 -68q4 -7 8.5 -14.5t11.5 -14t17.5 -9.5t26.5 -1q14 2 20.5 -5t6.5 -16t-6.5 -17t-18.5 -6q-11 1 -39.5 2t-62.5 1t-67.5 -0.5t-55.5 -2.5q-13 -1 -19 5.5t-6 14.5
q0 9 6 17t16 7q32 -2 45 8t9 39q0 7 -7 26.5t-15.5 42.5t-17 43.5t-11.5 29.5q-4 9 -13 11q-32 3 -68.5 4t-70.5 1t-61 -1t-39 -2q-14 -1 -22.5 -5t-14.5 -17q-16 -35 -28 -68.5t-18 -50.5q-12 -38 6 -51.5t73 -7.5q13 2 19.5 -6t6.5 -17t-6.5 -17t-19.5 -6q-17 1 -42.5 2
t-54 1t-57.5 -0.5t-54 -2.5q-13 -2 -19.5 6t-6.5 17q0 8 6 15t20 5q43 -4 71 63q4 8 16.5 36.5t36.5 86.5t61 148.5t91 222.5zM258 733q-8 -7 -19.5 -7.5t-19.5 2.5q-11 5 -14 12t8 16q40 36 65 62.5t51 52.5q15 14 33 13t29 -13q12 -13 24 -25.5t25.5 -26t29.5 -29
t37 -33.5q18 -18 -6 -29q-8 -3 -19 -2.5t-21 7.5q-16 14 -36.5 28.5t-40.5 29.5q-23 15 -47 0q-20 -15 -41 -30t-38 -28z" />
    <glyph glyph-name="Atilde" unicode="&#xc3;" 
d="M449 319q-5 15 -16.5 46t-25 66.5t-27 69.5t-23.5 55q-5 9 -11 12.5t-14 -13.5q-10 -20 -24.5 -51t-29.5 -65.5t-28.5 -68t-21.5 -57.5q-8 -17 14 -22q6 -1 24 -2t43.5 -1t56.5 1t62 4q12 1 19 6.5t2 19.5zM293 598q3 7 1.5 12.5t-4 10.5t-4 10t0.5 11q3 8 19 8
q23 0 37 7t31 30q6 6 14 6t10 -5q7 -21 24.5 -68.5t40.5 -108t49.5 -127.5t51 -127.5t44.5 -107.5t32 -68q4 -7 8.5 -14.5t11.5 -14t17.5 -9.5t26.5 -1q14 2 20.5 -5t6.5 -16t-6.5 -17t-18.5 -6q-11 1 -39.5 2t-62.5 1t-67.5 -0.5t-55.5 -2.5q-13 -1 -19 5.5t-6 14.5
q0 9 6 17t16 7q32 -2 45 8t9 39q0 7 -7 26.5t-15.5 42.5t-17 43.5t-11.5 29.5q-4 9 -13 11q-32 3 -68.5 4t-70.5 1t-61 -1t-39 -2q-14 -1 -22.5 -5t-14.5 -17q-16 -35 -28 -68.5t-18 -50.5q-12 -38 6 -51.5t73 -7.5q13 2 19.5 -6t6.5 -17t-6.5 -17t-19.5 -6q-17 1 -42.5 2
t-54 1t-57.5 -0.5t-54 -2.5q-13 -2 -19.5 6t-6.5 17q0 8 6 15t20 5q43 -4 71 63q4 8 16.5 36.5t36.5 86.5t61 148.5t91 222.5zM270 877q25 1 46.5 -11t41 -26.5t38 -26.5t37.5 -12t29.5 13.5t19.5 37.5q3 10 10 12.5t14.5 0.5t13 -7.5t5.5 -12.5q0 -9 -5 -28t-17 -38
t-32 -33t-50 -14q-26 0 -47.5 12.5t-40 27t-34.5 27t-31 12.5q-20 0 -27 -13.5t-15 -32.5q-5 -9 -12.5 -10.5t-14.5 2t-11.5 10t-3.5 14.5q1 9 6 24.5t15.5 31.5t26.5 27.5t38 12.5z" />
    <glyph glyph-name="Adieresis" unicode="&#xc4;" 
d="M449 319q-5 15 -16.5 46t-25 66.5t-27 69.5t-23.5 55q-5 9 -11 12.5t-14 -13.5q-10 -20 -24.5 -51t-29.5 -65.5t-28.5 -68t-21.5 -57.5q-8 -17 14 -22q6 -1 24 -2t43.5 -1t56.5 1t62 4q12 1 19 6.5t2 19.5zM293 598q3 7 1.5 12.5t-4 10.5t-4 10t0.5 11q3 8 19 8
q23 0 37 7t31 30q6 6 14 6t10 -5q7 -21 24.5 -68.5t40.5 -108t49.5 -127.5t51 -127.5t44.5 -107.5t32 -68q4 -7 8.5 -14.5t11.5 -14t17.5 -9.5t26.5 -1q14 2 20.5 -5t6.5 -16t-6.5 -17t-18.5 -6q-11 1 -39.5 2t-62.5 1t-67.5 -0.5t-55.5 -2.5q-13 -1 -19 5.5t-6 14.5
q0 9 6 17t16 7q32 -2 45 8t9 39q0 7 -7 26.5t-15.5 42.5t-17 43.5t-11.5 29.5q-4 9 -13 11q-32 3 -68.5 4t-70.5 1t-61 -1t-39 -2q-14 -1 -22.5 -5t-14.5 -17q-16 -35 -28 -68.5t-18 -50.5q-12 -38 6 -51.5t73 -7.5q13 2 19.5 -6t6.5 -17t-6.5 -17t-19.5 -6q-17 1 -42.5 2
t-54 1t-57.5 -0.5t-54 -2.5q-13 -2 -19.5 6t-6.5 17q0 8 6 15t20 5q43 -4 71 63q4 8 16.5 36.5t36.5 86.5t61 148.5t91 222.5zM248 745q-8 0 -18 2.5t-19 8.5t-15.5 16t-6.5 26q0 6 2.5 14.5t9.5 17t18.5 14t28.5 5.5q20 0 36.5 -15t16.5 -40q0 -23 -16 -36t-37 -13z
M485 745q-8 0 -18 2.5t-19 8.5t-15 16t-6 26q0 6 2.5 14.5t9 17t17.5 14t29 5.5q20 0 36 -15t16 -40q0 -23 -15.5 -36t-36.5 -13z" />
    <glyph glyph-name="Aring" unicode="&#xc5;" 
d="M366 820q23 0 43 -8t34.5 -21.5t23 -31.5t8.5 -38q0 -25 -7.5 -44.5t-21.5 -33.5q-16 -16 -16.5 -27t7.5 -34q13 -35 30.5 -80.5t37 -96t39.5 -101t38.5 -95t33.5 -78.5t25 -50q4 -7 8.5 -14.5t11.5 -14t17.5 -9.5t26.5 -1q14 2 20.5 -5t6.5 -16t-6.5 -17t-18.5 -6
q-11 1 -39.5 2t-62.5 1t-67.5 -0.5t-55.5 -2.5q-14 -1 -19.5 6t-5 15.5t6 15.5t15.5 7q32 -2 45 8t9 39q0 7 -7 26.5t-15.5 42.5t-17 43.5t-11.5 29.5q-4 9 -13 11q-32 3 -68.5 4t-70.5 1t-61 -1t-39 -2q-14 -1 -22.5 -5t-14.5 -17q-16 -35 -28 -68.5t-18 -50.5
q-12 -38 6 -51.5t73 -7.5q13 1 19.5 -6t6.5 -16.5t-6.5 -17t-19.5 -6.5q-17 1 -42.5 2t-54 1t-57.5 -0.5t-54 -2.5q-12 -1 -19 6t-7.5 16t6 15.5t20.5 5.5q43 -4 71 63q4 8 16.5 36.5t36.5 86.5t61 148.5t91 222.5q11 25 -7 38q-35 30 -35 80q0 24 9 43t25 32.5t36.5 21
t43.5 7.5zM450 319q-5 15 -16.5 46t-25 66.5t-27 69.5t-23.5 55q-5 9 -11 12.5t-14 -13.5q-10 -20 -24.5 -51t-29.5 -65.5t-28.5 -68t-21.5 -57.5q-8 -17 14 -22q6 -1 24 -2t43.5 -1t56.5 1t62 4q12 1 19 6.5t2 19.5zM365 770q-24 0 -41 -14.5t-17 -38.5q0 -26 15.5 -40.5
t40.5 -14.5q24 0 41 14.5t17 43.5q0 20 -16.5 35t-39.5 15z" />
    <glyph glyph-name="AE" unicode="&#xc6;" horiz-adv-x="975" 
d="M605 97q0 -14 3.5 -23.5t11.5 -15.5t23.5 -9t39.5 -3q23 0 52.5 1.5t47.5 5.5q20 4 35 15t26 25.5t18 31t12 32.5q4 14 12 20t16 6q11 0 19.5 -8.5t5.5 -20.5q-9 -35 -17.5 -72.5t-10.5 -64.5q-1 -8 -7 -13.5t-23 -5.5q-33 0 -55 0.5t-40 1l-36 1t-43 1t-59.5 1
t-85.5 0.5q-13 0 -28 -1t-29.5 -1.5t-26.5 -1.5t-20 -1q-14 -2 -20.5 5.5t-6.5 17.5t7 18.5t18 6.5q24 -4 37.5 0.5t20 13t8.5 18.5t2 18q2 26 3 54.5t1 57.5q0 34 -25 35q-29 1 -59.5 2t-57.5 1t-48 -0.5t-33 -1.5q-14 -1 -24 -5t-20 -17q-26 -35 -48 -68.5t-33 -50.5
q-24 -38 -10 -51.5t71 -7.5q13 2 19.5 -5.5t6.5 -16.5q0 -10 -7 -18t-20 -6q-17 1 -43 2t-55.5 1t-60 -0.5t-55.5 -2.5q-13 -2 -20 6t-7 17q0 8 6.5 15t20.5 5q40 -4 88 63q6 7 29 39.5t65.5 92.5t105.5 150t149 212q8 12 10 19.5t0.5 12t-5.5 6t-8 1.5q-8 0 -15 -0.5
t-14 -1.5q-12 -2 -18 5.5t-6 17.5q0 9 5.5 16.5t18.5 6.5q21 -2 55 -3t74 -1.5t83.5 -0.5t85 0.5t78.5 1t63 2.5q30 2 41 -6.5t10 -20.5q-1 -9 -2.5 -23t-3 -29t-3 -27.5t-2.5 -17.5q-2 -13 -10 -19t-16 -6t-13.5 5t-5.5 13q1 27 -7 44.5t-30.5 27t-62.5 13t-103 3.5
q-16 0 -25.5 -4.5t-14 -12t-6 -16.5t-2.5 -18q-1 -10 -1.5 -36.5t-0.5 -57.5v-58.5t1 -39.5q1 -22 19 -22h25.5h41.5t42 0.5t27 0.5q20 2 29 16t9 44q0 9 8 14.5t17 5.5t16.5 -5.5t6.5 -18.5q-2 -33 -3 -51.5t-1 -33t1 -28.5t2 -36q1 -17 -7 -25t-18 -8t-17.5 7t-6.5 18
q1 26 -6.5 37.5t-25.5 15.5q-8 1 -29 2t-44 1t-43 -0.5t-26 -1.5q-11 -2 -13.5 -8.5t-2.5 -13.5v-42.5v-58t1 -59.5t2 -47zM519 319v46v66.5t-1 69.5t-4 55q-2 9 -10 12.5t-22 -13.5q-16 -20 -40 -51t-49.5 -65.5t-48.5 -68t-38 -57.5q-8 -10 -5 -15t12 -7q5 -1 21.5 -2
t40 -1t53 1t61.5 4q13 1 21.5 6.5t8.5 19.5z" />
    <glyph glyph-name="Ccedilla" unicode="&#xc7;" horiz-adv-x="717" 
d="M500 -110q0 -14 -8.5 -28t-24 -26t-36.5 -20t-46 -10q-9 -1 -14.5 3.5t-7 10.5t1 11t7.5 5q34 2 50 12.5t16 24.5q0 11 -12 19t-44 8q-14 0 -24 6t-4 21q2 6 7 15.5t11 19.5q2 4 4 9t2.5 9.5t-2.5 8t-12 4.5q-73 9 -130.5 38.5t-97.5 76t-61 107t-21 129.5q0 73 27.5 136
t77.5 109.5t120 73t156 26.5q49 0 90.5 -7t72 -17.5t48 -23t18.5 -23.5q3 -23 4.5 -43t3.5 -49q0 -9 -7.5 -14t-17.5 -5.5t-18.5 1.5t-9.5 7q-6 26 -20.5 50t-38.5 42t-57.5 29t-78.5 11q-58 0 -106.5 -22t-84 -60.5t-55.5 -92t-20 -116.5q0 -75 25 -132.5t66.5 -96.5
t94 -59.5t106.5 -20.5q43 0 73.5 7t50.5 16t30.5 18t14.5 12q5 4 12 1.5t11.5 -9.5t5.5 -15.5t-5 -15.5q-3 -3 -15 -12.5t-35 -21t-56.5 -22t-79.5 -14.5q-14 -1 -21 -6t-13 -16q-7 -11 -6 -15t11 -6q72 -11 72 -58z" />
    <glyph glyph-name="Egrave" unicode="&#xc8;" horiz-adv-x="601" 
d="M231 97q0 -14 3 -23.5t11.5 -15.5t23.5 -9t39 -3q23 0 52.5 1.5t47.5 5.5q20 4 35.5 15t26.5 25.5t18 31t12 32.5q4 14 11.5 20t15.5 6q11 0 20 -8.5t6 -20.5q-10 -35 -17.5 -72.5t-10.5 -64.5q-1 -7 -7 -13t-23 -6q-33 0 -55 0.5t-40.5 1t-36.5 1t-42.5 1t-59 1
t-85.5 0.5q-13 0 -28 -1t-29.5 -1.5t-27 -1.5t-19.5 -1q-14 -2 -20.5 5.5t-6.5 17.5t7 18.5t18 6.5q24 -4 37.5 0.5t20 13t8.5 18.5t2 18q2 53 3.5 110.5t2 113t0 107t-1 91.5t-2 66.5t-2.5 33.5q-4 14 -22 17.5t-42 -0.5q-12 -2 -18 5.5t-6 17.5q0 9 5.5 16.5t18.5 6.5
q32 -2 85.5 -3.5t112 -1.5t115.5 1t97 3q30 2 40.5 -6.5t9.5 -20.5q0 -9 -1.5 -23t-3 -29t-3 -27.5t-2.5 -17.5q-2 -13 -10 -19t-16 -6t-14 5t-6 13q1 27 -7 44.5t-30.5 27t-62.5 13t-103 3.5q-16 0 -25 -4.5t-13.5 -12t-6 -16.5t-2.5 -18q-1 -10 -1.5 -36.5t-0.5 -57.5
v-58.5t1 -39.5q1 -22 18 -22h26.5h41.5t41.5 0.5t26.5 0.5q20 2 29.5 16t9.5 44q0 9 8 14.5t17 5.5t16 -5.5t7 -18.5q-2 -33 -3 -51.5t-1 -33t1 -28.5t2 -36q1 -17 -7 -25t-18 -8t-18 7t-7 18q2 26 -6 37.5t-26 15.5q-7 1 -28 2t-44 1t-43.5 -0.5t-26.5 -1.5
q-11 -2 -13 -8.5t-2 -13.5v-42.5v-58t1 -59.5t2 -47zM189 840q-8 5 -10 11t1 11.5t8.5 9t12.5 3.5h8.5t14 0.5t15 0.5h11.5q12 0 21 -4.5t19 -14.5q17 -19 45.5 -47.5t58.5 -56.5q10 -9 1.5 -17.5t-22.5 -8.5q-9 -1 -19.5 0.5t-20.5 9.5q-16 13 -36.5 28t-41 29.5
t-38.5 26.5t-28 19z" />
    <glyph glyph-name="Eacute" unicode="&#xc9;" horiz-adv-x="601" 
d="M231 97q0 -14 3 -23.5t11.5 -15.5t23.5 -9t39 -3q23 0 52.5 1.5t47.5 5.5q20 4 35.5 15t26.5 25.5t18 31t12 32.5q4 14 11.5 20t15.5 6q11 0 20 -8.5t6 -20.5q-10 -35 -17.5 -72.5t-10.5 -64.5q-1 -7 -7 -13t-23 -6q-33 0 -55 0.5t-40.5 1t-36.5 1t-42.5 1t-59 1
t-85.5 0.5q-13 0 -28 -1t-29.5 -1.5t-27 -1.5t-19.5 -1q-14 -2 -20.5 5.5t-6.5 17.5t7 18.5t18 6.5q24 -4 37.5 0.5t20 13t8.5 18.5t2 18q2 53 3.5 110.5t2 113t0 107t-1 91.5t-2 66.5t-2.5 33.5q-4 14 -22 17.5t-42 -0.5q-12 -2 -18 5.5t-6 17.5q0 9 5.5 16.5t18.5 6.5
q32 -2 85.5 -3.5t112 -1.5t115.5 1t97 3q30 2 40.5 -6.5t9.5 -20.5q0 -9 -1.5 -23t-3 -29t-3 -27.5t-2.5 -17.5q-2 -13 -10 -19t-16 -6t-14 5t-6 13q1 27 -7 44.5t-30.5 27t-62.5 13t-103 3.5q-16 0 -25 -4.5t-13.5 -12t-6 -16.5t-2.5 -18q-1 -10 -1.5 -36.5t-0.5 -57.5
v-58.5t1 -39.5q1 -22 18 -22h26.5h41.5t41.5 0.5t26.5 0.5q20 2 29.5 16t9.5 44q0 9 8 14.5t17 5.5t16 -5.5t7 -18.5q-2 -33 -3 -51.5t-1 -33t1 -28.5t2 -36q1 -17 -7 -25t-18 -8t-18 7t-7 18q2 26 -6 37.5t-26 15.5q-7 1 -28 2t-44 1t-43.5 -0.5t-26.5 -1.5
q-11 -2 -13 -8.5t-2 -13.5v-42.5v-58t1 -59.5t2 -47zM419 840q-11 -7 -29 -19t-38 -26.5t-41 -29.5t-38 -28q-9 -8 -19.5 -9.5t-20.5 -0.5q-6 0 -12 2.5t-9.5 6t-3.5 8t5 9.5q31 28 59 56.5t46 47.5q16 19 39 19q8 0 25.5 -0.5t22.5 -0.5q7 0 13 -3.5t8.5 -9t1 -11.5
t-8.5 -11z" />
    <glyph glyph-name="Ecircumflex" unicode="&#xca;" horiz-adv-x="601" 
d="M231 97q0 -14 3 -23.5t11.5 -15.5t23.5 -9t39 -3q23 0 52.5 1.5t47.5 5.5q20 4 35.5 15t26.5 25.5t18 31t12 32.5q4 14 11.5 20t15.5 6q11 0 20 -8.5t6 -20.5q-10 -35 -17.5 -72.5t-10.5 -64.5q-1 -7 -7 -13t-23 -6q-33 0 -55 0.5t-40.5 1t-36.5 1t-42.5 1t-59 1
t-85.5 0.5q-13 0 -28 -1t-29.5 -1.5t-27 -1.5t-19.5 -1q-14 -2 -20.5 5.5t-6.5 17.5t7 18.5t18 6.5q24 -4 37.5 0.5t20 13t8.5 18.5t2 18q2 53 3.5 110.5t2 113t0 107t-1 91.5t-2 66.5t-2.5 33.5q-4 14 -22 17.5t-42 -0.5q-12 -2 -18 5.5t-6 17.5q0 9 5.5 16.5t18.5 6.5
q32 -2 85.5 -3.5t112 -1.5t115.5 1t97 3q30 2 40.5 -6.5t9.5 -20.5q0 -9 -1.5 -23t-3 -29t-3 -27.5t-2.5 -17.5q-2 -13 -10 -19t-16 -6t-14 5t-6 13q1 27 -7 44.5t-30.5 27t-62.5 13t-103 3.5q-16 0 -25 -4.5t-13.5 -12t-6 -16.5t-2.5 -18q-1 -10 -1.5 -36.5t-0.5 -57.5
v-58.5t1 -39.5q1 -22 18 -22h26.5h41.5t41.5 0.5t26.5 0.5q20 2 29.5 16t9.5 44q0 9 8 14.5t17 5.5t16 -5.5t7 -18.5q-2 -33 -3 -51.5t-1 -33t1 -28.5t2 -36q1 -17 -7 -25t-18 -8t-18 7t-7 18q2 26 -6 37.5t-26 15.5q-7 1 -28 2t-44 1t-43.5 -0.5t-26.5 -1.5
q-11 -2 -13 -8.5t-2 -13.5v-42.5v-58t1 -59.5t2 -47zM212 733q-8 -7 -19.5 -7.5t-19.5 2.5q-11 5 -14 12t8 16q40 36 65 62.5t51 52.5q15 14 33 13t29 -13q12 -13 24 -25.5t25.5 -26t29.5 -29t37 -33.5q18 -18 -6 -29q-8 -3 -19 -2.5t-21 7.5q-16 14 -36.5 28.5t-40.5 29.5
q-23 15 -47 0q-20 -15 -41 -30t-38 -28z" />
    <glyph glyph-name="Edieresis" unicode="&#xcb;" horiz-adv-x="601" 
d="M231 97q0 -14 3 -23.5t11.5 -15.5t23.5 -9t39 -3q23 0 52.5 1.5t47.5 5.5q20 4 35.5 15t26.5 25.5t18 31t12 32.5q4 14 11.5 20t15.5 6q11 0 20 -8.5t6 -20.5q-10 -35 -17.5 -72.5t-10.5 -64.5q-1 -7 -7 -13t-23 -6q-33 0 -55 0.5t-40.5 1t-36.5 1t-42.5 1t-59 1
t-85.5 0.5q-13 0 -28 -1t-29.5 -1.5t-27 -1.5t-19.5 -1q-14 -2 -20.5 5.5t-6.5 17.5t7 18.5t18 6.5q24 -4 37.5 0.5t20 13t8.5 18.5t2 18q2 53 3.5 110.5t2 113t0 107t-1 91.5t-2 66.5t-2.5 33.5q-4 14 -22 17.5t-42 -0.5q-12 -2 -18 5.5t-6 17.5q0 9 5.5 16.5t18.5 6.5
q32 -2 85.5 -3.5t112 -1.5t115.5 1t97 3q30 2 40.5 -6.5t9.5 -20.5q0 -9 -1.5 -23t-3 -29t-3 -27.5t-2.5 -17.5q-2 -13 -10 -19t-16 -6t-14 5t-6 13q1 27 -7 44.5t-30.5 27t-62.5 13t-103 3.5q-16 0 -25 -4.5t-13.5 -12t-6 -16.5t-2.5 -18q-1 -10 -1.5 -36.5t-0.5 -57.5
v-58.5t1 -39.5q1 -22 18 -22h26.5h41.5t41.5 0.5t26.5 0.5q20 2 29.5 16t9.5 44q0 9 8 14.5t17 5.5t16 -5.5t7 -18.5q-2 -33 -3 -51.5t-1 -33t1 -28.5t2 -36q1 -17 -7 -25t-18 -8t-18 7t-7 18q2 26 -6 37.5t-26 15.5q-7 1 -28 2t-44 1t-43.5 -0.5t-26.5 -1.5
q-11 -2 -13 -8.5t-2 -13.5v-42.5v-58t1 -59.5t2 -47zM201 745q-8 0 -18 2.5t-19 8.5t-15.5 16t-6.5 26q0 6 2.5 14.5t9.5 17t18.5 14t28.5 5.5q20 0 36.5 -15t16.5 -40q0 -23 -16 -36t-37 -13zM438 745q-8 0 -18 2.5t-19 8.5t-15 16t-6 26q0 6 2.5 14.5t9 17t17.5 14t29 5.5
q20 0 36 -15t16 -40q0 -23 -15.5 -36t-36.5 -13z" />
    <glyph glyph-name="Igrave" unicode="&#xcc;" horiz-adv-x="373" 
d="M63 46q10 -1 22 -2.5t22.5 0t19 7t10.5 18.5q2 14 3.5 58.5t2.5 103.5t1 124.5t-0.5 121.5t-1.5 95t-3 45q-5 14 -24 20.5t-42 1.5q-11 -2 -16.5 4.5t-5.5 14.5q0 9 6 17t20 6q36 -3 64.5 -3.5t53 -0.5t46.5 1t45 3q18 1 26 -6t8 -15q0 -9 -7 -16.5t-17 -5.5
q-29 3 -44 -1t-20 -21q-2 -6 -3 -44t-1.5 -92.5t0 -118.5t1.5 -122.5t2.5 -104.5t4.5 -64q3 -20 20 -23t52 -1q14 1 20.5 -6.5t6.5 -16.5q0 -10 -7 -18t-20 -7q-57 3 -114 4t-124 -4q-15 -2 -22 7t-7 19q0 9 5.5 16t16.5 6zM61 840q-8 5 -10 11t1 11.5t8.5 9t12.5 3.5h8.5
t14 0.5t15 0.5h11.5q12 0 21 -4.5t19 -14.5q17 -19 45.5 -47.5t58.5 -56.5q10 -9 1.5 -17.5t-22.5 -8.5q-9 -1 -19.5 0.5t-20.5 9.5q-16 13 -36.5 28t-41 29.5t-38.5 26.5t-28 19z" />
    <glyph glyph-name="Iacute" unicode="&#xcd;" horiz-adv-x="373" 
d="M63 46q10 -1 22 -2.5t22.5 0t19 7t10.5 18.5q2 14 3.5 58.5t2.5 103.5t1 124.5t-0.5 121.5t-1.5 95t-3 45q-5 14 -24 20.5t-42 1.5q-11 -2 -16.5 4.5t-5.5 14.5q0 9 6 17t20 6q36 -3 64.5 -3.5t53 -0.5t46.5 1t45 3q18 1 26 -6t8 -15q0 -9 -7 -16.5t-17 -5.5
q-29 3 -44 -1t-20 -21q-2 -6 -3 -44t-1.5 -92.5t0 -118.5t1.5 -122.5t2.5 -104.5t4.5 -64q3 -20 20 -23t52 -1q14 1 20.5 -6.5t6.5 -16.5q0 -10 -7 -18t-20 -7q-57 3 -114 4t-124 -4q-15 -2 -22 7t-7 19q0 9 5.5 16t16.5 6zM291 840q-11 -7 -29 -19t-38 -26.5t-41 -29.5
t-38 -28q-9 -8 -19.5 -9.5t-20.5 -0.5q-6 0 -12 2.5t-9.5 6t-3.5 8t5 9.5q31 28 59 56.5t46 47.5q16 19 39 19q8 0 25.5 -0.5t22.5 -0.5q7 0 13 -3.5t8.5 -9t1 -11.5t-8.5 -11z" />
    <glyph glyph-name="Icircumflex" unicode="&#xce;" horiz-adv-x="373" 
d="M63 46q10 -1 22 -2.5t22.5 0t19 7t10.5 18.5q2 14 3.5 58.5t2.5 103.5t1 124.5t-0.5 121.5t-1.5 95t-3 45q-5 14 -24 20.5t-42 1.5q-11 -2 -16.5 4.5t-5.5 14.5q0 9 6 17t20 6q36 -3 64.5 -3.5t53 -0.5t46.5 1t45 3q18 1 26 -6t8 -15q0 -9 -7 -16.5t-17 -5.5
q-29 3 -44 -1t-20 -21q-2 -6 -3 -44t-1.5 -92.5t0 -118.5t1.5 -122.5t2.5 -104.5t4.5 -64q3 -20 20 -23t52 -1q14 1 20.5 -6.5t6.5 -16.5q0 -10 -7 -18t-20 -7q-57 3 -114 4t-124 -4q-15 -2 -22 7t-7 19q0 9 5.5 16t16.5 6zM84 733q-8 -7 -19.5 -7.5t-19.5 2.5q-11 5 -14 12
t8 16q40 36 65 62.5t51 52.5q15 14 33 13t29 -13q12 -13 24 -25.5t25.5 -26t29.5 -29t37 -33.5q18 -18 -6 -29q-8 -3 -19 -2.5t-21 7.5q-16 14 -36.5 28.5t-40.5 29.5q-23 15 -47 0q-20 -15 -41 -30t-38 -28z" />
    <glyph glyph-name="Idieresis" unicode="&#xcf;" horiz-adv-x="373" 
d="M63 46q10 -1 22 -2.5t22.5 0t19 7t10.5 18.5q2 14 3.5 58.5t2.5 103.5t1 124.5t-0.5 121.5t-1.5 95t-3 45q-5 14 -24 20.5t-42 1.5q-11 -2 -16.5 4.5t-5.5 14.5q0 9 6 17t20 6q36 -3 64.5 -3.5t53 -0.5t46.5 1t45 3q18 1 26 -6t8 -15q0 -9 -7 -16.5t-17 -5.5
q-29 3 -44 -1t-20 -21q-2 -6 -3 -44t-1.5 -92.5t0 -118.5t1.5 -122.5t2.5 -104.5t4.5 -64q3 -20 20 -23t52 -1q14 1 20.5 -6.5t6.5 -16.5q0 -10 -7 -18t-20 -7q-57 3 -114 4t-124 -4q-15 -2 -22 7t-7 19q0 9 5.5 16t16.5 6zM73 745q-8 0 -18 2.5t-19 8.5t-15.5 16t-6.5 26
q0 6 2.5 14.5t9.5 17t18.5 14t28.5 5.5q20 0 36.5 -15t16.5 -40q0 -23 -16 -36t-37 -13zM310 745q-8 0 -18 2.5t-19 8.5t-15 16t-6 26q0 6 2.5 14.5t9 17t17.5 14t29 5.5q20 0 36 -15t16 -40q0 -23 -15.5 -36t-36.5 -13z" />
    <glyph glyph-name="Eth" unicode="&#xd0;" horiz-adv-x="767" 
d="M124 357q5 0 12 2.5t7 19.5q0 36 -0.5 71.5t-1.5 66t-2.5 54.5t-3.5 37t-9 19.5t-16.5 8.5t-21 1.5t-23.5 0.5q-7 0 -11 6.5t-3.5 14t6.5 14t20 6.5h223q88 0 163.5 -21t131 -62t86.5 -102t31 -141q0 -76 -23 -141t-72 -112t-125 -73.5t-182 -26.5h-240q-15 -2 -21 5.5
t-5.5 17t7 16.5t17.5 6q26 -3 43.5 4t21.5 34q2 13 4 35t3.5 50t2 60.5t0.5 66.5q0 14 -6 16t-13 2l-42 -2q-14 -1 -19 6t-5 16t4.5 16.5t10.5 7.5h51zM360 45q55 0 100.5 19t78.5 55.5t51.5 89.5t18.5 121q0 56 -15 110.5t-51 97.5t-95.5 69.5t-149.5 26.5q-38 0 -53 -7
t-17 -32q-1 -11 -2 -33t-1 -51v-62.5v-66.5q0 -19 6 -22t13 -3q44 0 81 1.5t59 4.5q8 1 13.5 -6.5t7 -16.5t-3 -17t-17.5 -8q-29 -1 -59.5 0t-78.5 1q-6 0 -13.5 -2t-7.5 -16q1 -53 2 -96.5t2 -66.5q1 -30 12 -48t29 -27t41 -12t49 -3z" />
    <glyph glyph-name="Ntilde" unicode="&#xd1;" horiz-adv-x="775" 
d="M204 530q-2 2 -7.5 2.5t-5.5 -6.5q-1 -19 -0.5 -53t1 -75t1 -85t1.5 -82.5t2 -67.5t2 -40q1 -18 4 -34t11.5 -26.5t23 -15t40.5 -1.5q18 2 26.5 -6.5t8.5 -19.5q0 -9 -6 -16.5t-17 -5.5q-31 2 -84.5 4t-135.5 -4q-11 -2 -17 6t-6 18t6 17.5t19 6.5q25 -2 38 3.5
t19.5 16.5t8 25.5t2.5 31.5q2 33 2.5 87.5t0 113t-1.5 112t-1 84.5q-1 66 -11.5 90t-44.5 21q-13 -1 -19 6.5t-6 16.5q0 10 7.5 18.5t22.5 6.5q23 -1 43 -1h35t27 1q17 2 31.5 -16t33.5 -48q64 -96 141 -205.5t172 -228.5q5 -5 13 -5t9 6q1 16 1.5 46.5t1 68.5t0.5 80
t-0.5 80.5t-2 69.5t-2.5 48q-3 32 -20 48t-61 15q-11 0 -16.5 6.5t-5.5 14.5q0 9 6 16.5t20 5.5q36 -3 60.5 -4t44 -0.5t37.5 2t41 2.5q18 1 26 -6t8 -16q0 -8 -6 -14.5t-17 -6.5q-17 0 -28.5 -5.5t-18 -14t-9.5 -19.5t-3 -21q-5 -125 -4.5 -275.5t5.5 -302.5q0 -6 -10 -9.5
t-23 -3.5q-11 0 -20 2.5t-14 8.5l-102 146t-99.5 141t-93.5 130.5t-84 114.5zM291 877q25 1 46.5 -11t41 -26.5t38 -26.5t37.5 -12t29.5 13.5t19.5 37.5q3 10 10 12.5t14.5 0.5t13 -7.5t5.5 -12.5q0 -9 -5 -28t-17 -38t-32 -33t-50 -14q-26 0 -47.5 12.5t-40 27t-34.5 27
t-31 12.5q-20 0 -27 -13.5t-15 -32.5q-5 -9 -12.5 -10.5t-14.5 2t-11.5 10t-3.5 14.5q1 9 6 24.5t15.5 31.5t26.5 27.5t38 12.5z" />
    <glyph glyph-name="Ograve" unicode="&#xd2;" horiz-adv-x="802" 
d="M55 346q0 72 26 134.5t72 109t109.5 73t138.5 26.5q78 0 142 -25t109.5 -70.5t70.5 -108.5t25 -139q0 -73 -26 -138t-72.5 -113.5t-110 -76.5t-138.5 -28q-79 0 -143 27t-109 74.5t-69.5 112.5t-24.5 142zM161 367q0 -70 20.5 -130t56 -104t82 -69t98.5 -25t93.5 19.5
t70.5 57t44.5 92t15.5 123.5q0 70 -20.5 127.5t-55.5 98t-82 63t-99 22.5q-50 0 -91 -16.5t-70.5 -50t-46 -85.5t-16.5 -123zM280 840q-8 5 -10 11t1 11.5t8.5 9t12.5 3.5h8.5t14 0.5t15 0.5h11.5q12 0 21 -4.5t19 -14.5q17 -19 45.5 -47.5t58.5 -56.5q10 -9 1.5 -17.5
t-22.5 -8.5q-9 -1 -19.5 0.5t-20.5 9.5q-16 13 -36.5 28t-41 29.5t-38.5 26.5t-28 19z" />
    <glyph glyph-name="Oacute" unicode="&#xd3;" horiz-adv-x="802" 
d="M55 346q0 72 26 134.5t72 109t109.5 73t138.5 26.5q78 0 142 -25t109.5 -70.5t70.5 -108.5t25 -139q0 -73 -26 -138t-72.5 -113.5t-110 -76.5t-138.5 -28q-79 0 -143 27t-109 74.5t-69.5 112.5t-24.5 142zM161 367q0 -70 20.5 -130t56 -104t82 -69t98.5 -25t93.5 19.5
t70.5 57t44.5 92t15.5 123.5q0 70 -20.5 127.5t-55.5 98t-82 63t-99 22.5q-50 0 -91 -16.5t-70.5 -50t-46 -85.5t-16.5 -123zM510 840q-11 -7 -29 -19t-38 -26.5t-41 -29.5t-38 -28q-9 -8 -19.5 -9.5t-20.5 -0.5q-6 0 -12 2.5t-9.5 6t-3.5 8t5 9.5q31 28 59 56.5t46 47.5
q16 19 39 19q8 0 25.5 -0.5t22.5 -0.5q7 0 13 -3.5t8.5 -9t1 -11.5t-8.5 -11z" />
    <glyph glyph-name="Ocircumflex" unicode="&#xd4;" horiz-adv-x="802" 
d="M55 346q0 72 26 134.5t72 109t109.5 73t138.5 26.5q78 0 142 -25t109.5 -70.5t70.5 -108.5t25 -139q0 -73 -26 -138t-72.5 -113.5t-110 -76.5t-138.5 -28q-79 0 -143 27t-109 74.5t-69.5 112.5t-24.5 142zM161 367q0 -70 20.5 -130t56 -104t82 -69t98.5 -25t93.5 19.5
t70.5 57t44.5 92t15.5 123.5q0 70 -20.5 127.5t-55.5 98t-82 63t-99 22.5q-50 0 -91 -16.5t-70.5 -50t-46 -85.5t-16.5 -123zM302 733q-8 -7 -19.5 -7.5t-19.5 2.5q-11 5 -14 12t8 16q40 36 65 62.5t51 52.5q15 14 33 13t29 -13q12 -13 24 -25.5t25.5 -26t29.5 -29t37 -33.5
q18 -18 -6 -29q-8 -3 -19 -2.5t-21 7.5q-16 14 -36.5 28.5t-40.5 29.5q-23 15 -47 0q-20 -15 -41 -30t-38 -28z" />
    <glyph glyph-name="Otilde" unicode="&#xd5;" horiz-adv-x="802" 
d="M55 346q0 72 26 134.5t72 109t109.5 73t138.5 26.5q78 0 142 -25t109.5 -70.5t70.5 -108.5t25 -139q0 -73 -26 -138t-72.5 -113.5t-110 -76.5t-138.5 -28q-79 0 -143 27t-109 74.5t-69.5 112.5t-24.5 142zM161 367q0 -70 20.5 -130t56 -104t82 -69t98.5 -25t93.5 19.5
t70.5 57t44.5 92t15.5 123.5q0 70 -20.5 127.5t-55.5 98t-82 63t-99 22.5q-50 0 -91 -16.5t-70.5 -50t-46 -85.5t-16.5 -123zM314 877q25 1 46.5 -11t41 -26.5t38 -26.5t37.5 -12t29.5 13.5t19.5 37.5q3 10 10 12.5t14.5 0.5t13 -7.5t5.5 -12.5q0 -9 -5 -28t-17 -38t-32 -33
t-50 -14q-26 0 -47.5 12.5t-40 27t-34.5 27t-31 12.5q-20 0 -27 -13.5t-15 -32.5q-5 -9 -12.5 -10.5t-14.5 2t-11.5 10t-3.5 14.5q1 9 6 24.5t15.5 31.5t26.5 27.5t38 12.5z" />
    <glyph glyph-name="Odieresis" unicode="&#xd6;" horiz-adv-x="802" 
d="M55 346q0 72 26 134.5t72 109t109.5 73t138.5 26.5q78 0 142 -25t109.5 -70.5t70.5 -108.5t25 -139q0 -73 -26 -138t-72.5 -113.5t-110 -76.5t-138.5 -28q-79 0 -143 27t-109 74.5t-69.5 112.5t-24.5 142zM161 367q0 -70 20.5 -130t56 -104t82 -69t98.5 -25t93.5 19.5
t70.5 57t44.5 92t15.5 123.5q0 70 -20.5 127.5t-55.5 98t-82 63t-99 22.5q-50 0 -91 -16.5t-70.5 -50t-46 -85.5t-16.5 -123zM292 745q-8 0 -18 2.5t-19 8.5t-15.5 16t-6.5 26q0 6 2.5 14.5t9.5 17t18.5 14t28.5 5.5q20 0 36.5 -15t16.5 -40q0 -23 -16 -36t-37 -13zM529 745
q-8 0 -18 2.5t-19 8.5t-15 16t-6 26q0 6 2.5 14.5t9 17t17.5 14t29 5.5q20 0 36 -15t16 -40q0 -23 -15.5 -36t-36.5 -13z" />
    <glyph glyph-name="multiply" unicode="&#xd7;" horiz-adv-x="600" 
d="M439 384q-3 -2 -12.5 -10.5t-22.5 -21t-28.5 -27t-31.5 -29.5q-11 -11 -8.5 -15t8.5 -11q12 -12 25.5 -24t26 -23t22 -19t14.5 -12q16 -10 16 -26q0 -10 -6.5 -17t-17.5 -7q-6 0 -13.5 2.5t-15.5 10.5q-15 14 -39.5 37t-45.5 44q-8 11 -13 9.5t-16 -10.5
q-10 -10 -22 -22.5t-23.5 -24.5t-21 -22t-13.5 -14q-7 -7 -16 -7q-11 0 -20.5 9t-9.5 20q0 9 7 17q5 6 15 15t21 19.5t22 20.5t19 18q18 16 14.5 24t-14.5 17q-7 6 -16.5 15t-19.5 18.5t-19.5 18.5t-16.5 15q-16 13 -16 24t10 17t21 6q10 0 18 -6l10 -10t18.5 -19
t23.5 -23.5t25 -23.5q14 -13 21.5 -10.5t15.5 10.5q17 18 40.5 40.5t40.5 39.5q8 9 20 9t21.5 -9.5t9.5 -19.5q0 -9 -7 -13z" />
    <glyph glyph-name="Oslash" unicode="&#xd8;" horiz-adv-x="802" 
d="M55 346q0 72 26 134.5t72 109t109.5 73t138.5 26.5q31 0 60.5 -3.5t55.5 -13.5q23 -8 31.5 -4.5t18.5 20.5l6 11q8 15 20 18t22 -0.5t15 -13t-2 -19.5l-14 -21q-6 -9 -8.5 -14.5t-0.5 -10.5t8.5 -11t18.5 -16q55 -45 85.5 -112.5t30.5 -152.5q0 -73 -26 -138
t-72.5 -113.5t-110 -76.5t-138.5 -28q-36 0 -68 6t-61 16q-11 3 -18 5.5t-11.5 2.5t-8 -3.5t-7.5 -11.5q-10 -19 -20.5 -31t-29.5 -2q-19 9 -14.5 23t16.5 31q13 18 9 25.5t-22 24.5q-53 49 -82 117.5t-29 152.5zM529 530q-53 -91 -111.5 -193t-113.5 -199
q-18 -31 -16.5 -44.5t27.5 -27.5q48 -27 103 -27q52 0 93.5 19.5t70.5 57t44.5 92t15.5 123.5q0 121 -57 201q-11 15 -18.5 21t-14 4.5t-12 -8.5t-11.5 -19zM161 367q0 -58 13.5 -110t39.5 -94q17 -26 30 -21t31 32q59 91 114 188.5t112 203.5q10 20 6.5 31.5t-22.5 21.5
q-48 23 -100 23q-50 0 -91 -16.5t-70.5 -50t-46 -85.5t-16.5 -123z" />
    <glyph glyph-name="Ugrave" unicode="&#xd9;" horiz-adv-x="744" 
d="M566 282q2 81 1 164.5t-1 166.5q0 17 -13.5 23t-54.5 1q-13 -2 -19.5 5.5t-6.5 16.5q0 8 6 15t19 6q31 -3 55.5 -3.5t46 0t41.5 2t43 2.5q17 1 24.5 -6t7.5 -15q0 -9 -6.5 -16.5t-16.5 -6.5q-27 4 -44.5 0t-20.5 -21q-3 -50 -3.5 -91t0 -79.5t1 -78.5t0.5 -86
q-1 -61 -13 -114t-41 -92.5t-79 -62t-126 -22.5q-57 0 -102.5 16t-77 51t-49 92t-18.5 139q-1 50 -1 88.5v74.5t0.5 74t0.5 88q0 14 -12 20.5t-53 4.5q-11 -1 -17 6.5t-6 15.5q0 9 6 16t20 5q25 -3 54 -3.5t57.5 0t54 1.5t43.5 2q17 1 25 -6t8 -15q0 -9 -7.5 -16.5
t-19.5 -5.5q-55 9 -61 -26q-1 -35 -1.5 -77.5t-0.5 -86v-85t1 -74.5q1 -47 8.5 -89.5t27.5 -75t55.5 -52t93.5 -19.5q40 0 71.5 12t53 39t33 71t13.5 107zM260 840q-8 5 -10 11t1 11.5t8.5 9t12.5 3.5h8.5t14 0.5t15 0.5h11.5q12 0 21 -4.5t19 -14.5q17 -19 45.5 -47.5
t58.5 -56.5q10 -9 1.5 -17.5t-22.5 -8.5q-9 -1 -19.5 0.5t-20.5 9.5q-16 13 -36.5 28t-41 29.5t-38.5 26.5t-28 19z" />
    <glyph glyph-name="Uacute" unicode="&#xda;" horiz-adv-x="744" 
d="M566 282q2 81 1 164.5t-1 166.5q0 17 -13.5 23t-54.5 1q-13 -2 -19.5 5.5t-6.5 16.5q0 8 6 15t19 6q31 -3 55.5 -3.5t46 0t41.5 2t43 2.5q17 1 24.5 -6t7.5 -15q0 -9 -6.5 -16.5t-16.5 -6.5q-27 4 -44.5 0t-20.5 -21q-3 -50 -3.5 -91t0 -79.5t1 -78.5t0.5 -86
q-1 -61 -13 -114t-41 -92.5t-79 -62t-126 -22.5q-57 0 -102.5 16t-77 51t-49 92t-18.5 139q-1 50 -1 88.5v74.5t0.5 74t0.5 88q0 14 -12 20.5t-53 4.5q-11 -1 -17 6.5t-6 15.5q0 9 6 16t20 5q25 -3 54 -3.5t57.5 0t54 1.5t43.5 2q17 1 25 -6t8 -15q0 -9 -7.5 -16.5
t-19.5 -5.5q-55 9 -61 -26q-1 -35 -1.5 -77.5t-0.5 -86v-85t1 -74.5q1 -47 8.5 -89.5t27.5 -75t55.5 -52t93.5 -19.5q40 0 71.5 12t53 39t33 71t13.5 107zM490 840q-11 -7 -29 -19t-38 -26.5t-41 -29.5t-38 -28q-9 -8 -19.5 -9.5t-20.5 -0.5q-6 0 -12 2.5t-9.5 6t-3.5 8
t5 9.5q31 28 59 56.5t46 47.5q16 19 39 19q8 0 25.5 -0.5t22.5 -0.5q7 0 13 -3.5t8.5 -9t1 -11.5t-8.5 -11z" />
    <glyph glyph-name="Ucircumflex" unicode="&#xdb;" horiz-adv-x="744" 
d="M566 282q2 81 1 164.5t-1 166.5q0 17 -13.5 23t-54.5 1q-13 -2 -19.5 5.5t-6.5 16.5q0 8 6 15t19 6q31 -3 55.5 -3.5t46 0t41.5 2t43 2.5q17 1 24.5 -6t7.5 -15q0 -9 -6.5 -16.5t-16.5 -6.5q-27 4 -44.5 0t-20.5 -21q-3 -50 -3.5 -91t0 -79.5t1 -78.5t0.5 -86
q-1 -61 -13 -114t-41 -92.5t-79 -62t-126 -22.5q-57 0 -102.5 16t-77 51t-49 92t-18.5 139q-1 50 -1 88.5v74.5t0.5 74t0.5 88q0 14 -12 20.5t-53 4.5q-11 -1 -17 6.5t-6 15.5q0 9 6 16t20 5q25 -3 54 -3.5t57.5 0t54 1.5t43.5 2q17 1 25 -6t8 -15q0 -9 -7.5 -16.5
t-19.5 -5.5q-55 9 -61 -26q-1 -35 -1.5 -77.5t-0.5 -86v-85t1 -74.5q1 -47 8.5 -89.5t27.5 -75t55.5 -52t93.5 -19.5q40 0 71.5 12t53 39t33 71t13.5 107zM283 733q-8 -7 -19.5 -7.5t-19.5 2.5q-11 5 -14 12t8 16q40 36 65 62.5t51 52.5q15 14 33 13t29 -13q12 -13 24 -25.5
t25.5 -26t29.5 -29t37 -33.5q18 -18 -6 -29q-8 -3 -19 -2.5t-21 7.5q-16 14 -36.5 28.5t-40.5 29.5q-23 15 -47 0q-20 -15 -41 -30t-38 -28z" />
    <glyph glyph-name="Udieresis" unicode="&#xdc;" horiz-adv-x="744" 
d="M566 282q2 81 1 164.5t-1 166.5q0 17 -13.5 23t-54.5 1q-13 -2 -19.5 5.5t-6.5 16.5q0 8 6 15t19 6q31 -3 55.5 -3.5t46 0t41.5 2t43 2.5q17 1 24.5 -6t7.5 -15q0 -9 -6.5 -16.5t-16.5 -6.5q-27 4 -44.5 0t-20.5 -21q-3 -50 -3.5 -91t0 -79.5t1 -78.5t0.5 -86
q-1 -61 -13 -114t-41 -92.5t-79 -62t-126 -22.5q-57 0 -102.5 16t-77 51t-49 92t-18.5 139q-1 50 -1 88.5v74.5t0.5 74t0.5 88q0 14 -12 20.5t-53 4.5q-11 -1 -17 6.5t-6 15.5q0 9 6 16t20 5q25 -3 54 -3.5t57.5 0t54 1.5t43.5 2q17 1 25 -6t8 -15q0 -9 -7.5 -16.5
t-19.5 -5.5q-55 9 -61 -26q-1 -35 -1.5 -77.5t-0.5 -86v-85t1 -74.5q1 -47 8.5 -89.5t27.5 -75t55.5 -52t93.5 -19.5q40 0 71.5 12t53 39t33 71t13.5 107zM272 745q-8 0 -18 2.5t-19 8.5t-15.5 16t-6.5 26q0 6 2.5 14.5t9.5 17t18.5 14t28.5 5.5q20 0 36.5 -15t16.5 -40
q0 -23 -16 -36t-37 -13zM509 745q-8 0 -18 2.5t-19 8.5t-15 16t-6 26q0 6 2.5 14.5t9 17t17.5 14t29 5.5q20 0 36 -15t16 -40q0 -23 -15.5 -36t-36.5 -13z" />
    <glyph glyph-name="Yacute" unicode="&#xdd;" horiz-adv-x="645" 
d="M366 300q-2 -6 -3 -20t-1 -34q0 -19 0.5 -42t1.5 -46t2.5 -45t2.5 -40q2 -21 21 -26t53 0q14 2 20.5 -5.5t6.5 -17.5t-7 -18.5t-20 -7.5q-55 4 -117.5 4.5t-127.5 -5.5q-15 -2 -22 7t-7 20q0 10 5 17t16 6q10 -1 23 -2.5t25 -0.5t20.5 6t10.5 18q3 20 4.5 57.5t1.5 75.5
q0 41 -1.5 73t-4.5 39q-18 36 -43.5 80.5t-52 87.5t-51.5 80t-42 59q-5 6 -9.5 10.5t-10 6.5t-13 2.5t-19.5 -1.5q-11 -2 -17.5 5.5t-6.5 16.5q0 8 6 15t18 6q51 -5 109 -3.5t105 4.5q17 1 24.5 -5.5t7.5 -14.5q0 -10 -7.5 -18t-18.5 -7q-33 5 -44.5 -9.5t-0.5 -33.5
q23 -45 52.5 -101t72.5 -113q6 -8 13 -6.5t12 6.5q15 19 35 48.5t40 60.5t37 59t25 44q4 9 3 19t-8 17.5t-20.5 10.5t-33.5 -1q-12 -2 -19.5 6t-7.5 18q0 8 5.5 13.5t16.5 5.5q32 -1 57 -2t48.5 -1.5t48 0t54.5 3.5q16 1 22.5 -5.5t6.5 -14.5q0 -9 -6.5 -16.5t-17.5 -6.5
q-32 2 -46.5 -8.5t-25.5 -25.5q-12 -14 -30.5 -38.5t-39.5 -54t-43 -62t-40.5 -62t-31 -52.5t-16.5 -35zM441 840q-11 -7 -29 -19t-38 -26.5t-41 -29.5t-38 -28q-9 -8 -19.5 -9.5t-20.5 -0.5q-6 0 -12 2.5t-9.5 6t-3.5 8t5 9.5q31 28 59 56.5t46 47.5q16 19 39 19
q8 0 25.5 -0.5t22.5 -0.5q7 0 13 -3.5t8.5 -9t1 -11.5t-8.5 -11z" />
    <glyph glyph-name="Thorn" unicode="&#xde;" horiz-adv-x="586" 
d="M63 46q10 -1 22 -2.5t22.5 0t19 7t10.5 18.5q2 14 3.5 58.5t2.5 103.5t1 124.5t-0.5 121.5t-1.5 95t-3 45q-5 14 -24 20.5t-42 1.5q-11 -2 -16.5 4.5t-5.5 14.5q0 9 6 17t20 6q36 -3 64.5 -3.5t53 -0.5t46.5 1t45 3q18 1 26 -6t8 -15q0 -9 -7 -16.5t-17 -5.5
q-29 3 -44 -1t-20 -21q-2 -6 -2 -23q0 -20 7.5 -27t19.5 -7q19 0 32.5 0.5t29.5 0.5q36 0 76.5 -11t74 -35.5t56 -62.5t22.5 -92q0 -64 -21.5 -107t-55.5 -68.5t-76.5 -36.5t-83.5 -11q-20 0 -20 22q1 9 7 14.5t20 5.5q32 0 57 14t42 37t25.5 52t8.5 59q0 27 -6.5 60
t-26.5 61.5t-57 46t-98 11.5q-16 -2 -26 -11t-10 -32q0 -65 0.5 -130.5t1.5 -121t3 -97t4 -57.5q3 -20 20 -23t52 -1q14 1 20.5 -6.5t6.5 -16.5q0 -10 -7 -18t-20 -7q-57 3 -114 4t-124 -4q-15 -2 -22 7t-7 19q0 9 5.5 16t16.5 6z" />
    <glyph glyph-name="germandbls" unicode="&#xdf;" horiz-adv-x="594" 
d="M196 423q-4 -88 -4 -176t8 -179q1 -8 1.5 -12.5t5 -7t15 -3t30.5 -0.5q11 0 15.5 -6.5t4.5 -14.5q0 -10 -6.5 -18t-18.5 -8q-23 0 -43.5 2t-44.5 2q-20 0 -40.5 -1.5t-50.5 -2.5q-13 -1 -19.5 7t-6.5 17q0 8 5 15t16 8q36 0 45.5 6.5t10.5 24.5q4 77 5.5 153.5
t-3.5 156.5q-1 17 -8.5 25.5t-26.5 8.5q-7 0 -13.5 -0.5t-12.5 -0.5q-14 0 -20.5 6.5t-6.5 17.5t7 19t19 8q23 0 38.5 17.5t26 41t18 47.5t14.5 38q12 25 31 48.5t44.5 42.5t58 30.5t71.5 11.5t68 -10.5t48.5 -28.5t29 -42t9.5 -50q0 -38 -23 -70t-51 -59t-51 -50.5
t-23 -45.5q0 -15 9.5 -30t24.5 -30t34 -30l38 -30q16 -12 32.5 -27t30 -33t22 -39.5t8.5 -46.5q0 -30 -14.5 -55t-37.5 -43t-51.5 -27.5t-57.5 -9.5q-42 0 -71.5 15t-29.5 50q0 11 7 22t28 11q12 0 20 -8.5t15.5 -18t18.5 -18t29 -8.5q23 0 43.5 15t20.5 46q0 19 -7.5 35
t-19.5 30.5t-27 28t-29 27.5q-29 28 -50 47.5t-35 35.5t-21 30.5t-7 32.5q0 31 21.5 56.5t47.5 51t47.5 55t21.5 68.5q0 45 -22.5 74.5t-76.5 29.5q-35 0 -59.5 -20t-40 -56t-23.5 -87t-11 -112z" />
    <glyph glyph-name="agrave" unicode="&#xe0;" horiz-adv-x="472" 
d="M98 287q-17 0 -30 16t-13 33q0 27 20 51t50.5 42t66 29t67.5 11q64 0 92 -38.5t28 -123.5q0 -38 -2.5 -76.5t-2.5 -80.5q0 -18 1 -36t6 -31.5t16 -20t31 -1.5q9 4 15 -4.5t6 -18.5q0 -6 -2.5 -11.5t-8.5 -7.5l-24 -8t-29.5 -9.5t-25.5 -8t-13 -3.5q-7 0 -17.5 11
t-19.5 29q-5 13 -19 1q-6 -6 -16.5 -13t-24 -13t-29.5 -10.5t-33 -4.5q-39 0 -66.5 11t-44 29t-24 39.5t-7.5 42.5q0 27 16 47t40.5 34.5t54 24t57 16.5t49 12t29.5 11t11 13.5t3 18.5q0 36 -5.5 59.5t-15.5 37.5t-24.5 19.5t-32.5 5.5q-24 0 -47.5 -5.5t-37.5 -17.5
q-5 -4 -5.5 -11.5t0.5 -16.5t3 -17.5t2 -13.5q0 -17 -10.5 -29.5t-33.5 -12.5zM293 206q-3 3 -14 1q-16 -2 -41.5 -8.5t-50 -18t-42 -28t-17.5 -38.5q0 -11 4 -23t13 -22t24 -17t37 -7q24 0 41.5 11t29.5 29t18 40.5t6 46.5q0 11 -1.5 20.5t-6.5 13.5zM148 684
q-13 14 -7 24.5t20 10.5q4 0 18 0.5t26 0.5q8 0 14 -3.5t11 -15.5q11 -24 30.5 -61.5t43.5 -76.5q6 -10 3 -17.5t-11 -11t-17.5 -2.5t-15.5 7q-15 22 -32 44t-33 41.5t-29.5 35t-20.5 24.5z" />
    <glyph glyph-name="aacute" unicode="&#xe1;" horiz-adv-x="472" 
d="M98 287q-17 0 -30 16t-13 33q0 27 20 51t50.5 42t66 29t67.5 11q64 0 92 -38.5t28 -123.5q0 -38 -2.5 -76.5t-2.5 -80.5q0 -18 1 -36t6 -31.5t16 -20t31 -1.5q9 4 15 -4.5t6 -18.5q0 -6 -2.5 -11.5t-8.5 -7.5l-24 -8t-29.5 -9.5t-25.5 -8t-13 -3.5q-7 0 -17.5 11
t-19.5 29q-5 13 -19 1q-6 -6 -16.5 -13t-24 -13t-29.5 -10.5t-33 -4.5q-39 0 -66.5 11t-44 29t-24 39.5t-7.5 42.5q0 27 16 47t40.5 34.5t54 24t57 16.5t49 12t29.5 11t11 13.5t3 18.5q0 36 -5.5 59.5t-15.5 37.5t-24.5 19.5t-32.5 5.5q-24 0 -47.5 -5.5t-37.5 -17.5
q-5 -4 -5.5 -11.5t0.5 -16.5t3 -17.5t2 -13.5q0 -17 -10.5 -29.5t-33.5 -12.5zM293 206q-3 3 -14 1q-16 -2 -41.5 -8.5t-50 -18t-42 -28t-17.5 -38.5q0 -11 4 -23t13 -22t24 -17t37 -7q24 0 41.5 11t29.5 29t18 40.5t6 46.5q0 11 -1.5 20.5t-6.5 13.5zM320 684
q-7 -9 -20.5 -24.5t-29.5 -35t-33 -41.5t-32 -44q-6 -6 -15.5 -7t-17.5 2.5t-11 11t3 17.5q24 39 43.5 76.5t30.5 61.5q5 12 11 15.5t14 3.5q12 0 26 -0.5t19 -0.5q14 0 19.5 -10.5t-7.5 -24.5z" />
    <glyph glyph-name="acircumflex" unicode="&#xe2;" horiz-adv-x="472" 
d="M98 287q-17 0 -30 16t-13 33q0 27 20 51t50.5 42t66 29t67.5 11q64 0 92 -38.5t28 -123.5q0 -38 -2.5 -76.5t-2.5 -80.5q0 -18 1 -36t6 -31.5t16 -20t31 -1.5q9 4 15 -4.5t6 -18.5q0 -6 -2.5 -11.5t-8.5 -7.5l-24 -8t-29.5 -9.5t-25.5 -8t-13 -3.5q-7 0 -17.5 11
t-19.5 29q-5 13 -19 1q-6 -6 -16.5 -13t-24 -13t-29.5 -10.5t-33 -4.5q-39 0 -66.5 11t-44 29t-24 39.5t-7.5 42.5q0 27 16 47t40.5 34.5t54 24t57 16.5t49 12t29.5 11t11 13.5t3 18.5q0 36 -5.5 59.5t-15.5 37.5t-24.5 19.5t-32.5 5.5q-24 0 -47.5 -5.5t-37.5 -17.5
q-5 -4 -5.5 -11.5t0.5 -16.5t3 -17.5t2 -13.5q0 -17 -10.5 -29.5t-33.5 -12.5zM293 206q-3 3 -14 1q-16 -2 -41.5 -8.5t-50 -18t-42 -28t-17.5 -38.5q0 -11 4 -23t13 -22t24 -17t37 -7q24 0 41.5 11t29.5 29t18 40.5t6 46.5q0 11 -1.5 20.5t-6.5 13.5zM315 542
q-18 21 -36.5 42t-32.5 35q-11 10 -19 0q-15 -14 -32.5 -35t-36.5 -42q-6 -6 -15.5 -7t-17.5 3t-11.5 11.5t3.5 16.5q9 12 22 31t26.5 39.5t26 39.5t19.5 33q4 6 11 9.5t15 3.5t15 -3t10 -9q9 -17 21 -37t25 -39.5t25.5 -37.5t22.5 -30q7 -9 3.5 -16.5t-12 -11.5t-18 -3
t-14.5 7z" />
    <glyph glyph-name="atilde" unicode="&#xe3;" horiz-adv-x="472" 
d="M98 287q-17 0 -30 16t-13 33q0 27 20 51t50.5 42t66 29t67.5 11q64 0 92 -38.5t28 -123.5q0 -38 -2.5 -76.5t-2.5 -80.5q0 -18 1 -36t6 -31.5t16 -20t31 -1.5q9 4 15 -4.5t6 -18.5q0 -6 -2.5 -11.5t-8.5 -7.5l-24 -8t-29.5 -9.5t-25.5 -8t-13 -3.5q-7 0 -17.5 11
t-19.5 29q-5 13 -19 1q-6 -6 -16.5 -13t-24 -13t-29.5 -10.5t-33 -4.5q-39 0 -66.5 11t-44 29t-24 39.5t-7.5 42.5q0 27 16 47t40.5 34.5t54 24t57 16.5t49 12t29.5 11t11 13.5t3 18.5q0 36 -5.5 59.5t-15.5 37.5t-24.5 19.5t-32.5 5.5q-24 0 -47.5 -5.5t-37.5 -17.5
q-5 -4 -5.5 -11.5t0.5 -16.5t3 -17.5t2 -13.5q0 -17 -10.5 -29.5t-33.5 -12.5zM293 206q-3 3 -14 1q-16 -2 -41.5 -8.5t-50 -18t-42 -28t-17.5 -38.5q0 -11 4 -23t13 -22t24 -17t37 -7q24 0 41.5 11t29.5 29t18 40.5t6 46.5q0 11 -1.5 20.5t-6.5 13.5zM155 698
q23 1 42.5 -11t37 -26.5t34 -27t33.5 -12.5t27 13.5t18 37.5q3 10 9 13t13 1t12 -8t5 -13q0 -10 -4.5 -29t-15.5 -38t-29.5 -33t-45.5 -14q-24 0 -43.5 12.5t-36 27.5t-31 27.5t-27.5 12.5q-18 0 -24 -12.5t-12 -31.5q-3 -9 -9.5 -11.5t-13.5 0t-12 8.5t-5 14q0 9 4.5 25.5
t14 33t24 28.5t35.5 13z" />
    <glyph glyph-name="adieresis" unicode="&#xe4;" horiz-adv-x="472" 
d="M98 287q-17 0 -30 16t-13 33q0 27 20 51t50.5 42t66 29t67.5 11q64 0 92 -38.5t28 -123.5q0 -38 -2.5 -76.5t-2.5 -80.5q0 -18 1 -36t6 -31.5t16 -20t31 -1.5q9 4 15 -4.5t6 -18.5q0 -6 -2.5 -11.5t-8.5 -7.5l-24 -8t-29.5 -9.5t-25.5 -8t-13 -3.5q-7 0 -17.5 11
t-19.5 29q-5 13 -19 1q-6 -6 -16.5 -13t-24 -13t-29.5 -10.5t-33 -4.5q-39 0 -66.5 11t-44 29t-24 39.5t-7.5 42.5q0 27 16 47t40.5 34.5t54 24t57 16.5t49 12t29.5 11t11 13.5t3 18.5q0 36 -5.5 59.5t-15.5 37.5t-24.5 19.5t-32.5 5.5q-24 0 -47.5 -5.5t-37.5 -17.5
q-5 -4 -5.5 -11.5t0.5 -16.5t3 -17.5t2 -13.5q0 -17 -10.5 -29.5t-33.5 -12.5zM293 206q-3 3 -14 1q-16 -2 -41.5 -8.5t-50 -18t-42 -28t-17.5 -38.5q0 -11 4 -23t13 -22t24 -17t37 -7q24 0 41.5 11t29.5 29t18 40.5t6 46.5q0 11 -1.5 20.5t-6.5 13.5zM152 566q-8 0 -18 2
t-19 8t-15.5 16.5t-6.5 26.5q0 6 2.5 14.5t9.5 16.5t18.5 13.5t28.5 5.5q20 0 36.5 -14.5t16.5 -39.5q0 -23 -16 -36t-37 -13zM340 566q-8 0 -18.5 2t-19.5 8t-15.5 16.5t-6.5 26.5q0 6 2.5 14.5t9.5 16.5t18.5 13.5t29.5 5.5q20 0 35.5 -14.5t15.5 -39.5q0 -23 -15 -36
t-36 -13z" />
    <glyph glyph-name="aring" unicode="&#xe5;" horiz-adv-x="472" 
d="M98 287q-17 0 -30 16t-13 33q0 27 20 51t50.5 42t66 29t67.5 11q64 0 92 -38.5t28 -123.5q0 -38 -2.5 -76.5t-2.5 -80.5q0 -18 1 -36t6 -31.5t16 -20t31 -1.5q9 4 15 -4.5t6 -18.5q0 -6 -2.5 -11.5t-8.5 -7.5l-24 -8t-29.5 -9.5t-25.5 -8t-13 -3.5q-7 0 -17.5 11
t-19.5 29q-5 13 -19 1q-6 -6 -16.5 -13t-24 -13t-29.5 -10.5t-33 -4.5q-39 0 -66.5 11t-44 29t-24 39.5t-7.5 42.5q0 27 16 47t40.5 34.5t54 24t57 16.5t49 12t29.5 11t11 13.5t3 18.5q0 36 -5.5 59.5t-15.5 37.5t-24.5 19.5t-32.5 5.5q-24 0 -47.5 -5.5t-37.5 -17.5
q-5 -4 -5.5 -11.5t0.5 -16.5t3 -17.5t2 -13.5q0 -17 -10.5 -29.5t-33.5 -12.5zM293 206q-3 3 -14 1q-16 -2 -41.5 -8.5t-50 -18t-42 -28t-17.5 -38.5q0 -11 4 -23t13 -22t24 -17t37 -7q24 0 41.5 11t29.5 29t18 40.5t6 46.5q0 11 -1.5 20.5t-6.5 13.5zM243 723q20 0 38.5 -7
t32 -19.5t21.5 -29t8 -34.5q0 -24 -8.5 -42.5t-22.5 -31t-32.5 -19t-38.5 -6.5q-44 0 -73 25t-29 70q0 21 8.5 38.5t23 30t33 19t39.5 6.5zM242 677q-22 0 -37 -13t-15 -34q0 -24 14 -37t35 -13q23 0 37.5 13t14.5 39q0 19 -14.5 32t-34.5 13z" />
    <glyph glyph-name="ae" unicode="&#xe6;" horiz-adv-x="725" 
d="M352 48q-11 11 -20 10t-21 -11q-26 -23 -57 -40t-66 -17q-45 0 -74 14.5t-45 36t-21 47t0 46.5t23.5 37.5t43.5 29t54 21t54.5 15t44 11.5t24.5 9q8 6 11 15t3 17q0 36 -5.5 59.5t-15.5 37.5t-24.5 19.5t-32.5 5.5q-24 0 -47.5 -5.5t-37.5 -17.5q-5 -4 -5.5 -11.5
t0.5 -16.5t3 -17.5t2 -13.5q0 -17 -10.5 -29.5t-33.5 -12.5q-17 0 -30 16t-13 33q0 27 20 51t50.5 42t66 29t67.5 11q73 0 97 -47q5 -8 9 -12t13 4q30 23 64.5 39t77.5 16q41 0 71 -14t50 -36.5t29.5 -50t9.5 -54.5q0 -17 -9 -30.5t-28 -15.5q-18 -2 -49.5 -2.5t-66 -1.5
t-67 -2.5t-52.5 -3.5q-16 -2 -24 -8.5t-8 -23.5q0 -39 12.5 -70.5t33.5 -54t49.5 -35t61.5 -12.5q32 0 59.5 13.5t45.5 34.5q6 7 12.5 6t11 -6t5.5 -13t-4 -16q-26 -43 -71 -62.5t-91 -19.5q-54 0 -90 16.5t-60 40.5zM294 206q-3 3 -14 1q-10 -1 -33 -6.5t-47.5 -15.5
t-44.5 -24t-24 -33q-3 -10 -1 -25t12 -28.5t27.5 -22.5t46.5 -7q39 2 59.5 32t25.5 75q2 17 0.5 33t-7.5 21zM413 304q12 -1 33 -1t44 1t44.5 2.5t35.5 4.5q17 3 19 21t-7.5 37.5t-29.5 35.5t-47 16q-23 0 -42 -9t-33 -22.5t-23 -29t-12 -27.5q-4 -14 0 -20.5t18 -8.5z" />
    <glyph glyph-name="ccedilla" unicode="&#xe7;" horiz-adv-x="462" 
d="M342 -110q0 -14 -8.5 -28t-23.5 -26t-36 -20t-46 -10q-9 -1 -14.5 3.5t-7 10.5t1 11t7.5 5q34 2 50 12.5t16 24.5q0 11 -12 19t-44 8q-14 0 -24 6t-4 21q2 8 8 19t13 24q11 19 -26 32q-33 12 -60 34t-46 51.5t-29.5 65t-10.5 74.5q0 49 16.5 93t47 77t75 52.5t100.5 19.5
q40 0 71 -10t39 -15q5 -3 7 -20t4 -36q2 -22 2 -49q0 -5 -5 -10t-11.5 -6.5t-12.5 1.5t-8 14q-2 9 -8.5 22.5t-19 27t-31.5 23t-44 9.5q-29 0 -55 -11t-46 -32t-32 -53t-12 -74q0 -38 11.5 -72t32 -59.5t50 -40t65.5 -14.5q43 0 69 16.5t38 34.5q5 9 12 10.5t13 -2t8.5 -11
t-0.5 -15.5q-16 -39 -42.5 -61.5t-56.5 -33.5q-23 -8 -37 -13.5t-20 -19.5q-5 -12 -5 -15.5t10 -5.5q71 -10 71 -58z" />
    <glyph glyph-name="egrave" unicode="&#xe8;" horiz-adv-x="474" 
d="M393 268q-18 -2 -49.5 -2.5t-66.5 -1.5t-67.5 -2.5t-51.5 -3.5q-16 -2 -24 -8.5t-8 -23.5q0 -39 12.5 -70.5t33.5 -54t49.5 -35t61.5 -12.5q32 0 59.5 13.5t45.5 34.5q6 6 12 6q10 0 15.5 -11.5t-2.5 -23.5q-13 -21 -31.5 -36.5t-40 -25.5t-45 -15t-45.5 -5q-53 0 -91 18
t-63.5 48t-37.5 69.5t-12 83.5q0 50 15.5 96.5t44 82.5t70 58t93.5 22q41 0 71 -14t50 -36.5t29.5 -50t9.5 -54.5q0 -17 -9 -30.5t-28 -15.5zM162 304q12 -1 33 -1t43.5 1t44.5 2.5t36 4.5q17 3 19 21t-7.5 37.5t-29.5 35.5t-47 16q-23 0 -42 -9t-33 -22.5t-23 -29
t-12 -27.5q-4 -14 0 -20.5t18 -8.5zM174 684q-13 14 -7 24.5t20 10.5q4 0 18 0.5t26 0.5q8 0 14 -3.5t11 -15.5q11 -24 30.5 -61.5t43.5 -76.5q6 -10 3 -17.5t-11 -11t-17.5 -2.5t-15.5 7q-15 22 -32 44t-33 41.5t-29.5 35t-20.5 24.5z" />
    <glyph glyph-name="eacute" unicode="&#xe9;" horiz-adv-x="474" 
d="M393 268q-18 -2 -49.5 -2.5t-66.5 -1.5t-67.5 -2.5t-51.5 -3.5q-16 -2 -24 -8.5t-8 -23.5q0 -39 12.5 -70.5t33.5 -54t49.5 -35t61.5 -12.5q32 0 59.5 13.5t45.5 34.5q6 6 12 6q10 0 15.5 -11.5t-2.5 -23.5q-13 -21 -31.5 -36.5t-40 -25.5t-45 -15t-45.5 -5q-53 0 -91 18
t-63.5 48t-37.5 69.5t-12 83.5q0 50 15.5 96.5t44 82.5t70 58t93.5 22q41 0 71 -14t50 -36.5t29.5 -50t9.5 -54.5q0 -17 -9 -30.5t-28 -15.5zM162 304q12 -1 33 -1t43.5 1t44.5 2.5t36 4.5q17 3 19 21t-7.5 37.5t-29.5 35.5t-47 16q-23 0 -42 -9t-33 -22.5t-23 -29
t-12 -27.5q-4 -14 0 -20.5t18 -8.5zM344 684q-7 -9 -20.5 -24.5t-29.5 -35t-33 -41.5t-32 -44q-6 -6 -15.5 -7t-17.5 2.5t-11 11t3 17.5q24 39 43.5 76.5t30.5 61.5q5 12 11 15.5t14 3.5q12 0 26 -0.5t19 -0.5q14 0 19.5 -10.5t-7.5 -24.5z" />
    <glyph glyph-name="ecircumflex" unicode="&#xea;" horiz-adv-x="474" 
d="M393 268q-18 -2 -49.5 -2.5t-66.5 -1.5t-67.5 -2.5t-51.5 -3.5q-16 -2 -24 -8.5t-8 -23.5q0 -39 12.5 -70.5t33.5 -54t49.5 -35t61.5 -12.5q32 0 59.5 13.5t45.5 34.5q6 6 12 6q10 0 15.5 -11.5t-2.5 -23.5q-13 -21 -31.5 -36.5t-40 -25.5t-45 -15t-45.5 -5q-53 0 -91 18
t-63.5 48t-37.5 69.5t-12 83.5q0 50 15.5 96.5t44 82.5t70 58t93.5 22q41 0 71 -14t50 -36.5t29.5 -50t9.5 -54.5q0 -17 -9 -30.5t-28 -15.5zM162 304q12 -1 33 -1t43.5 1t44.5 2.5t36 4.5q17 3 19 21t-7.5 37.5t-29.5 35.5t-47 16q-23 0 -42 -9t-33 -22.5t-23 -29
t-12 -27.5q-4 -14 0 -20.5t18 -8.5zM340 542q-18 21 -36.5 42t-32.5 35q-11 10 -19 0q-15 -14 -32.5 -35t-36.5 -42q-6 -6 -15.5 -7t-17.5 3t-11.5 11.5t3.5 16.5q9 12 22 31t26.5 39.5t26 39.5t19.5 33q4 6 11 9.5t15 3.5t15 -3t10 -9q9 -17 21 -37t25 -39.5t25.5 -37.5
t22.5 -30q7 -9 3.5 -16.5t-12 -11.5t-18 -3t-14.5 7z" />
    <glyph glyph-name="edieresis" unicode="&#xeb;" horiz-adv-x="474" 
d="M393 268q-18 -2 -49.5 -2.5t-66.5 -1.5t-67.5 -2.5t-51.5 -3.5q-16 -2 -24 -8.5t-8 -23.5q0 -39 12.5 -70.5t33.5 -54t49.5 -35t61.5 -12.5q32 0 59.5 13.5t45.5 34.5q6 6 12 6q10 0 15.5 -11.5t-2.5 -23.5q-13 -21 -31.5 -36.5t-40 -25.5t-45 -15t-45.5 -5q-53 0 -91 18
t-63.5 48t-37.5 69.5t-12 83.5q0 50 15.5 96.5t44 82.5t70 58t93.5 22q41 0 71 -14t50 -36.5t29.5 -50t9.5 -54.5q0 -17 -9 -30.5t-28 -15.5zM162 304q12 -1 33 -1t43.5 1t44.5 2.5t36 4.5q17 3 19 21t-7.5 37.5t-29.5 35.5t-47 16q-23 0 -42 -9t-33 -22.5t-23 -29
t-12 -27.5q-4 -14 0 -20.5t18 -8.5zM173 566q-8 0 -18 2t-19 8t-15.5 16.5t-6.5 26.5q0 6 2.5 14.5t9.5 16.5t18.5 13.5t28.5 5.5q20 0 36.5 -14.5t16.5 -39.5q0 -23 -16 -36t-37 -13zM361 566q-8 0 -18.5 2t-19.5 8t-15.5 16.5t-6.5 26.5q0 6 2.5 14.5t9.5 16.5t18.5 13.5
t29.5 5.5q20 0 35.5 -14.5t15.5 -39.5q0 -23 -15 -36t-36 -13z" />
    <glyph glyph-name="igrave" unicode="&#xec;" horiz-adv-x="313" 
d="M211 77q2 -16 13.5 -25.5t46.5 -4.5q14 1 20.5 -6.5t6 -17.5t-7 -18t-19.5 -7q-28 2 -51 3t-46.5 1t-50 -1t-59.5 -4q-14 -1 -21 7t-7.5 18t5 18t16.5 7q9 -1 18.5 -2t17.5 1.5t14 9t10 19.5q3 9 5 35.5t3 61t1 73t-1 72t-3.5 57.5t-6.5 30q-6 14 -17 13.5t-35 -3.5
q-9 -2 -15 5t-7 16t4 17.5t18 8.5q25 1 42 1.5t30.5 2t26.5 3.5t30 7q4 -1 11 -5.5t5 -18.5q-2 -21 -3 -53.5t-1.5 -70t0 -76.5t2 -73.5t2.5 -61.5t3 -39zM61 684q-13 14 -7 24.5t20 10.5q4 0 18 0.5t26 0.5q8 0 14 -3.5t11 -15.5q11 -24 30.5 -61.5t43.5 -76.5
q6 -10 3 -17.5t-11 -11t-17.5 -2.5t-15.5 7q-15 22 -32 44t-33 41.5t-29.5 35t-20.5 24.5z" />
    <glyph glyph-name="iacute" unicode="&#xed;" horiz-adv-x="313" 
d="M211 77q2 -16 13.5 -25.5t46.5 -4.5q14 1 20.5 -6.5t6 -17.5t-7 -18t-19.5 -7q-28 2 -51 3t-46.5 1t-50 -1t-59.5 -4q-14 -1 -21 7t-7.5 18t5 18t16.5 7q9 -1 18.5 -2t17.5 1.5t14 9t10 19.5q3 9 5 35.5t3 61t1 73t-1 72t-3.5 57.5t-6.5 30q-6 14 -17 13.5t-35 -3.5
q-9 -2 -15 5t-7 16t4 17.5t18 8.5q25 1 42 1.5t30.5 2t26.5 3.5t30 7q4 -1 11 -5.5t5 -18.5q-2 -21 -3 -53.5t-1.5 -70t0 -76.5t2 -73.5t2.5 -61.5t3 -39zM232 684q-7 -9 -20.5 -24.5t-29.5 -35t-33 -41.5t-32 -44q-6 -6 -15.5 -7t-17.5 2.5t-11 11t3 17.5q24 39 43.5 76.5
t30.5 61.5q5 12 11 15.5t14 3.5q12 0 26 -0.5t19 -0.5q14 0 19.5 -10.5t-7.5 -24.5z" />
    <glyph glyph-name="icircumflex" unicode="&#xee;" horiz-adv-x="313" 
d="M211 77q2 -16 13.5 -25.5t46.5 -4.5q14 1 20.5 -6.5t6 -17.5t-7 -18t-19.5 -7q-28 2 -51 3t-46.5 1t-50 -1t-59.5 -4q-14 -1 -21 7t-7.5 18t5 18t16.5 7q9 -1 18.5 -2t17.5 1.5t14 9t10 19.5q3 9 5 35.5t3 61t1 73t-1 72t-3.5 57.5t-6.5 30q-6 14 -17 13.5t-35 -3.5
q-9 -2 -15 5t-7 16t4 17.5t18 8.5q25 1 42 1.5t30.5 2t26.5 3.5t30 7q4 -1 11 -5.5t5 -18.5q-2 -21 -3 -53.5t-1.5 -70t0 -76.5t2 -73.5t2.5 -61.5t3 -39zM227 542q-18 21 -36.5 42t-32.5 35q-11 10 -19 0q-15 -14 -32.5 -35t-36.5 -42q-6 -6 -15.5 -7t-17.5 3t-11.5 11.5
t3.5 16.5q9 12 22 31t26.5 39.5t26 39.5t19.5 33q4 6 11 9.5t15 3.5t15 -3t10 -9q9 -17 21 -37t25 -39.5t25.5 -37.5t22.5 -30q7 -9 3.5 -16.5t-12 -11.5t-18 -3t-14.5 7z" />
    <glyph glyph-name="idieresis" unicode="&#xef;" horiz-adv-x="313" 
d="M211 77q2 -16 13.5 -25.5t46.5 -4.5q14 1 20.5 -6.5t6 -17.5t-7 -18t-19.5 -7q-28 2 -51 3t-46.5 1t-50 -1t-59.5 -4q-14 -1 -21 7t-7.5 18t5 18t16.5 7q9 -1 18.5 -2t17.5 1.5t14 9t10 19.5q3 9 5 35.5t3 61t1 73t-1 72t-3.5 57.5t-6.5 30q-6 14 -17 13.5t-35 -3.5
q-9 -2 -15 5t-7 16t4 17.5t18 8.5q25 1 42 1.5t30.5 2t26.5 3.5t30 7q4 -1 11 -5.5t5 -18.5q-2 -21 -3 -53.5t-1.5 -70t0 -76.5t2 -73.5t2.5 -61.5t3 -39zM61 566q-8 0 -18 2t-19 8t-15.5 16.5t-6.5 26.5q0 6 2.5 14.5t9.5 16.5t18.5 13.5t28.5 5.5q20 0 36.5 -14.5
t16.5 -39.5q0 -23 -16 -36t-37 -13zM249 566q-8 0 -18.5 2t-19.5 8t-15.5 16.5t-6.5 26.5q0 6 2.5 14.5t9.5 16.5t18.5 13.5t29.5 5.5q20 0 35.5 -14.5t15.5 -39.5q0 -23 -15 -36t-36 -13z" />
    <glyph glyph-name="eth" unicode="&#xf0;" horiz-adv-x="556" 
d="M183 609q11 5 25.5 12.5t25.5 13.5q19 13 4 26q-20 14 -41 25t-35 19q-6 3 -6.5 11t4 15t12 11.5t16.5 0.5q21 -8 46 -20.5t60 -32.5q8 -5 17 -6t23 5q8 4 18.5 10t20.5 11q11 6 23 13t23.5 3.5t17.5 -12t4 -19t-17 -17.5t-28.5 -12.5t-27.5 -13.5q-11 -6 -10 -12t7 -11
q136 -138 136 -341q0 -59 -16.5 -113t-48 -95t-76.5 -65.5t-101 -24.5q-47 0 -86 19t-67 52t-43.5 78.5t-15.5 98.5q0 52 17 94.5t45 72.5t63.5 46.5t72.5 16.5q20 0 38.5 -4t26.5 -9q13 -7 20 -18t8 -22.5t-4.5 -21t-15.5 -12.5q-16 -5 -27.5 -0.5t-22 11l-21 13t-24.5 6.5
q-42 0 -65.5 -33t-23.5 -109q0 -44 8 -84.5t25 -71.5t45 -49.5t69 -18.5q36 0 61 18t40 47.5t22 66t7 74.5q0 60 -8 110t-22.5 92t-34 77.5t-42.5 67.5q-8 10 -16.5 10t-14.5 -4q-27 -14 -43 -24t-24 -14q-13 -6 -23 -2t-14.5 12t-1.5 18t16 15z" />
    <glyph glyph-name="ntilde" unicode="&#xf1;" horiz-adv-x="611" 
d="M206 380q12 12 28.5 28t37.5 30t46.5 23.5t55.5 9.5q38 0 65 -13.5t44 -36t25 -52.5t8 -63q0 -39 -0.5 -67t-1.5 -52.5t-1.5 -49.5t-0.5 -58q0 -7 1.5 -13.5t7 -11t15.5 -7t28 -0.5q13 1 19.5 -6.5t6.5 -16.5q0 -10 -7 -18.5t-19 -7.5q-24 1 -44.5 2.5t-41 1.5
t-42.5 -0.5t-49 -3.5q-14 -2 -21.5 6.5t-7.5 19.5q0 10 5.5 17t16.5 6q20 -2 35 3.5t16 28.5q4 76 4.5 130.5t-0.5 96.5q-1 33 -9.5 54t-21 32t-27.5 15t-29 4q-25 0 -51 -12t-47 -31t-34.5 -43.5t-14.5 -49.5q-1 -31 -2 -60.5t-1 -55v-46t2 -32.5q2 -15 12 -26.5t37 -7.5
q13 2 19 -6t6 -18t-6 -18t-19 -6q-29 1 -50 2.5t-41 1.5t-41.5 -1t-51.5 -3q-14 -2 -20.5 5.5t-6.5 17.5t6.5 18.5t17.5 6.5q10 -1 20 -0.5t18 4t14 10.5t7 20t1.5 48.5t0 76t-1.5 78t-4 55.5q-5 30 -17 39.5t-33 2.5q-8 -2 -15.5 5t-7.5 17q0 13 16 20q9 3 21.5 9.5l25 13
t23.5 11t16 4.5q7 0 16.5 -17t16.5 -45q5 -16 13 -20.5t14 1.5zM236 698q23 1 42.5 -11t37 -26.5t34 -27t33.5 -12.5t27 13.5t18 37.5q3 10 9 13t13 1t12 -8t5 -13q0 -10 -4.5 -29t-15.5 -38t-29.5 -33t-45.5 -14q-24 0 -43.5 12.5t-36 27.5t-31 27.5t-27.5 12.5
q-18 0 -24 -12.5t-12 -31.5q-3 -9 -9.5 -11.5t-13.5 0t-12 8.5t-5 14q0 9 4.5 25.5t14 33t24 28.5t35.5 13z" />
    <glyph glyph-name="ograve" unicode="&#xf2;" horiz-adv-x="547" 
d="M279 470q45 0 85.5 -14t70.5 -43.5t47.5 -74.5t17.5 -106q0 -58 -17 -103t-48 -76t-73 -47t-92 -16q-47 0 -87.5 15t-70.5 44.5t-47.5 73.5t-17.5 101q0 63 18.5 109.5t50.5 76.5t74 45t89 15zM410 207q0 30 -7 68t-24 71.5t-44.5 56t-69.5 22.5q-58 0 -93 -45t-35 -130
q0 -42 11 -80t30 -67.5t45.5 -46.5t58.5 -17q38 0 62.5 14.5t39 38t20.5 53.5t6 62zM187 684q-13 14 -7 24.5t20 10.5q4 0 18 0.5t26 0.5q8 0 14 -3.5t11 -15.5q11 -24 30.5 -61.5t43.5 -76.5q6 -10 3 -17.5t-11 -11t-17.5 -2.5t-15.5 7q-15 22 -32 44t-33 41.5t-29.5 35
t-20.5 24.5z" />
    <glyph glyph-name="oacute" unicode="&#xf3;" horiz-adv-x="547" 
d="M279 470q45 0 85.5 -14t70.5 -43.5t47.5 -74.5t17.5 -106q0 -58 -17 -103t-48 -76t-73 -47t-92 -16q-47 0 -87.5 15t-70.5 44.5t-47.5 73.5t-17.5 101q0 63 18.5 109.5t50.5 76.5t74 45t89 15zM410 207q0 30 -7 68t-24 71.5t-44.5 56t-69.5 22.5q-58 0 -93 -45t-35 -130
q0 -42 11 -80t30 -67.5t45.5 -46.5t58.5 -17q38 0 62.5 14.5t39 38t20.5 53.5t6 62zM358 684q-7 -9 -20.5 -24.5t-29.5 -35t-33 -41.5t-32 -44q-6 -6 -15.5 -7t-17.5 2.5t-11 11t3 17.5q24 39 43.5 76.5t30.5 61.5q5 12 11 15.5t14 3.5q12 0 26 -0.5t19 -0.5
q14 0 19.5 -10.5t-7.5 -24.5z" />
    <glyph glyph-name="ocircumflex" unicode="&#xf4;" horiz-adv-x="547" 
d="M279 470q45 0 85.5 -14t70.5 -43.5t47.5 -74.5t17.5 -106q0 -58 -17 -103t-48 -76t-73 -47t-92 -16q-47 0 -87.5 15t-70.5 44.5t-47.5 73.5t-17.5 101q0 63 18.5 109.5t50.5 76.5t74 45t89 15zM410 207q0 30 -7 68t-24 71.5t-44.5 56t-69.5 22.5q-58 0 -93 -45t-35 -130
q0 -42 11 -80t30 -67.5t45.5 -46.5t58.5 -17q38 0 62.5 14.5t39 38t20.5 53.5t6 62zM353 542q-18 21 -36.5 42t-32.5 35q-11 10 -19 0q-15 -14 -32.5 -35t-36.5 -42q-6 -6 -15.5 -7t-17.5 3t-11.5 11.5t3.5 16.5q9 12 22 31t26.5 39.5t26 39.5t19.5 33q4 6 11 9.5t15 3.5
t15 -3t10 -9q9 -17 21 -37t25 -39.5t25.5 -37.5t22.5 -30q7 -9 3.5 -16.5t-12 -11.5t-18 -3t-14.5 7z" />
    <glyph glyph-name="otilde" unicode="&#xf5;" horiz-adv-x="547" 
d="M279 470q45 0 85.5 -14t70.5 -43.5t47.5 -74.5t17.5 -106q0 -58 -17 -103t-48 -76t-73 -47t-92 -16q-47 0 -87.5 15t-70.5 44.5t-47.5 73.5t-17.5 101q0 63 18.5 109.5t50.5 76.5t74 45t89 15zM410 207q0 30 -7 68t-24 71.5t-44.5 56t-69.5 22.5q-58 0 -93 -45t-35 -130
q0 -42 11 -80t30 -67.5t45.5 -46.5t58.5 -17q38 0 62.5 14.5t39 38t20.5 53.5t6 62zM190 698q23 1 42.5 -11t37 -26.5t34 -27t33.5 -12.5t27 13.5t18 37.5q3 10 9 13t13 1t12 -8t5 -13q0 -10 -4.5 -29t-15.5 -38t-29.5 -33t-45.5 -14q-24 0 -43.5 12.5t-36 27.5t-31 27.5
t-27.5 12.5q-18 0 -24 -12.5t-12 -31.5q-3 -9 -9.5 -11.5t-13.5 0t-12 8.5t-5 14q0 9 4.5 25.5t14 33t24 28.5t35.5 13z" />
    <glyph glyph-name="odieresis" unicode="&#xf6;" horiz-adv-x="547" 
d="M279 470q45 0 85.5 -14t70.5 -43.5t47.5 -74.5t17.5 -106q0 -58 -17 -103t-48 -76t-73 -47t-92 -16q-47 0 -87.5 15t-70.5 44.5t-47.5 73.5t-17.5 101q0 63 18.5 109.5t50.5 76.5t74 45t89 15zM410 207q0 30 -7 68t-24 71.5t-44.5 56t-69.5 22.5q-58 0 -93 -45t-35 -130
q0 -42 11 -80t30 -67.5t45.5 -46.5t58.5 -17q38 0 62.5 14.5t39 38t20.5 53.5t6 62zM187 566q-8 0 -18 2t-19 8t-15.5 16.5t-6.5 26.5q0 6 2.5 14.5t9.5 16.5t18.5 13.5t28.5 5.5q20 0 36.5 -14.5t16.5 -39.5q0 -23 -16 -36t-37 -13zM375 566q-8 0 -18.5 2t-19.5 8
t-15.5 16.5t-6.5 26.5q0 6 2.5 14.5t9.5 16.5t18.5 13.5t29.5 5.5q20 0 35.5 -14.5t15.5 -39.5q0 -23 -15 -36t-36 -13z" />
    <glyph glyph-name="divide" unicode="&#xf7;" horiz-adv-x="600" 
d="M130 306q6 0 29.5 0.5t56 0.5t70 1t72.5 2t63 3.5t41 5.5q12 3 21 -6.5t11 -22.5t-5 -24t-28 -11q-37 0 -87 -1.5t-99 -3t-88 -3.5t-53 -3q-14 -2 -21 7t-7.5 21t5.5 22.5t19 11.5zM301 367q-8 0 -18 2t-19 8t-15 16.5t-6 26.5q0 6 2.5 14.5t9 16.5t18 13.5t28.5 5.5
q20 0 36.5 -14.5t16.5 -39.5q0 -23 -15.5 -36t-37.5 -13zM301 89q-8 0 -18 2.5t-19 8.5t-15 16.5t-6 26.5q0 6 2.5 14.5t9 16.5t18 13.5t28.5 5.5q20 0 36.5 -14.5t16.5 -39.5q0 -23 -15.5 -36.5t-37.5 -13.5z" />
    <glyph glyph-name="oslash" unicode="&#xf8;" horiz-adv-x="547" 
d="M177 -18q-9 -21 -19 -33.5t-32 -7.5q-18 4 -13 19.5t16 33.5q7 11 8 22t-14 23q-35 29 -55.5 75.5t-20.5 109.5t18.5 109.5t50.5 76.5t74 45t89 15q22 0 45 -3q7 -1 11.5 -2t8.5 1t7.5 7t8.5 16l5 12q6 15 17.5 20t21.5 2t15 -12.5t-1 -21.5l-13 -23q-6 -13 -3.5 -21
t16.5 -18q38 -28 60 -77t22 -118q0 -58 -17 -103t-48 -76t-73 -47t-92 -16q-14 0 -27 2t-27 4q-20 4 -27 0.5t-12 -14.5zM410 220q-2 39 -10.5 73t-22.5 57q-7 14 -14 15t-18 -22q-14 -29 -29.5 -61.5t-31 -65.5t-30.5 -65.5t-27 -61.5q-8 -17 -4 -26t13 -14q23 -10 46 -10
q40 0 65.5 16t39.5 41.5t19 58t4 65.5zM137 235q2 -32 9 -61.5t21 -53.5q6 -10 12 -12.5t14 11.5l25 50t30.5 64t31.5 69.5t28 66.5q8 18 8.5 31.5t-14.5 18.5q-18 6 -37 6q-60 0 -96 -49t-32 -141z" />
    <glyph glyph-name="ugrave" unicode="&#xf9;" horiz-adv-x="575" 
d="M174 465q11 -14 9 -42.5t-3 -63.5q0 -12 -1 -41t-1.5 -62t-0.5 -63v-43q3 -51 23 -72.5t58 -21.5q21 0 42.5 8.5t40.5 25t31.5 40.5t15.5 56q2 21 3 46.5t1 50t0.5 45.5t0.5 34q1 29 -12.5 43t-47.5 11q-14 -1 -20.5 5.5t-6.5 15.5t6.5 16.5t20.5 7.5q72 0 107 8
q8 2 18.5 -1t12.5 -14t2.5 -33.5t-1.5 -62.5q-1 -41 -2.5 -81t-1.5 -75t1 -62.5t5 -42.5q2 -10 5 -18t8 -13.5t14 -7t24 2.5q8 2 13.5 -4t5.5 -15q0 -6 -3 -12.5t-10 -11.5q-9 -5 -23 -10t-28 -9t-25 -6.5t-13 -2.5q-11 0 -24.5 21t-20.5 54q-4 16 -22 -4q-9 -9 -25 -21.5
t-36.5 -23.5t-44.5 -18.5t-48 -7.5q-35 0 -58.5 11.5t-38 32.5t-21 50.5t-7.5 65.5v33t1 50.5t1.5 62t0.5 68.5q0 11 -1 21.5t-6 18t-15 10.5t-28 0q-14 -2 -20.5 4t-6.5 15t6.5 17.5t18.5 9.5q24 2 52 3.5t40 4.5q5 1 17.5 1.5t17.5 -4.5zM192 684q-13 14 -7 24.5t20 10.5
q4 0 18 0.5t26 0.5q8 0 14 -3.5t11 -15.5q11 -24 30.5 -61.5t43.5 -76.5q6 -10 3 -17.5t-11 -11t-17.5 -2.5t-15.5 7q-15 22 -32 44t-33 41.5t-29.5 35t-20.5 24.5z" />
    <glyph glyph-name="uacute" unicode="&#xfa;" horiz-adv-x="575" 
d="M174 465q11 -14 9 -42.5t-3 -63.5q0 -12 -1 -41t-1.5 -62t-0.5 -63v-43q3 -51 23 -72.5t58 -21.5q21 0 42.5 8.5t40.5 25t31.5 40.5t15.5 56q2 21 3 46.5t1 50t0.5 45.5t0.5 34q1 29 -12.5 43t-47.5 11q-14 -1 -20.5 5.5t-6.5 15.5t6.5 16.5t20.5 7.5q72 0 107 8
q8 2 18.5 -1t12.5 -14t2.5 -33.5t-1.5 -62.5q-1 -41 -2.5 -81t-1.5 -75t1 -62.5t5 -42.5q2 -10 5 -18t8 -13.5t14 -7t24 2.5q8 2 13.5 -4t5.5 -15q0 -6 -3 -12.5t-10 -11.5q-9 -5 -23 -10t-28 -9t-25 -6.5t-13 -2.5q-11 0 -24.5 21t-20.5 54q-4 16 -22 -4q-9 -9 -25 -21.5
t-36.5 -23.5t-44.5 -18.5t-48 -7.5q-35 0 -58.5 11.5t-38 32.5t-21 50.5t-7.5 65.5v33t1 50.5t1.5 62t0.5 68.5q0 11 -1 21.5t-6 18t-15 10.5t-28 0q-14 -2 -20.5 4t-6.5 15t6.5 17.5t18.5 9.5q24 2 52 3.5t40 4.5q5 1 17.5 1.5t17.5 -4.5zM363 684q-7 -9 -20.5 -24.5
t-29.5 -35t-33 -41.5t-32 -44q-6 -6 -15.5 -7t-17.5 2.5t-11 11t3 17.5q24 39 43.5 76.5t30.5 61.5q5 12 11 15.5t14 3.5q12 0 26 -0.5t19 -0.5q14 0 19.5 -10.5t-7.5 -24.5z" />
    <glyph glyph-name="ucircumflex" unicode="&#xfb;" horiz-adv-x="575" 
d="M174 465q11 -14 9 -42.5t-3 -63.5q0 -12 -1 -41t-1.5 -62t-0.5 -63v-43q3 -51 23 -72.5t58 -21.5q21 0 42.5 8.5t40.5 25t31.5 40.5t15.5 56q2 21 3 46.5t1 50t0.5 45.5t0.5 34q1 29 -12.5 43t-47.5 11q-14 -1 -20.5 5.5t-6.5 15.5t6.5 16.5t20.5 7.5q72 0 107 8
q8 2 18.5 -1t12.5 -14t2.5 -33.5t-1.5 -62.5q-1 -41 -2.5 -81t-1.5 -75t1 -62.5t5 -42.5q2 -10 5 -18t8 -13.5t14 -7t24 2.5q8 2 13.5 -4t5.5 -15q0 -6 -3 -12.5t-10 -11.5q-9 -5 -23 -10t-28 -9t-25 -6.5t-13 -2.5q-11 0 -24.5 21t-20.5 54q-4 16 -22 -4q-9 -9 -25 -21.5
t-36.5 -23.5t-44.5 -18.5t-48 -7.5q-35 0 -58.5 11.5t-38 32.5t-21 50.5t-7.5 65.5v33t1 50.5t1.5 62t0.5 68.5q0 11 -1 21.5t-6 18t-15 10.5t-28 0q-14 -2 -20.5 4t-6.5 15t6.5 17.5t18.5 9.5q24 2 52 3.5t40 4.5q5 1 17.5 1.5t17.5 -4.5zM358 542q-18 21 -36.5 42
t-32.5 35q-11 10 -19 0q-15 -14 -32.5 -35t-36.5 -42q-6 -6 -15.5 -7t-17.5 3t-11.5 11.5t3.5 16.5q9 12 22 31t26.5 39.5t26 39.5t19.5 33q4 6 11 9.5t15 3.5t15 -3t10 -9q9 -17 21 -37t25 -39.5t25.5 -37.5t22.5 -30q7 -9 3.5 -16.5t-12 -11.5t-18 -3t-14.5 7z" />
    <glyph glyph-name="udieresis" unicode="&#xfc;" horiz-adv-x="575" 
d="M174 465q11 -14 9 -42.5t-3 -63.5q0 -12 -1 -41t-1.5 -62t-0.5 -63v-43q3 -51 23 -72.5t58 -21.5q21 0 42.5 8.5t40.5 25t31.5 40.5t15.5 56q2 21 3 46.5t1 50t0.5 45.5t0.5 34q1 29 -12.5 43t-47.5 11q-14 -1 -20.5 5.5t-6.5 15.5t6.5 16.5t20.5 7.5q72 0 107 8
q8 2 18.5 -1t12.5 -14t2.5 -33.5t-1.5 -62.5q-1 -41 -2.5 -81t-1.5 -75t1 -62.5t5 -42.5q2 -10 5 -18t8 -13.5t14 -7t24 2.5q8 2 13.5 -4t5.5 -15q0 -6 -3 -12.5t-10 -11.5q-9 -5 -23 -10t-28 -9t-25 -6.5t-13 -2.5q-11 0 -24.5 21t-20.5 54q-4 16 -22 -4q-9 -9 -25 -21.5
t-36.5 -23.5t-44.5 -18.5t-48 -7.5q-35 0 -58.5 11.5t-38 32.5t-21 50.5t-7.5 65.5v33t1 50.5t1.5 62t0.5 68.5q0 11 -1 21.5t-6 18t-15 10.5t-28 0q-14 -2 -20.5 4t-6.5 15t6.5 17.5t18.5 9.5q24 2 52 3.5t40 4.5q5 1 17.5 1.5t17.5 -4.5zM192 566q-8 0 -18 2t-19 8
t-15.5 16.5t-6.5 26.5q0 6 2.5 14.5t9.5 16.5t18.5 13.5t28.5 5.5q20 0 36.5 -14.5t16.5 -39.5q0 -23 -16 -36t-37 -13zM380 566q-8 0 -18.5 2t-19.5 8t-15.5 16.5t-6.5 26.5q0 6 2.5 14.5t9.5 16.5t18.5 13.5t29.5 5.5q20 0 35.5 -14.5t15.5 -39.5q0 -23 -15 -36t-36 -13z
" />
    <glyph glyph-name="yacute" unicode="&#xfd;" horiz-adv-x="531" 
d="M387 394q5 14 -2.5 23t-45.5 3q-12 -2 -18.5 5t-6.5 16q0 8 6 15t19 7q33 -1 53 -2t36.5 -1t33 0.5t41.5 2.5q14 1 19.5 -6t5.5 -15q0 -9 -5.5 -16t-15.5 -6q-28 5 -42 -3t-22 -23q-10 -23 -29 -70t-42.5 -105t-47.5 -120t-45 -113q-25 -64 -46 -102t-39.5 -57.5t-35 -25
t-32.5 -5.5q-23 0 -36 13.5t-13 26.5q0 19 13 27.5t31.5 15.5t39.5 17t37 33q11 18 23 38.5t18 43.5q-9 37 -27 84t-40 98.5t-45.5 104.5t-43.5 101q-10 25 -57 22q-11 -1 -17 6t-6 15q0 9 6.5 16t20.5 5q36 -3 60 -3.5t43 -0.5t36.5 1t40.5 3q19 1 26.5 -6t7.5 -15
q0 -9 -6.5 -16t-16.5 -6q-29 5 -35 -4t-1 -26q24 -85 48 -142.5t35 -82.5q7 -15 17.5 -13t14.5 10q6 12 15.5 35t21 53t24.5 66.5t26 77.5zM359 684q-7 -9 -20.5 -24.5t-29.5 -35t-33 -41.5t-32 -44q-6 -6 -15.5 -7t-17.5 2.5t-11 11t3 17.5q24 39 43.5 76.5t30.5 61.5
q5 12 11 15.5t14 3.5q12 0 26 -0.5t19 -0.5q14 0 19.5 -10.5t-7.5 -24.5z" />
    <glyph glyph-name="thorn" unicode="&#xfe;" horiz-adv-x="544" 
d="M162 706q-2 -57 -4 -120t-2 -128q0 -20 6 -27t17 1q24 15 52 26.5t72 11.5q37 0 72 -17t62 -47t43 -70.5t16 -87.5t-12.5 -93t-39 -83t-67.5 -59.5t-99 -22.5q-38 0 -57.5 11t-11.5 29q9 18 31 12q20 -5 39 -5q31 0 54.5 15.5t39 41.5t23 60t7.5 72q0 34 -7.5 68t-24 61
t-41.5 43.5t-60 16.5q-24 0 -42 -6.5t-30.5 -17t-21.5 -24.5t-15 -28q-3 -25 -4 -66.5t-1.5 -82t0 -72t0.5 -37.5q0 -18 1 -49l2 -62t2 -55.5t1 -28.5q1 -9 2.5 -15.5t8.5 -10t21 -5t40 -0.5q13 1 19 -7.5t5 -18t-7 -18t-17 -7.5q-27 2 -49 3t-44.5 1.5t-48 -0.5t-61.5 -3
q-14 -2 -20.5 6t-6.5 18t6 18t17 7q19 -2 35 3t17 32q2 66 3 143.5t1 157t-0.5 155t-2 138t-3 107t-3.5 60.5q-2 13 -6.5 18.5t-12 7t-17.5 -0.5t-22 -3q-9 -2 -15 5.5t-7 17t4 18t18 8.5q24 1 41 3t31 5.5t27 8t29 9.5q2 -1 5.5 -3t7 -6t5.5 -11.5t0 -20.5z" />
    <glyph glyph-name="ydieresis" unicode="&#xff;" horiz-adv-x="531" 
d="M387 394q5 14 -2.5 23t-45.5 3q-12 -2 -18.5 5t-6.5 16q0 8 6 15t19 7q33 -1 53 -2t36.5 -1t33 0.5t41.5 2.5q14 1 19.5 -6t5.5 -15q0 -9 -5.5 -16t-15.5 -6q-28 5 -42 -3t-22 -23q-10 -23 -29 -70t-42.5 -105t-47.5 -120t-45 -113q-25 -64 -46 -102t-39.5 -57.5t-35 -25
t-32.5 -5.5q-23 0 -36 13.5t-13 26.5q0 19 13 27.5t31.5 15.5t39.5 17t37 33q11 18 23 38.5t18 43.5q-9 37 -27 84t-40 98.5t-45.5 104.5t-43.5 101q-10 25 -57 22q-11 -1 -17 6t-6 15q0 9 6.5 16t20.5 5q36 -3 60 -3.5t43 -0.5t36.5 1t40.5 3q19 1 26.5 -6t7.5 -15
q0 -9 -6.5 -16t-16.5 -6q-29 5 -35 -4t-1 -26q24 -85 48 -142.5t35 -82.5q7 -15 17.5 -13t14.5 10q6 12 15.5 35t21 53t24.5 66.5t26 77.5zM188 566q-8 0 -18 2t-19 8t-15.5 16.5t-6.5 26.5q0 6 2.5 14.5t9.5 16.5t18.5 13.5t28.5 5.5q20 0 36.5 -14.5t16.5 -39.5
q0 -23 -16 -36t-37 -13zM376 566q-8 0 -18.5 2t-19.5 8t-15.5 16.5t-6.5 26.5q0 6 2.5 14.5t9.5 16.5t18.5 13.5t29.5 5.5q20 0 35.5 -14.5t15.5 -39.5q0 -23 -15 -36t-36 -13z" />
    <glyph glyph-name="OE" unicode="&#x152;" horiz-adv-x="981" 
d="M399 39q27 0 48 5.5t36 19t24 36.5t12 59q3 34 4 87t1.5 106.5t0 97.5t-1.5 60q-5 69 -45.5 100.5t-109.5 31.5q-43 0 -81 -16.5t-66 -50t-44 -85.5t-16 -123q0 -70 20.5 -130t53.5 -104t76 -69t88 -25zM875 -2q-33 0 -55 0.5t-40 1l-36 1t-42.5 1t-59 1t-85.5 0.5
q-39 0 -76.5 -6.5t-79.5 -6.5q-79 0 -143 27t-109 74.5t-69.5 112.5t-24.5 142q0 72 26 134.5t72 109t109.5 73t138.5 26.5q25 0 44 -1.5t36 -4l34 -5t38 -4.5t60 -2t84 1t90 3t78 4q30 2 41 -6.5t10 -20.5q-1 -9 -2.5 -23t-3 -29t-3 -27.5t-2.5 -17.5q-2 -12 -9.5 -18
t-15.5 -6.5t-14.5 4t-6.5 13.5q1 27 -7 44.5t-30.5 27t-62 13t-102.5 3.5q-16 0 -25.5 -4.5t-14 -12t-6 -16.5t-2.5 -18q-1 -10 -1.5 -36.5t-0.5 -57.5v-58.5t1 -39.5q1 -22 19 -22h25.5h41.5t41.5 0.5t26.5 0.5q21 2 30 16t9 44q0 9 8 14.5t17 5.5t16.5 -5.5t6.5 -18.5
q-2 -33 -3 -51.5t-1 -33t1 -28.5t2 -36q1 -17 -7 -25t-18 -8t-18 7t-7 18q2 26 -5.5 37.5t-26.5 15.5q-7 1 -28 2t-44 1t-43 -0.5t-26 -1.5q-11 -2 -13.5 -8.5t-2.5 -13.5v-42.5v-58t1 -59.5t2 -47q0 -14 3.5 -23.5t11.5 -15.5t23.5 -9t39.5 -3q23 0 51.5 1.5t47.5 5.5
q20 4 35 15t26 25.5t18 31t12 32.5q4 16 14 21.5t19.5 3.5t16 -10t3.5 -18q-9 -35 -17.5 -72.5t-10.5 -64.5q-1 -8 -7 -13.5t-23 -5.5z" />
    <glyph glyph-name="oe" unicode="&#x153;" horiz-adv-x="839" 
d="M758 268q-18 -2 -49.5 -2.5t-66.5 -1.5t-67.5 -2.5t-51.5 -3.5q-17 -2 -24.5 -8.5t-7.5 -23.5q0 -39 12.5 -70.5t33.5 -54t49.5 -35t61.5 -12.5q32 0 59 13.5t46 34.5q6 7 12 6t10.5 -6t6 -13t-3.5 -16q-13 -21 -31.5 -36.5t-40 -25.5t-45 -15t-45.5 -5q-53 0 -90 17.5
t-62 46.5q-9 11 -18.5 9t-18.5 -12q-29 -30 -68 -46t-89 -16q-47 0 -87.5 15t-70.5 44.5t-47.5 73.5t-17.5 101q0 63 18.5 109.5t50.5 76.5t74 45t89 15q51 0 91.5 -18.5t68.5 -54.5q11 -14 19.5 -15t18.5 13q27 35 66.5 54.5t90.5 19.5q41 0 71.5 -14t50 -36.5t29 -50
t9.5 -54.5q0 -17 -8.5 -30.5t-27.5 -15.5zM410 220q-2 41 -12 78t-28.5 65.5t-44.5 45t-60 16.5q-60 0 -96 -49t-32 -141q1 -40 13 -75.5t31.5 -62.5t45 -42.5t55.5 -15.5q40 0 65.5 16t39.5 41.5t19 58t4 65.5zM527 304q12 -1 33 -1t43.5 1t44.5 2.5t36 4.5q16 3 18.5 21
t-7 37.5t-29.5 35.5t-47 16q-23 0 -42 -9t-33 -22.5t-23 -29t-13 -27.5q-4 -14 0 -20.5t19 -8.5z" />
    <glyph glyph-name="Scaron" unicode="&#x160;" horiz-adv-x="531" 
d="M247 -9q-36 0 -69 7t-57.5 18.5t-39.5 26.5t-15 30q0 26 4 56t9 50q2 9 9 13.5t15 4.5t13 -4t5 -11q0 -23 7.5 -48t24 -46t42.5 -35t64 -14q61 0 92.5 31t31.5 80q0 43 -23.5 71t-59 49.5t-77 40.5t-77 44.5t-59 62.5t-23.5 93q0 28 11.5 59t35.5 56.5t62.5 42.5t92.5 17
q31 0 61 -5t53.5 -12t39 -14.5t18.5 -12.5q3 -2 5 -15.5t3 -32.5t1.5 -40t0.5 -39q0 -11 -8 -17.5t-18 -6.5q-8 0 -13.5 4.5t-7.5 14.5q-4 27 -13.5 51t-26.5 43t-42 30t-58 11q-51 0 -80.5 -30t-29.5 -72t24 -69t60.5 -48t78.5 -40t78.5 -44.5t60.5 -62t24 -91.5
q0 -29 -13.5 -63.5t-42 -64t-71.5 -49.5t-103 -20zM377 881q10 7 21 7.5t19 -2.5q24 -11 7 -28q-20 -18 -36 -33.5t-30 -29t-26.5 -26.5t-25.5 -26q-14 -14 -31.5 -13t-30.5 13q-25 25 -49.5 51.5t-64.5 62.5q-11 9 -8.5 16.5t13.5 12.5q8 3 19.5 2.5t20.5 -7.5
q17 -14 37 -28.5t40 -28.5q23 -17 47 0q21 14 41.5 29t36.5 28z" />
    <glyph glyph-name="scaron" unicode="&#x161;" horiz-adv-x="409" 
d="M203 -10q-30 0 -55.5 5.5t-45 13.5t-31 17t-12.5 16q-2 6 -2 17v22.5t0.5 23t0.5 19.5q1 11 8 17t15 6q13 0 16 -11q13 -43 37.5 -72t75.5 -29q34 0 52.5 18.5t18.5 43.5q0 13 -5.5 23.5t-17.5 21.5t-32.5 23.5t-50.5 29.5q-32 18 -55 34.5t-38 34t-22.5 37t-7.5 43.5
q0 31 13.5 55t34.5 40.5t48 25t54 8.5q53 0 88.5 -11.5t42.5 -18.5q3 -3 5 -15t2.5 -27t0.5 -31v-27q0 -8 -8 -12.5t-18 -4.5q-7 0 -12.5 4t-6.5 12q-1 15 -8.5 30.5t-20.5 28.5t-31.5 21t-40.5 8q-21 0 -35 -6t-22.5 -15.5t-12.5 -20.5t-4 -21q0 -29 23.5 -47t68.5 -42
q39 -21 67.5 -37.5t47.5 -33.5t28 -38t9 -50q0 -28 -12.5 -51.5t-34.5 -41t-51.5 -27t-63.5 -9.5zM129 711l36 -42t33 -35q8 -8 19 0q14 14 32 35t37 42q5 6 14.5 7t17.5 -3t11.5 -11t-2.5 -16q-10 -13 -23 -32t-26.5 -39.5t-26 -40t-19.5 -32.5q-7 -12 -25.5 -13t-26.5 12
q-9 17 -21 37t-24.5 40t-25 37.5t-21.5 30.5q-7 9 -4 16t11 11t18 3t16 -7z" />
    <glyph glyph-name="Ydieresis" unicode="&#x178;" horiz-adv-x="645" 
d="M366 300q-2 -6 -3 -20t-1 -34q0 -19 0.5 -42t1.5 -46t2.5 -45t2.5 -40q2 -21 21 -26t53 0q14 2 20.5 -5.5t6.5 -17.5t-7 -18.5t-20 -7.5q-55 4 -117.5 4.5t-127.5 -5.5q-15 -2 -22 7t-7 20q0 10 5 17t16 6q10 -1 23 -2.5t25 -0.5t20.5 6t10.5 18q3 20 4.5 57.5t1.5 75.5
q0 41 -1.5 73t-4.5 39q-18 36 -43.5 80.5t-52 87.5t-51.5 80t-42 59q-5 6 -9.5 10.5t-10 6.5t-13 2.5t-19.5 -1.5q-11 -2 -17.5 5.5t-6.5 16.5q0 8 6 15t18 6q51 -5 109 -3.5t105 4.5q17 1 24.5 -5.5t7.5 -14.5q0 -10 -7.5 -18t-18.5 -7q-33 5 -44.5 -9.5t-0.5 -33.5
q23 -45 52.5 -101t72.5 -113q6 -8 13 -6.5t12 6.5q15 19 35 48.5t40 60.5t37 59t25 44q4 9 3 19t-8 17.5t-20.5 10.5t-33.5 -1q-12 -2 -19.5 6t-7.5 18q0 8 5.5 13.5t16.5 5.5q32 -1 57 -2t48.5 -1.5t48 0t54.5 3.5q16 1 22.5 -5.5t6.5 -14.5q0 -9 -6.5 -16.5t-17.5 -6.5
q-32 2 -46.5 -8.5t-25.5 -25.5q-12 -14 -30.5 -38.5t-39.5 -54t-43 -62t-40.5 -62t-31 -52.5t-16.5 -35zM223 745q-8 0 -18 2.5t-19 8.5t-15.5 16t-6.5 26q0 6 2.5 14.5t9.5 17t18.5 14t28.5 5.5q20 0 36.5 -15t16.5 -40q0 -23 -16 -36t-37 -13zM460 745q-8 0 -18 2.5
t-19 8.5t-15 16t-6 26q0 6 2.5 14.5t9 17t17.5 14t29 5.5q20 0 36 -15t16 -40q0 -23 -15.5 -36t-36.5 -13z" />
    <glyph glyph-name="Zcaron" unicode="&#x17d;" horiz-adv-x="612" 
d="M490 -3q-32 0 -70 1t-89.5 1.5t-119 0.5t-157.5 -2q-8 0 -16 9.5t-8 22.5t8 22q94 126 190 265.5t186 280.5q7 11 4 23.5t-25 14.5q-27 3 -67.5 3t-73.5 -2q-29 -2 -51 -8t-37 -19t-24 -35t-13 -55q-2 -8 -8.5 -12.5t-14.5 -4.5q-7 0 -13 3.5t-7 10.5q0 6 -0.5 22.5
t-0.5 36.5t-0.5 39.5t-0.5 31.5q-1 16 7 26t33 8q66 -2 128 -2.5t116.5 0t99.5 1.5t76 1q6 0 10 -7t4 -17q0 -14 -7 -22q-123 -171 -214 -304t-151 -233q-4 -7 -7.5 -14.5t-3 -14.5t6 -12t19.5 -6q31 -3 65.5 -4t76.5 -1t69 8.5t44.5 25t28 41.5t21.5 57q4 12 13.5 18
t19.5 6q11 0 17.5 -7t3.5 -21q-2 -12 -5.5 -33.5t-7.5 -44t-6.5 -42.5t-3.5 -30q0 -11 -8 -19t-37 -8zM420 881q10 7 21 7.5t19 -2.5q24 -11 7 -28q-20 -18 -36 -33.5t-30 -29t-26.5 -26.5t-25.5 -26q-14 -14 -31.5 -13t-30.5 13q-25 25 -49.5 51.5t-64.5 62.5
q-11 9 -8.5 16.5t13.5 12.5q8 3 19.5 2.5t20.5 -7.5q17 -14 37 -28.5t40 -28.5q23 -17 47 0q21 14 41.5 29t36.5 28z" />
    <glyph glyph-name="zcaron" unicode="&#x17e;" horiz-adv-x="491" 
d="M410 0h-348q-11 0 -17.5 9.5t-6.5 21.5t7 20q32 37 66.5 80t69.5 87t68 88t62 84q17 22 -11 25q-37 5 -77.5 3t-66.5 -5q-21 -3 -29.5 -17.5t-13 -31.5t-9 -30.5t-15.5 -13.5q-15 0 -21 9.5t-6 17.5q0 17 -0.5 41.5t-0.5 41.5q0 31 34 31q35 0 80 -0.5t91.5 -0.5
t89.5 0.5t73 0.5q7 0 11.5 -7.5t4.5 -18.5q0 -13 -8 -23q-33 -39 -73 -88t-78 -96t-68.5 -88t-44.5 -63q-7 -11 -1 -20.5t20 -11.5q15 -3 35.5 -4t41 0t37.5 3t25 4q10 2 20.5 7t19.5 15t15.5 26.5t9.5 40.5q1 6 6.5 11.5t12.5 5.5t12 -7t7 -24q2 -13 3 -30t1 -34
q0 -24 -5.5 -41.5t-22.5 -17.5zM171 711l36 -42t33 -35q8 -8 19 0q14 14 32 35t37 42q5 6 14.5 7t17.5 -3t11.5 -11t-2.5 -16q-10 -13 -23 -32t-26.5 -39.5t-26 -40t-19.5 -32.5q-7 -12 -25.5 -13t-26.5 12q-9 17 -21 37t-24.5 40t-25 37.5t-21.5 30.5q-7 9 -4 16t11 11
t18 3t16 -7z" />
    <glyph glyph-name="florin" unicode="&#x192;" horiz-adv-x="316" 
d="M131 533q23 106 65.5 160t110.5 54q22 0 33.5 -12t9.5 -27q-2 -16 -15.5 -25.5t-28.5 -9.5q-11 0 -17.5 1.5t-12 3.5t-11 3.5t-14.5 1.5q-10 0 -18 -7t-14 -25t-11 -48.5t-10 -78.5l-6 -50q-1 -15 12 -15h18.5t23 0.5t22.5 1.5t18 1q14 0 19.5 -7.5t4.5 -17t-7 -17
t-16 -7.5h-20.5h-25h-24.5h-20q-12 0 -13 -13l-21 -204q-12 -110 -29 -186.5t-41 -124t-56 -68.5t-72 -21q-27 0 -40.5 14t-11.5 31t14.5 27t27.5 10q21 0 35 -10t28 -10q19 0 31.5 38.5t22.5 128.5l39 369q1 8 -3.5 11.5t-11.5 4.5t-15 0.5t-14 0.5q-8 1 -11.5 8.5t-3 15.5
t6 15t14.5 8q15 1 25 8.5t16.5 18.5t10.5 23.5t6 24.5z" />
    <glyph glyph-name="circumflex" unicode="&#x2c6;" horiz-adv-x="369" 
d="M264 542q-18 21 -36.5 42t-32.5 35q-11 10 -19 0q-15 -14 -32.5 -35t-36.5 -42q-6 -6 -15.5 -7t-17.5 3t-11.5 11.5t3.5 16.5q9 12 22 31t26.5 39.5t26 39.5t19.5 33q4 6 11 9.5t15 3.5t15 -3t10 -9q9 -17 21 -37t25 -39.5t25.5 -37.5t22.5 -30q7 -9 3.5 -16.5t-12 -11.5
t-18 -3t-14.5 7z" />
    <glyph glyph-name="tilde" unicode="&#x2dc;" horiz-adv-x="427" 
d="M137 698q23 1 42.5 -11t37 -26.5t34 -27t33.5 -12.5t27 13.5t18 37.5q3 10 9 13t13 1t12 -8t5 -13q0 -10 -4.5 -29t-15.5 -38t-29.5 -33t-45.5 -14q-24 0 -43.5 12.5t-36 27.5t-31 27.5t-27.5 12.5q-18 0 -24 -12.5t-12 -31.5q-3 -9 -9.5 -11.5t-13.5 0t-12 8.5t-5 14
q0 9 4.5 25.5t14 33t24 28.5t35.5 13z" />
    <glyph glyph-name="uni03BC" unicode="&#x3bc;" horiz-adv-x="588" 
d="M235 -10q-18 0 -29 2.5t-18 2.5q-8 0 -8 -11q0 -41 2.5 -83.5t2.5 -73.5q0 -9 -2 -14t-12 -7q-2 0 -9 -1.5t-16 -3l-18 -3t-14 -2.5q-9 -2 -11.5 5.5t-2.5 16.5q2 82 3.5 150.5t2.5 132t1 127.5t-1 136q0 11 -1.5 21.5t-6 18t-14.5 10.5t-28 0q-14 -2 -20.5 4t-6.5 15
t6.5 17.5t18.5 9.5t25.5 1.5t26 1.5t23 2t16.5 3q6 1 18.5 1.5t16.5 -4.5q11 -14 9.5 -42.5t-2.5 -63.5q0 -12 -1 -41t-1.5 -62t-1 -63t0.5 -43q3 -51 22.5 -72.5t58.5 -21.5q21 0 42.5 8.5t40.5 25t31.5 40.5t15.5 56q2 21 3 46.5t1 50t0.5 45.5t0.5 34q1 29 -12.5 43
t-48.5 11q-13 -1 -19.5 5.5t-6.5 15.5t6.5 16.5t19.5 7.5q73 0 108 8q8 2 18.5 -1t12.5 -14t2.5 -33.5t-1.5 -62.5q-1 -41 -2.5 -81t-2 -75t1 -62.5t5.5 -42.5q2 -10 5 -18t8 -13.5t14 -7t24 2.5q8 2 13.5 -4t5.5 -15q0 -6 -3 -12.5t-11 -11.5t-22 -10t-28 -9t-25 -6.5
t-13 -2.5q-11 0 -24.5 21t-20.5 54q-4 16 -22 -4q-9 -9 -25 -21.5t-36 -23.5t-42.5 -18.5t-43.5 -7.5z" />
    <glyph glyph-name="endash" unicode="&#x2013;" horiz-adv-x="670" 
d="M84 317q6 0 41.5 -0.5t87 -1.5t110.5 -1.5t112.5 -0.5t94 1.5t53.5 5.5t22 -9t9 -29q0 -12 -7 -21.5t-23 -9.5h-66.5h-95.5t-108 0.5t-103.5 0.5t-81.5 -0.5t-43 -1.5q-13 -3 -19.5 7t-6.5 24q0 13 6 24t18 12z" />
    <glyph glyph-name="emdash" unicode="&#x2014;" horiz-adv-x="956" 
d="M85 317q4 0 38 -0.5t87 -1t120 -1t136.5 -1t137.5 -0.5t123.5 0.5t93.5 2t48 4.5q13 4 22 -9t9 -29q0 -12 -6.5 -21.5t-23.5 -9.5h-58.5h-97.5h-122.5t-134 0.5t-131 0.5h-114.5t-84.5 -0.5t-40.5 -1.5q-13 -3 -19.5 7t-6.5 24q0 13 6 24t18 12z" />
    <glyph glyph-name="quoteleft" unicode="&#x2018;" horiz-adv-x="252" 
d="M144 688q2 1 7 1q11 0 17.5 -8.5t6.5 -17.5q0 -7 -3.5 -13t-11.5 -8q-32 -8 -49 -31.5t-17 -46.5q0 -10 5.5 -23t16.5 -13q8 0 18 5t22 5q14 0 23.5 -6t15.5 -15t8.5 -19.5t2.5 -19.5q0 -15 -5.5 -25t-14.5 -16t-19.5 -8.5t-20.5 -2.5q-27 0 -46 14t-31.5 33.5
t-18.5 41.5t-6 38q0 42 26 79t74 56z" />
    <glyph glyph-name="quoteright" unicode="&#x2019;" horiz-adv-x="251" 
d="M106 426q-2 -1 -7 -1q-11 0 -17.5 8t-6.5 18q0 7 4 12.5t11 7.5q16 4 28 12.5t20.5 19.5t13 23.5t4.5 23.5q0 10 -5.5 23t-16.5 13q-8 0 -18 -5.5t-22 -5.5q-14 0 -23.5 6t-15.5 15t-8.5 19.5t-2.5 19.5q0 15 5.5 25t14.5 16.5t19.5 9t20.5 2.5q27 0 46 -14t32 -34
t19 -41.5t6 -37.5q0 -43 -26 -80t-75 -55z" />
    <glyph glyph-name="quotesinglbase" unicode="&#x201a;" horiz-adv-x="270" 
d="M124 -159q-2 -1 -7 -1q-10 0 -17 8.5t-7 17.5q0 16 16 21q31 8 48.5 31.5t17.5 46.5q0 10 -6 23t-17 13q-7 0 -17 -5.5t-22 -5.5q-14 0 -23.5 6t-15.5 15t-8.5 19.5t-2.5 19.5q0 15 5.5 25t14 16.5t19 9t20.5 2.5q27 0 46 -14t32 -34t19 -41.5t6 -37.5q0 -43 -26 -80
t-75 -55z" />
    <glyph glyph-name="quotedblleft" unicode="&#x201c;" horiz-adv-x="457" 
d="M144 688q2 1 7 1q11 0 17.5 -8.5t6.5 -17.5q0 -7 -3.5 -13t-11.5 -8q-32 -8 -49 -31.5t-17 -46.5q0 -10 5.5 -23t16.5 -13q8 0 18 5t22 5q14 0 23.5 -6t15.5 -15t8.5 -19.5t2.5 -19.5q0 -15 -5.5 -25t-14.5 -16t-19.5 -8.5t-20.5 -2.5q-27 0 -46 14t-31.5 33.5
t-18.5 41.5t-6 38q0 42 26 79t74 56zM349 688q2 1 7 1q11 0 17.5 -8.5t6.5 -17.5q0 -16 -15 -21q-32 -8 -49 -31.5t-17 -46.5q0 -10 5.5 -23t16.5 -13q8 0 18 5t22 5q14 0 23.5 -6t15.5 -15t8.5 -19.5t2.5 -19.5q0 -15 -5.5 -25t-14.5 -16t-19.5 -8.5t-20.5 -2.5
q-27 0 -46 14t-32 33.5t-19 41.5t-6 38q0 42 26 79t75 56z" />
    <glyph glyph-name="quotedblright" unicode="&#x201d;" horiz-adv-x="454" 
d="M310 428q-3 -1 -7 -1q-11 0 -17.5 8t-6.5 18q0 15 15 20q16 4 28 12.5t20.5 19.5t13 23.5t4.5 23.5q0 10 -5.5 23t-16.5 13q-8 0 -18 -5.5t-22 -5.5q-14 0 -23.5 6t-15.5 15t-8.5 19.5t-2.5 19.5q0 15 5.5 25t14 16.5t19 9t20.5 2.5q27 0 46.5 -14t32.5 -34t19 -41.5
t6 -37.5q0 -43 -26.5 -80t-74.5 -55zM105 428q-2 -1 -7 -1q-11 0 -17.5 8t-6.5 18q0 15 15 20q16 4 28 12.5t20.5 19.5t13 23.5t4.5 23.5q0 10 -5.5 23t-16.5 13q-8 0 -17.5 -5.5t-22.5 -5.5q-14 0 -23.5 6t-15 15t-8 19.5t-2.5 19.5q0 15 5.5 25t14 16.5t19 9t20.5 2.5
q27 0 46 -14t32 -34t19 -41.5t6 -37.5q0 -43 -26 -80t-75 -55z" />
    <glyph glyph-name="quotedblbase" unicode="&#x201e;" horiz-adv-x="476" 
d="M330 -159q-3 -1 -8 -1q-11 0 -17 8.5t-6 17.5q0 16 14 21q32 8 49 31.5t17 46.5q0 10 -5.5 23t-16.5 13q-8 0 -17.5 -5.5t-22.5 -5.5q-14 0 -23.5 6t-15 15t-8 19.5t-2.5 19.5q0 15 5.5 25t14 16.5t19 9t20.5 2.5q27 0 46.5 -14t32.5 -34t19 -41.5t6 -37.5
q0 -43 -26.5 -80t-74.5 -55zM124 -159q-2 -1 -7 -1q-10 0 -17 8.5t-7 17.5q0 16 16 21q31 8 48.5 31.5t17.5 46.5q0 10 -6 23t-17 13q-7 0 -17 -5.5t-22 -5.5q-14 0 -23.5 6t-15.5 15t-8.5 19.5t-2.5 19.5q0 15 5.5 25t14 16.5t19 9t20.5 2.5q27 0 46 -14t32 -34t19 -41.5
t6 -37.5q0 -43 -26 -80t-75 -55z" />
    <glyph glyph-name="dagger" unicode="&#x2020;" horiz-adv-x="466" 
d="M210 159q-2 21 -9 34.5t-15 22t-14 14t-6 11.5t7 10.5t15.5 12.5t15.5 22.5t7 41.5q0 43 -2 71.5t-6 45.5q-8 29 -22 35.5t-36 6.5q-24 0 -41.5 -11.5t-26.5 -17.5q-26 4 -34 22.5t1 35.5q5 12 17.5 19.5t31.5 7.5q16 0 31.5 -5.5t29 -11.5t25 -11.5t19.5 -5.5t10.5 7
t3.5 19q0 20 -4 44.5t-9 48t-9.5 43.5t-4.5 30q0 15 11 30.5t37 15.5q25 0 36 -15.5t11 -30.5q0 -11 -4.5 -28.5t-9.5 -39.5t-9 -47t-2 -51q1 -12 3.5 -19t13.5 -7q4 0 15 5.5t25 11.5t29.5 11.5t29.5 5.5q20 0 33 -7.5t19 -19.5q8 -17 0.5 -35t-35.5 -23q-9 6 -26.5 17.5
t-41.5 11.5q-29 0 -43 -13.5t-19 -39.5q-5 -21 -5 -48v-59q0 -27 6.5 -41t15 -21.5t15 -11.5t6.5 -11q0 -5 -5.5 -10.5t-12.5 -14.5t-14 -23t-10 -35q-2 -17 -5 -44.5t-3 -64.5q-2 -48 -2 -109t5 -127q1 -9 -5.5 -13.5t-14.5 -4.5t-14 4.5t-6 13.5q3 43 4.5 84.5t1.5 76.5
t-0.5 60.5t-0.5 37.5q0 23 -1 43t-3 43z" />
    <glyph glyph-name="daggerdbl" unicode="&#x2021;" horiz-adv-x="477" 
d="M216 534q0 19 -4 43.5t-8.5 48.5t-8 44t-3.5 30q0 14 11 30t37 16q25 0 36 -16t11 -30q0 -11 -4.5 -28.5t-9.5 -39.5t-9 -47t-2 -51q0 -17 8 -26.5t19 -14t22.5 -6t17.5 -1.5q26 0 41.5 10.5t23.5 16.5q23 -2 33 -19t5 -35q-3 -12 -14 -21t-40 -9q-20 0 -47 6.5t-53 26.5
q-11 7 -14.5 -3.5t-5.5 -22.5q-2 -16 -1.5 -44.5t0.5 -57.5q0 -10 6.5 -17.5t15 -14t15 -11.5t6.5 -11t-6.5 -12t-14.5 -12.5t-14.5 -14t-6.5 -16.5q0 -5 -0.5 -20.5t-1 -33.5t-0.5 -35t1 -25q1 -6 2.5 -12.5t3.5 -11t6 -6t9 2.5q26 20 53 27t47 7q28 0 39.5 -10t14.5 -21
q4 -18 -5.5 -35t-32.5 -19q-8 6 -23.5 17t-41.5 11q-7 0 -18 -1.5t-22 -6.5t-19 -14.5t-8 -25.5q0 -59 11 -101.5t11 -65.5q0 -25 -11.5 -36.5t-31.5 -11.5q-21 0 -34.5 9.5t-14.5 32.5q0 14 3.5 29t8 35t8 46t3.5 63q0 16 -8 25.5t-19 14.5t-22 6.5t-17 1.5
q-26 0 -41.5 -11t-24.5 -17q-16 1 -25.5 10t-11.5 20q-3 9 -2 18.5t7 17.5t17.5 13.5t30.5 5.5q20 0 47 -7t53 -27q10 -7 13.5 3.5t5.5 23.5q2 9 2 27.5t-1 38.5q-1 22 -2 48q0 9 -7 17t-15 14.5t-15 12t-7 10.5t7 10.5t16 12.5t16 14.5t7 17.5q2 29 1 58.5t-1 43.5
q0 12 -5 22.5t-15 3.5q-27 -20 -53.5 -26.5t-46.5 -6.5q-29 0 -40 9t-13 21q-6 18 3.5 35t33.5 19q9 -6 24.5 -16.5t41.5 -10.5q5 0 16 1.5t22.5 6t20 14t8.5 26.5z" />
    <glyph glyph-name="bullet" unicode="&#x2022;" horiz-adv-x="331" 
d="M61 280q0 48 30 73.5t76 25.5q50 0 76.5 -22.5t26.5 -64.5q0 -48 -26.5 -80t-76.5 -32t-78 29t-28 71z" />
    <glyph glyph-name="ellipsis" unicode="&#x2026;" horiz-adv-x="704" 
d="M61 49q0 29 18 44.5t44 15.5q31 0 44.5 -13.5t13.5 -39.5q0 -29 -13.5 -47.5t-44.5 -18.5q-29 0 -45.5 17t-16.5 42zM291 49q0 29 18 44.5t44 15.5q58 0 58 -53q0 -29 -14 -47.5t-44 -18.5q-29 0 -45.5 17t-16.5 42zM521 49q0 29 18 44.5t44 15.5q58 0 58 -53
q0 -29 -14 -47.5t-44 -18.5q-29 0 -45.5 17t-16.5 42z" />
    <glyph glyph-name="perthousand" unicode="&#x2030;" horiz-adv-x="1236" 
d="M221 689q34 0 65 -11t54 -32.5t37 -52.5t14 -71q0 -41 -13.5 -74t-37.5 -56t-56.5 -35.5t-71.5 -12.5q-35 0 -66.5 11.5t-54.5 33t-36.5 51.5t-13.5 68q0 44 14.5 78t39 57t57.5 34.5t69 11.5zM332 498q0 25 -11 50t-30 45t-43.5 32.5t-52.5 12.5q-17 0 -34.5 -7t-31 -20
t-22 -33t-8.5 -45q0 -29 12.5 -54t32 -43.5t44 -29t48.5 -10.5t42 8.5t30 22.5t18 32.5t6 38.5zM648 334q34 0 65 -11t54 -32.5t37 -52.5t14 -71q0 -41 -13.5 -74t-37.5 -56t-56.5 -35.5t-71.5 -12.5q-35 0 -66.5 11.5t-54.5 33t-36.5 51.5t-13.5 68q0 44 14.5 78t39 57
t57.5 34.5t69 11.5zM759 143q0 25 -11 50t-30 45t-44 32.5t-52 12.5q-17 0 -34.5 -7t-31 -20t-22 -33t-8.5 -45q0 -29 12 -54t31.5 -43.5t44 -29t48.5 -10.5t42 8.5t30.5 22.5t18.5 32.5t6 38.5zM1028 334q34 0 65 -11t54 -32.5t37 -52.5t14 -71q0 -41 -13.5 -74t-37.5 -56
t-56.5 -35.5t-71.5 -12.5q-35 0 -66.5 11.5t-54.5 33t-36.5 51.5t-13.5 68q0 44 14.5 78t39 57t57.5 34.5t69 11.5zM1139 143q0 25 -11 50t-30 45t-43.5 32.5t-52.5 12.5q-17 0 -34.5 -7t-31 -20t-22 -33t-8.5 -45q0 -29 12.5 -54t32 -43.5t44 -29t48.5 -10.5t42 8.5
t30 22.5t18 32.5t6 38.5zM261 26q-8 -15 -15 -25.5t-23 -10.5q-9 0 -20 4t-11 16q0 8 4 15t9 12q3 3 35 51.5t84.5 132.5t121 199t143.5 251q5 9 11.5 13t13.5 4q11 0 20.5 -7.5t9.5 -18.5q0 -6 -5 -13q-2 -2 -19 -30t-44 -71.5t-60.5 -98.5t-68 -112.5l-67.5 -112.5
t-59 -98.5t-42.5 -70.5t-17.5 -29z" />
    <glyph glyph-name="guilsinglleft" unicode="&#x2039;" horiz-adv-x="278" 
d="M38 235q0 8 8 20.5t25.5 33.5t44.5 52.5t65 78.5q5 8 18 8q9 0 17 -6t8 -15q0 -7 -4 -12q-23 -31 -40.5 -59t-29.5 -50t-18 -36t-6 -17t3.5 -14t13 -30t26.5 -47t43 -66q4 -7 4 -13q0 -11 -9 -17t-19 -6t-16 7q-65 81 -99.5 125.5t-34.5 62.5z" />
    <glyph glyph-name="guilsinglright" unicode="&#x203a;" horiz-adv-x="278" 
d="M239 235q0 -18 -34.5 -62.5t-99.5 -125.5q-6 -7 -16 -7t-19 6.5t-9 16.5q0 5 5 13q26 38 42.5 66t26 47t13 30t3.5 14t-6.5 17t-18.5 36t-29.5 50t-39.5 59q-4 5 -4 12q0 9 8 15t18 6q11 0 18 -8q38 -47 65 -78.5t44 -52.5t25 -33.5t8 -20.5z" />
    <glyph glyph-name="Euro" unicode="&#x20ac;" horiz-adv-x="653" 
d="M56 374q-10 0 -15 4.5t-5 18.5q0 11 6 17.5t14 4.5q9 -1 17 -1q7 -1 14 -1h11q11 -1 16.5 6t7.5 17q10 55 35.5 100.5t63 78.5t86 51.5t104.5 18.5q43 0 78.5 -7t61.5 -17.5t41 -23t17 -23.5q1 -11 -4 -26t-12 -30t-15 -29t-13 -24q-4 -8 -10 -8.5t-12 3.5t-9.5 10.5
t-1.5 12.5q17 57 -17.5 91t-111.5 34q-36 0 -67.5 -16t-57 -45.5t-44 -69.5t-27.5 -88q-2 -13 4 -15.5t17 -2.5q28 0 67 -0.5t78.5 -0.5t75 0.5t56.5 0.5q14 0 16 -6.5t2 -14.5q0 -9 -4.5 -15t-12.5 -6q-10 0 -42 0.5t-74.5 0.5h-89h-85.5q-8 0 -11.5 -6.5t-3.5 -12.5
q0 -8 0.5 -19.5t1.5 -15.5q2 -10 6 -16t15 -6h53h65.5t64 0.5t48.5 0.5q14 0 15.5 -7t1.5 -15t-4 -14t-12 -6q-9 0 -33 0.5t-56 0.5h-67.5h-65.5q-9 0 -13 -7t-1 -18q32 -97 87.5 -145t118.5 -48q37 0 63.5 7t43.5 16t26 18l12 12q4 4 9.5 2t9 -8t4.5 -13.5t-2 -12.5
q-3 -3 -15 -14t-35 -24t-57.5 -23t-81.5 -10q-54 0 -99.5 17.5t-81 50t-61 77.5t-38.5 99q-6 24 -26 24h-40q-10 -1 -15 3.5t-5 18.5q0 12 6 18.5t14 4.5q2 -1 14.5 -1.5t23.5 -0.5q13 0 15.5 4.5t2.5 12.5q0 7 -0.5 21t-0.5 20t-2.5 10.5t-10.5 4.5h-42z" />
    <glyph glyph-name="trademark" unicode="&#x2122;" horiz-adv-x="632" 
d="M493 567q0 17 -5.5 14.5t-10.5 -13.5l-62 -149q-2 -4 -10 -4t-9 4q-13 29 -25 56q-11 23 -21.5 49t-17.5 44q-5 11 -11 13.5t-6 -14.5v-41q0 -17 0.5 -36t0.5 -33q0 -12 5 -14t25 -2q4 0 6.5 -4t2.5 -8.5t-1.5 -8t-5.5 -3.5q-11 0 -36.5 1t-56.5 -1q-4 0 -6 3.5t-2 8.5
t2 8.5t6 3.5q13 0 19.5 2.5t7.5 14.5q1 17 1 32v30t-1 31.5t-2 37.5q0 9 -3.5 13.5t-11.5 7t-22.5 2.5t-37.5 -1q-13 -1 -17 -8.5t-5 -16.5q0 -2 -0.5 -20t-0.5 -39.5t0.5 -42t1.5 -27.5q3 -15 26 -15q5 0 7 -4t2 -8.5t-2.5 -8.5t-6.5 -4q-21 2 -47 3.5t-55 -3.5q-5 0 -7 4
t-2.5 8.5t1.5 8.5t5 5q7 2 16.5 1t11.5 7q1 7 1.5 28t0.5 44v42.5v22.5q0 9 -4 15.5t-13 6.5h-18q-17 0 -22.5 -5.5t-7 -13t-2 -14.5t-7.5 -9q-20 -3 -21 7v61q2 5 7 5t11 -2q39 -2 84.5 -2.5t86 0.5t71 2t38.5 1q8 1 12 -4.5t5 -7.5q8 -24 17 -48.5t18.5 -41t18.5 -21.5
t17 12q10 21 20 49t20 52q0 2 2 4q4 4 15 5h82q8 0 10.5 -5.5t2 -11.5t-3.5 -11t-6 -4q-14 1 -21 -0.5t-7 -12.5q-2 -30 -1 -70t3 -70q1 -5 4.5 -7.5t17.5 -2.5q5 0 7.5 -4t2.5 -9.5t-2 -9.5t-6 -4t-14 1t-24 1t-30.5 -0.5t-31.5 -1.5q-4 0 -7 4.5t-3.5 9t2 8t8.5 3.5
q17 -2 20 4t4 18q3 52 3 78v25z" />
    <glyph glyph-name="glyph223" horiz-adv-x="0" 
 />
    <glyph glyph-name="glyph224" horiz-adv-x="0" 
 />
  </font>
</defs>
</svg>
